<?xml version="1.0" encoding="UTF-8" standalone="no"?>
<!DOCTYPE svg PUBLIC "-//W3C//DTD SVG 1.1//EN"
 "http://www.w3.org/Graphics/SVG/1.1/DTD/svg11.dtd">
<!-- Generated by graphviz version 2.43.0 (0)
 -->
<!-- Title: snakemake_dag Pages: 1 -->
<svg width="2441pt" height="508pt"
 viewBox="0.00 0.00 2441.00 508.00" xmlns="http://www.w3.org/2000/svg" xmlns:xlink="http://www.w3.org/1999/xlink">
<g id="graph0" class="graph" transform="scale(1 1) rotate(0) translate(4 504)">
<title>snakemake_dag</title>
<polygon fill="white" stroke="transparent" points="-4,4 -4,-504 2437,-504 2437,4 -4,4"/>
<!-- 0 -->
<g id="node1" class="node">
<title>0</title>
<path fill="none" stroke="#56d8b1" stroke-width="2" d="M1229,-36C1229,-36 1115,-36 1115,-36 1109,-36 1103,-30 1103,-24 1103,-24 1103,-12 1103,-12 1103,-6 1109,0 1115,0 1115,0 1229,0 1229,0 1235,0 1241,-6 1241,-12 1241,-12 1241,-24 1241,-24 1241,-30 1235,-36 1229,-36"/>
<text text-anchor="middle" x="1172" y="-15.5" font-family="sans" font-size="10.00">build_ALL_PharmacoSets</text>
</g>
<!-- 1 -->
<g id="node2" class="node">
<title>1</title>
<path fill="none" stroke="#56d8c1" stroke-width="2" d="M1151,-108C1151,-108 1065,-108 1065,-108 1059,-108 1053,-102 1053,-96 1053,-96 1053,-84 1053,-84 1053,-78 1059,-72 1065,-72 1065,-72 1151,-72 1151,-72 1157,-72 1163,-78 1163,-84 1163,-84 1163,-96 1163,-96 1163,-102 1157,-108 1151,-108"/>
<text text-anchor="middle" x="1108" y="-87.5" font-family="sans" font-size="10.00">build_PharmacoSet</text>
</g>
<!-- 1&#45;&gt;0 -->
<g id="edge1" class="edge">
<title>1&#45;&gt;0</title>
<path fill="none" stroke="grey" stroke-width="2" d="M1123.82,-71.7C1131.57,-63.22 1141.04,-52.86 1149.52,-43.58"/>
<polygon fill="grey" stroke="grey" stroke-width="2" points="1152.2,-45.85 1156.36,-36.1 1147.03,-41.12 1152.2,-45.85"/>
</g>
<!-- 2 -->
<g id="node3" class="node">
<title>2</title>
<path fill="none" stroke="#ced856" stroke-width="2" stroke-dasharray="5,2" d="M1167,-398.5C1167,-398.5 1063,-398.5 1063,-398.5 1057,-398.5 1051,-392.5 1051,-386.5 1051,-386.5 1051,-374.5 1051,-374.5 1051,-368.5 1057,-362.5 1063,-362.5 1063,-362.5 1167,-362.5 1167,-362.5 1173,-362.5 1179,-368.5 1179,-374.5 1179,-374.5 1179,-386.5 1179,-386.5 1179,-392.5 1173,-398.5 1167,-398.5"/>
<text text-anchor="middle" x="1115" y="-378" font-family="sans" font-size="10.00">preprocess_METADATA</text>
</g>
<!-- 2&#45;&gt;1 -->
<g id="edge7" class="edge">
<title>2&#45;&gt;1</title>
<path fill="none" stroke="grey" stroke-width="2" d="M1050.89,-374.37C984.15,-367.54 886.15,-352.81 863,-324 840.92,-296.53 886.39,-184.44 934,-144 938.43,-140.23 995.41,-123.25 1042.97,-109.5"/>
<polygon fill="grey" stroke="grey" stroke-width="2" points="1044.01,-112.85 1052.65,-106.71 1042.07,-106.12 1044.01,-112.85"/>
</g>
<!-- 8 -->
<g id="node9" class="node">
<title>8</title>
<path fill="none" stroke="#d85656" stroke-width="2" stroke-dasharray="5,2" d="M1141,-252C1141,-252 1069,-252 1069,-252 1063,-252 1057,-246 1057,-240 1057,-240 1057,-228 1057,-228 1057,-222 1063,-216 1069,-216 1069,-216 1141,-216 1141,-216 1147,-216 1153,-222 1153,-228 1153,-228 1153,-240 1153,-240 1153,-246 1147,-252 1141,-252"/>
<text text-anchor="middle" x="1105" y="-231.5" font-family="sans" font-size="10.00">preprocess_CNV</text>
</g>
<!-- 2&#45;&gt;8 -->
<g id="edge19" class="edge">
<title>2&#45;&gt;8</title>
<path fill="none" stroke="grey" stroke-width="2" d="M1076.35,-362.39C1060.86,-353.36 1044.66,-340.66 1036,-324 1028.62,-309.8 1028.93,-302.35 1036,-288 1041.96,-275.91 1052.15,-265.8 1062.9,-257.77"/>
<polygon fill="grey" stroke="grey" stroke-width="2" points="1064.94,-260.61 1071.16,-252.04 1060.95,-254.86 1064.94,-260.61"/>
</g>
<!-- 11 -->
<g id="node12" class="node">
<title>11</title>
<path fill="none" stroke="#56a2d8" stroke-width="2" stroke-dasharray="5,2" d="M1507,-252C1507,-252 1415,-252 1415,-252 1409,-252 1403,-246 1403,-240 1403,-240 1403,-228 1403,-228 1403,-222 1409,-216 1415,-216 1415,-216 1507,-216 1507,-216 1513,-216 1519,-222 1519,-228 1519,-228 1519,-240 1519,-240 1519,-246 1513,-252 1507,-252"/>
<text text-anchor="middle" x="1461" y="-231.5" font-family="sans" font-size="10.00">preprocess_RNASEQ</text>
</g>
<!-- 2&#45;&gt;11 -->
<g id="edge22" class="edge">
<title>2&#45;&gt;11</title>
<path fill="none" stroke="grey" stroke-width="2" d="M1179.02,-376.01C1294.87,-369.05 1529.62,-351.66 1554,-324 1564.58,-312 1562.04,-301.83 1554,-288 1546.41,-274.94 1534.27,-264.84 1521.24,-257.12"/>
<polygon fill="grey" stroke="grey" stroke-width="2" points="1522.57,-253.86 1512.11,-252.16 1519.22,-260.01 1522.57,-253.86"/>
</g>
<!-- 14 -->
<g id="node15" class="node">
<title>14</title>
<path fill="none" stroke="#59d856" stroke-width="2" stroke-dasharray="5,2" d="M1015.5,-252C1015.5,-252 926.5,-252 926.5,-252 920.5,-252 914.5,-246 914.5,-240 914.5,-240 914.5,-228 914.5,-228 914.5,-222 920.5,-216 926.5,-216 926.5,-216 1015.5,-216 1015.5,-216 1021.5,-216 1027.5,-222 1027.5,-228 1027.5,-228 1027.5,-240 1027.5,-240 1027.5,-246 1021.5,-252 1015.5,-252"/>
<text text-anchor="middle" x="971" y="-231.5" font-family="sans" font-size="10.00">preprocess_FUSION</text>
</g>
<!-- 2&#45;&gt;14 -->
<g id="edge25" class="edge">
<title>2&#45;&gt;14</title>
<path fill="none" stroke="grey" stroke-width="2" d="M1050.76,-373.69C986.73,-366.42 894.86,-351.44 873,-324 863.03,-311.49 864.81,-301.74 873,-288 880.96,-274.64 893.59,-264.45 907.16,-256.75"/>
<polygon fill="grey" stroke="grey" stroke-width="2" points="908.94,-259.77 916.18,-252.04 905.7,-253.56 908.94,-259.77"/>
</g>
<!-- 17 -->
<g id="node18" class="node">
<title>17</title>
<path fill="none" stroke="#56d863" stroke-width="2" stroke-dasharray="5,2" d="M1286.5,-252C1286.5,-252 1183.5,-252 1183.5,-252 1177.5,-252 1171.5,-246 1171.5,-240 1171.5,-240 1171.5,-228 1171.5,-228 1171.5,-222 1177.5,-216 1183.5,-216 1183.5,-216 1286.5,-216 1286.5,-216 1292.5,-216 1298.5,-222 1298.5,-228 1298.5,-228 1298.5,-240 1298.5,-240 1298.5,-246 1292.5,-252 1286.5,-252"/>
<text text-anchor="middle" x="1235" y="-231.5" font-family="sans" font-size="10.00">preprocess_MUTATION</text>
</g>
<!-- 2&#45;&gt;17 -->
<g id="edge28" class="edge">
<title>2&#45;&gt;17</title>
<path fill="none" stroke="grey" stroke-width="2" d="M1146.9,-362.47C1162.65,-352.83 1181.01,-339.58 1194,-324 1209.33,-305.61 1220.19,-280.55 1226.87,-261.71"/>
<polygon fill="grey" stroke="grey" stroke-width="2" points="1230.19,-262.82 1230.07,-252.22 1223.56,-260.58 1230.19,-262.82"/>
</g>
<!-- 20 -->
<g id="node21" class="node">
<title>20</title>
<path fill="none" stroke="#5682d8" stroke-width="2" d="M774.5,-324C774.5,-324 627.5,-324 627.5,-324 621.5,-324 615.5,-318 615.5,-312 615.5,-312 615.5,-300 615.5,-300 615.5,-294 621.5,-288 627.5,-288 627.5,-288 774.5,-288 774.5,-288 780.5,-288 786.5,-294 786.5,-300 786.5,-300 786.5,-312 786.5,-312 786.5,-318 780.5,-324 774.5,-324"/>
<text text-anchor="middle" x="701" y="-303.5" font-family="sans" font-size="10.00">preprocess_treatmentResponse</text>
</g>
<!-- 2&#45;&gt;20 -->
<g id="edge32" class="edge">
<title>2&#45;&gt;20</title>
<path fill="none" stroke="grey" stroke-width="2" d="M1050.77,-368.25C982.84,-356.36 874.93,-337.46 796.92,-323.8"/>
<polygon fill="grey" stroke="grey" stroke-width="2" points="797.05,-320.27 786.6,-321.99 795.85,-327.16 797.05,-320.27"/>
</g>
<!-- 23 -->
<g id="node24" class="node">
<title>23</title>
<path fill="none" stroke="#56d8c1" stroke-width="2" d="M1023,-108C1023,-108 937,-108 937,-108 931,-108 925,-102 925,-96 925,-96 925,-84 925,-84 925,-78 931,-72 937,-72 937,-72 1023,-72 1023,-72 1029,-72 1035,-78 1035,-84 1035,-84 1035,-96 1035,-96 1035,-102 1029,-108 1023,-108"/>
<text text-anchor="middle" x="980" y="-87.5" font-family="sans" font-size="10.00">build_PharmacoSet</text>
</g>
<!-- 2&#45;&gt;23 -->
<g id="edge34" class="edge">
<title>2&#45;&gt;23</title>
<path fill="none" stroke="grey" stroke-width="2" d="M1050.97,-374.79C917.52,-364.65 620.7,-340.39 606,-324 563.62,-276.75 552.55,-229.53 658,-144 700.76,-109.32 844.26,-118.4 914.69,-107.86"/>
<polygon fill="grey" stroke="grey" stroke-width="2" points="915.69,-111.24 924.94,-106.08 914.49,-104.35 915.69,-111.24"/>
</g>
<!-- 25 -->
<g id="node26" class="node">
<title>25</title>
<path fill="none" stroke="#5682d8" stroke-width="2" d="M540.5,-324C540.5,-324 393.5,-324 393.5,-324 387.5,-324 381.5,-318 381.5,-312 381.5,-312 381.5,-300 381.5,-300 381.5,-294 387.5,-288 393.5,-288 393.5,-288 540.5,-288 540.5,-288 546.5,-288 552.5,-294 552.5,-300 552.5,-300 552.5,-312 552.5,-312 552.5,-318 546.5,-324 540.5,-324"/>
<text text-anchor="middle" x="467" y="-303.5" font-family="sans" font-size="10.00">preprocess_treatmentResponse</text>
</g>
<!-- 2&#45;&gt;25 -->
<g id="edge43" class="edge">
<title>2&#45;&gt;25</title>
<path fill="none" stroke="grey" stroke-width="2" d="M1050.62,-374.1C948.95,-365.31 745.09,-346.59 573,-324 569.57,-323.55 566.08,-323.08 562.56,-322.58"/>
<polygon fill="grey" stroke="grey" stroke-width="2" points="562.96,-319.1 552.56,-321.15 561.96,-326.03 562.96,-319.1"/>
</g>
<!-- 28 -->
<g id="node29" class="node">
<title>28</title>
<path fill="none" stroke="#56d8c1" stroke-width="2" d="M1279,-108C1279,-108 1193,-108 1193,-108 1187,-108 1181,-102 1181,-96 1181,-96 1181,-84 1181,-84 1181,-78 1187,-72 1193,-72 1193,-72 1279,-72 1279,-72 1285,-72 1291,-78 1291,-84 1291,-84 1291,-96 1291,-96 1291,-102 1285,-108 1279,-108"/>
<text text-anchor="middle" x="1236" y="-87.5" font-family="sans" font-size="10.00">build_PharmacoSet</text>
</g>
<!-- 2&#45;&gt;28 -->
<g id="edge45" class="edge">
<title>2&#45;&gt;28</title>
<path fill="none" stroke="grey" stroke-width="2" d="M1179.16,-376.33C1298.63,-369.77 1545.45,-352.84 1571,-324 1639.3,-246.89 1518.12,-188.04 1425,-144 1419.14,-141.23 1353.45,-123.02 1301.14,-108.71"/>
<polygon fill="grey" stroke="grey" stroke-width="2" points="1301.78,-105.26 1291.21,-106 1299.93,-112.01 1301.78,-105.26"/>
</g>
<!-- 30 -->
<g id="node31" class="node">
<title>30</title>
<path fill="none" stroke="#5682d8" stroke-width="2" d="M1798.5,-324C1798.5,-324 1651.5,-324 1651.5,-324 1645.5,-324 1639.5,-318 1639.5,-312 1639.5,-312 1639.5,-300 1639.5,-300 1639.5,-294 1645.5,-288 1651.5,-288 1651.5,-288 1798.5,-288 1798.5,-288 1804.5,-288 1810.5,-294 1810.5,-300 1810.5,-300 1810.5,-312 1810.5,-312 1810.5,-318 1804.5,-324 1798.5,-324"/>
<text text-anchor="middle" x="1725" y="-303.5" font-family="sans" font-size="10.00">preprocess_treatmentResponse</text>
</g>
<!-- 2&#45;&gt;30 -->
<g id="edge54" class="edge">
<title>2&#45;&gt;30</title>
<path fill="none" stroke="grey" stroke-width="2" d="M1179.16,-373.76C1275.98,-364.83 1465.11,-346.27 1625,-324 1626.47,-323.8 1627.95,-323.59 1629.45,-323.37"/>
<polygon fill="grey" stroke="grey" stroke-width="2" points="1630.03,-326.82 1639.41,-321.9 1629,-319.9 1630.03,-326.82"/>
</g>
<!-- 33 -->
<g id="node34" class="node">
<title>33</title>
<path fill="none" stroke="#56d8c1" stroke-width="2" d="M1407,-108C1407,-108 1321,-108 1321,-108 1315,-108 1309,-102 1309,-96 1309,-96 1309,-84 1309,-84 1309,-78 1315,-72 1321,-72 1321,-72 1407,-72 1407,-72 1413,-72 1419,-78 1419,-84 1419,-84 1419,-96 1419,-96 1419,-102 1413,-108 1407,-108"/>
<text text-anchor="middle" x="1364" y="-87.5" font-family="sans" font-size="10.00">build_PharmacoSet</text>
</g>
<!-- 2&#45;&gt;33 -->
<g id="edge56" class="edge">
<title>2&#45;&gt;33</title>
<path fill="none" stroke="grey" stroke-width="2" d="M1179.3,-376.78C1349.18,-369.3 1798.4,-347.37 1820,-324 1876.52,-262.85 1840.04,-185.77 1768,-144 1704.77,-107.34 1517.72,-120.66 1429.09,-107.85"/>
<polygon fill="grey" stroke="grey" stroke-width="2" points="1429.47,-104.36 1419.04,-106.2 1428.34,-111.27 1429.47,-104.36"/>
</g>
<!-- 35 -->
<g id="node36" class="node">
<title>35</title>
<path fill="none" stroke="#5682d8" stroke-width="2" d="M2026.5,-324C2026.5,-324 1879.5,-324 1879.5,-324 1873.5,-324 1867.5,-318 1867.5,-312 1867.5,-312 1867.5,-300 1867.5,-300 1867.5,-294 1873.5,-288 1879.5,-288 1879.5,-288 2026.5,-288 2026.5,-288 2032.5,-288 2038.5,-294 2038.5,-300 2038.5,-300 2038.5,-312 2038.5,-312 2038.5,-318 2032.5,-324 2026.5,-324"/>
<text text-anchor="middle" x="1953" y="-303.5" font-family="sans" font-size="10.00">preprocess_treatmentResponse</text>
</g>
<!-- 2&#45;&gt;35 -->
<g id="edge65" class="edge">
<title>2&#45;&gt;35</title>
<path fill="none" stroke="grey" stroke-width="2" d="M1179.36,-376.68C1307.81,-370.62 1604.94,-354.35 1853,-324 1854.47,-323.82 1855.96,-323.63 1857.46,-323.44"/>
<polygon fill="grey" stroke="grey" stroke-width="2" points="1857.99,-326.9 1867.43,-322.09 1857.05,-319.96 1857.99,-326.9"/>
</g>
<!-- 38 -->
<g id="node39" class="node">
<title>38</title>
<path fill="none" stroke="#56d8c1" stroke-width="2" d="M895,-108C895,-108 809,-108 809,-108 803,-108 797,-102 797,-96 797,-96 797,-84 797,-84 797,-78 803,-72 809,-72 809,-72 895,-72 895,-72 901,-72 907,-78 907,-84 907,-84 907,-96 907,-96 907,-102 901,-108 895,-108"/>
<text text-anchor="middle" x="852" y="-87.5" font-family="sans" font-size="10.00">build_PharmacoSet</text>
</g>
<!-- 2&#45;&gt;38 -->
<g id="edge67" class="edge">
<title>2&#45;&gt;38</title>
<path fill="none" stroke="grey" stroke-width="2" d="M1050.72,-375.65C872.68,-364.87 385.27,-334.47 372,-324 309.16,-274.41 306.02,-197.01 366,-144 396.93,-116.67 661.48,-100.27 786.75,-93.97"/>
<polygon fill="grey" stroke="grey" stroke-width="2" points="787.16,-97.46 796.97,-93.46 786.81,-90.46 787.16,-97.46"/>
</g>
<!-- 40 -->
<g id="node41" class="node">
<title>40</title>
<path fill="none" stroke="#5682d8" stroke-width="2" d="M261.5,-324C261.5,-324 114.5,-324 114.5,-324 108.5,-324 102.5,-318 102.5,-312 102.5,-312 102.5,-300 102.5,-300 102.5,-294 108.5,-288 114.5,-288 114.5,-288 261.5,-288 261.5,-288 267.5,-288 273.5,-294 273.5,-300 273.5,-300 273.5,-312 273.5,-312 273.5,-318 267.5,-324 261.5,-324"/>
<text text-anchor="middle" x="188" y="-303.5" font-family="sans" font-size="10.00">preprocess_treatmentResponse</text>
</g>
<!-- 2&#45;&gt;40 -->
<g id="edge76" class="edge">
<title>2&#45;&gt;40</title>
<path fill="none" stroke="grey" stroke-width="2" d="M1050.79,-375.57C869.65,-364.42 362.89,-332.86 288,-324 286.52,-323.83 285.04,-323.64 283.54,-323.46"/>
<polygon fill="grey" stroke="grey" stroke-width="2" points="283.94,-319.98 273.56,-322.13 283.02,-326.92 283.94,-319.98"/>
</g>
<!-- 43 -->
<g id="node44" class="node">
<title>43</title>
<path fill="none" stroke="#56d8c1" stroke-width="2" d="M1535,-108C1535,-108 1449,-108 1449,-108 1443,-108 1437,-102 1437,-96 1437,-96 1437,-84 1437,-84 1437,-78 1443,-72 1449,-72 1449,-72 1535,-72 1535,-72 1541,-72 1547,-78 1547,-84 1547,-84 1547,-96 1547,-96 1547,-102 1541,-108 1535,-108"/>
<text text-anchor="middle" x="1492" y="-87.5" font-family="sans" font-size="10.00">build_PharmacoSet</text>
</g>
<!-- 2&#45;&gt;43 -->
<g id="edge78" class="edge">
<title>2&#45;&gt;43</title>
<path fill="none" stroke="grey" stroke-width="2" d="M1179.3,-377.02C1383.94,-368.97 2008.97,-342.94 2048,-324 2086.52,-305.31 2096.78,-292.02 2112,-252 2130.93,-202.2 2106.25,-170.43 2060,-144 1975.86,-95.92 1688.43,-90.38 1557.69,-90.43"/>
<polygon fill="grey" stroke="grey" stroke-width="2" points="1557.42,-86.93 1547.42,-90.45 1557.43,-93.93 1557.42,-86.93"/>
</g>
<!-- 45 -->
<g id="node46" class="node">
<title>45</title>
<path fill="none" stroke="#5682d8" stroke-width="2" d="M2318.5,-324C2318.5,-324 2171.5,-324 2171.5,-324 2165.5,-324 2159.5,-318 2159.5,-312 2159.5,-312 2159.5,-300 2159.5,-300 2159.5,-294 2165.5,-288 2171.5,-288 2171.5,-288 2318.5,-288 2318.5,-288 2324.5,-288 2330.5,-294 2330.5,-300 2330.5,-300 2330.5,-312 2330.5,-312 2330.5,-318 2324.5,-324 2318.5,-324"/>
<text text-anchor="middle" x="2245" y="-303.5" font-family="sans" font-size="10.00">preprocess_treatmentResponse</text>
</g>
<!-- 2&#45;&gt;45 -->
<g id="edge87" class="edge">
<title>2&#45;&gt;45</title>
<path fill="none" stroke="grey" stroke-width="2" d="M1179.1,-377.01C1373.79,-369.3 1956.35,-345.05 2145,-324 2146.48,-323.84 2147.96,-323.66 2149.46,-323.48"/>
<polygon fill="grey" stroke="grey" stroke-width="2" points="2149.97,-326.95 2159.45,-322.21 2149.08,-320 2149.97,-326.95"/>
</g>
<!-- 3 -->
<g id="node4" class="node">
<title>3</title>
<path fill="none" stroke="#56d0d8" stroke-width="2" stroke-dasharray="5,2" d="M903.5,-486.5C903.5,-486.5 780.5,-486.5 780.5,-486.5 774.5,-486.5 768.5,-480.5 768.5,-474.5 768.5,-474.5 768.5,-462.5 768.5,-462.5 768.5,-456.5 774.5,-450.5 780.5,-450.5 780.5,-450.5 903.5,-450.5 903.5,-450.5 909.5,-450.5 915.5,-456.5 915.5,-462.5 915.5,-462.5 915.5,-474.5 915.5,-474.5 915.5,-480.5 909.5,-486.5 903.5,-486.5"/>
<text text-anchor="middle" x="842" y="-466" font-family="sans" font-size="10.00">downloadSampleMetadata</text>
</g>
<!-- 3&#45;&gt;2 -->
<g id="edge13" class="edge">
<title>3&#45;&gt;2</title>
<path fill="none" stroke="grey" stroke-width="2" d="M886.6,-450.48C898.98,-445.93 912.46,-441.13 925,-437 963.64,-424.27 1007.16,-411.45 1042.8,-401.34"/>
<polygon fill="grey" stroke="grey" stroke-width="2" points="1043.96,-404.65 1052.63,-398.56 1042.06,-397.91 1043.96,-404.65"/>
</g>
<!-- 4 -->
<g id="node5" class="node">
<title>4</title>
<path fill="none" stroke="#bed856" stroke-width="2" stroke-dasharray="5,2" d="M1082,-486.5C1082,-486.5 946,-486.5 946,-486.5 940,-486.5 934,-480.5 934,-474.5 934,-474.5 934,-462.5 934,-462.5 934,-456.5 940,-450.5 946,-450.5 946,-450.5 1082,-450.5 1082,-450.5 1088,-450.5 1094,-456.5 1094,-462.5 1094,-462.5 1094,-474.5 1094,-474.5 1094,-480.5 1088,-486.5 1082,-486.5"/>
<text text-anchor="middle" x="1014" y="-466" font-family="sans" font-size="10.00">downloadTreatmentMetadata</text>
</g>
<!-- 4&#45;&gt;2 -->
<g id="edge14" class="edge">
<title>4&#45;&gt;2</title>
<path fill="none" stroke="grey" stroke-width="2" d="M1034.44,-450.1C1049.6,-437.19 1070.44,-419.45 1087.12,-405.24"/>
<polygon fill="grey" stroke="grey" stroke-width="2" points="1089.59,-407.73 1094.94,-398.58 1085.05,-402.4 1089.59,-407.73"/>
</g>
<!-- 5 -->
<g id="node6" class="node">
<title>5</title>
<path fill="none" stroke="#88d856" stroke-width="2" stroke-dasharray="5,2" d="M1306,-486.5C1306,-486.5 1124,-486.5 1124,-486.5 1118,-486.5 1112,-480.5 1112,-474.5 1112,-474.5 1112,-462.5 1112,-462.5 1112,-456.5 1118,-450.5 1124,-450.5 1124,-450.5 1306,-450.5 1306,-450.5 1312,-450.5 1318,-456.5 1318,-462.5 1318,-462.5 1318,-474.5 1318,-474.5 1318,-480.5 1312,-486.5 1306,-486.5"/>
<text text-anchor="middle" x="1215" y="-466" font-family="sans" font-size="10.00">downloadCellModelPassportsMetadata</text>
</g>
<!-- 5&#45;&gt;2 -->
<g id="edge15" class="edge">
<title>5&#45;&gt;2</title>
<path fill="none" stroke="grey" stroke-width="2" d="M1194.76,-450.1C1179.76,-437.19 1159.12,-419.45 1142.6,-405.24"/>
<polygon fill="grey" stroke="grey" stroke-width="2" points="1144.73,-402.45 1134.87,-398.58 1140.16,-407.76 1144.73,-402.45"/>
</g>
<!-- 6 -->
<g id="node7" class="node">
<title>6</title>
<path fill="none" stroke="#d8b456" stroke-width="2" stroke-dasharray="5,2" d="M1504,-500C1504,-500 1348,-500 1348,-500 1342,-500 1336,-494 1336,-488 1336,-488 1336,-449 1336,-449 1336,-443 1342,-437 1348,-437 1348,-437 1504,-437 1504,-437 1510,-437 1516,-443 1516,-449 1516,-449 1516,-488 1516,-488 1516,-494 1510,-500 1504,-500"/>
<text text-anchor="middle" x="1426" y="-488" font-family="sans" font-size="10.00">gencode_getGENCODEannotation</text>
<text text-anchor="middle" x="1426" y="-477" font-family="sans" font-size="10.00">gencode_release: 44</text>
<text text-anchor="middle" x="1426" y="-466" font-family="sans" font-size="10.00">refDir: metadata/references</text>
<text text-anchor="middle" x="1426" y="-455" font-family="sans" font-size="10.00">ref_build: GRCh38</text>
<text text-anchor="middle" x="1426" y="-444" font-family="sans" font-size="10.00">species: human</text>
</g>
<!-- 6&#45;&gt;2 -->
<g id="edge16" class="edge">
<title>6&#45;&gt;2</title>
<path fill="none" stroke="grey" stroke-width="2" d="M1335.94,-439.58C1332.93,-438.7 1329.94,-437.84 1327,-437 1281.36,-424 1229.88,-410.5 1189.07,-400.06"/>
<polygon fill="grey" stroke="grey" stroke-width="2" points="1189.76,-396.63 1179.21,-397.55 1188.03,-403.41 1189.76,-396.63"/>
</g>
<!-- 7 -->
<g id="node8" class="node">
<title>7</title>
<path fill="none" stroke="#56d892" stroke-width="2" d="M1140.5,-180C1140.5,-180 1077.5,-180 1077.5,-180 1071.5,-180 1065.5,-174 1065.5,-168 1065.5,-168 1065.5,-156 1065.5,-156 1065.5,-150 1071.5,-144 1077.5,-144 1077.5,-144 1140.5,-144 1140.5,-144 1146.5,-144 1152.5,-150 1152.5,-156 1152.5,-156 1152.5,-168 1152.5,-168 1152.5,-174 1146.5,-180 1140.5,-180"/>
<text text-anchor="middle" x="1109" y="-159.5" font-family="sans" font-size="10.00">make_CNV_SE</text>
</g>
<!-- 7&#45;&gt;1 -->
<g id="edge8" class="edge">
<title>7&#45;&gt;1</title>
<path fill="none" stroke="grey" stroke-width="2" d="M1108.75,-143.7C1108.64,-135.98 1108.51,-126.71 1108.39,-118.11"/>
<polygon fill="grey" stroke="grey" stroke-width="2" points="1111.89,-118.05 1108.24,-108.1 1104.89,-118.15 1111.89,-118.05"/>
</g>
<!-- 7&#45;&gt;23 -->
<g id="edge35" class="edge">
<title>7&#45;&gt;23</title>
<path fill="none" stroke="grey" stroke-width="2" d="M1077.44,-143.88C1060.34,-134.6 1039.02,-123.03 1020.68,-113.08"/>
<polygon fill="grey" stroke="grey" stroke-width="2" points="1022.14,-109.88 1011.68,-108.19 1018.8,-116.04 1022.14,-109.88"/>
</g>
<!-- 7&#45;&gt;28 -->
<g id="edge46" class="edge">
<title>7&#45;&gt;28</title>
<path fill="none" stroke="grey" stroke-width="2" d="M1140.07,-143.88C1156.83,-134.64 1177.71,-123.13 1195.7,-113.21"/>
<polygon fill="grey" stroke="grey" stroke-width="2" points="1197.74,-116.08 1204.81,-108.19 1194.37,-109.95 1197.74,-116.08"/>
</g>
<!-- 7&#45;&gt;33 -->
<g id="edge57" class="edge">
<title>7&#45;&gt;33</title>
<path fill="none" stroke="grey" stroke-width="2" d="M1152.56,-147.09C1156.09,-146.02 1159.6,-144.98 1163,-144 1220.53,-127.39 1237.5,-124.36 1299.01,-108.25"/>
<polygon fill="grey" stroke="grey" stroke-width="2" points="1300.06,-111.59 1308.84,-105.66 1298.28,-104.82 1300.06,-111.59"/>
</g>
<!-- 7&#45;&gt;38 -->
<g id="edge68" class="edge">
<title>7&#45;&gt;38</title>
<path fill="none" stroke="grey" stroke-width="2" d="M1065.39,-146.79C1062.22,-145.82 1059.06,-144.88 1056,-144 997.29,-127.05 979.84,-124.47 917.17,-108.28"/>
<polygon fill="grey" stroke="grey" stroke-width="2" points="917.71,-104.81 907.15,-105.68 915.95,-111.58 917.71,-104.81"/>
</g>
<!-- 7&#45;&gt;43 -->
<g id="edge79" class="edge">
<title>7&#45;&gt;43</title>
<path fill="none" stroke="grey" stroke-width="2" d="M1152.74,-146.54C1156.19,-145.61 1159.64,-144.75 1163,-144 1275.82,-118.77 1309.61,-130.61 1426.85,-108.07"/>
<polygon fill="grey" stroke="grey" stroke-width="2" points="1427.81,-111.45 1436.94,-106.09 1426.46,-104.59 1427.81,-111.45"/>
</g>
<!-- 8&#45;&gt;7 -->
<g id="edge17" class="edge">
<title>8&#45;&gt;7</title>
<path fill="none" stroke="grey" stroke-width="2" d="M1105.99,-215.7C1106.43,-207.98 1106.96,-198.71 1107.45,-190.11"/>
<polygon fill="grey" stroke="grey" stroke-width="2" points="1110.95,-190.29 1108.02,-180.1 1103.96,-189.89 1110.95,-190.29"/>
</g>
<!-- 9 -->
<g id="node10" class="node">
<title>9</title>
<path fill="none" stroke="#68d856" stroke-width="2" stroke-dasharray="5,2" d="M1173,-324C1173,-324 1057,-324 1057,-324 1051,-324 1045,-318 1045,-312 1045,-312 1045,-300 1045,-300 1045,-294 1051,-288 1057,-288 1057,-288 1173,-288 1173,-288 1179,-288 1185,-294 1185,-300 1185,-300 1185,-312 1185,-312 1185,-318 1179,-324 1173,-324"/>
<text text-anchor="middle" x="1115" y="-303.5" font-family="sans" font-size="10.00">download_CNV_WESData</text>
</g>
<!-- 9&#45;&gt;8 -->
<g id="edge18" class="edge">
<title>9&#45;&gt;8</title>
<path fill="none" stroke="grey" stroke-width="2" d="M1112.53,-287.7C1111.43,-279.98 1110.1,-270.71 1108.87,-262.11"/>
<polygon fill="grey" stroke="grey" stroke-width="2" points="1112.32,-261.51 1107.44,-252.1 1105.39,-262.5 1112.32,-261.51"/>
</g>
<!-- 10 -->
<g id="node11" class="node">
<title>10</title>
<path fill="none" stroke="#78d856" stroke-width="2" stroke-dasharray="5,2" d="M1403.5,-180C1403.5,-180 1320.5,-180 1320.5,-180 1314.5,-180 1308.5,-174 1308.5,-168 1308.5,-168 1308.5,-156 1308.5,-156 1308.5,-150 1314.5,-144 1320.5,-144 1320.5,-144 1403.5,-144 1403.5,-144 1409.5,-144 1415.5,-150 1415.5,-156 1415.5,-156 1415.5,-168 1415.5,-168 1415.5,-174 1409.5,-180 1403.5,-180"/>
<text text-anchor="middle" x="1362" y="-159.5" font-family="sans" font-size="10.00">make_RNASEQ_SE</text>
</g>
<!-- 10&#45;&gt;1 -->
<g id="edge9" class="edge">
<title>10&#45;&gt;1</title>
<path fill="none" stroke="grey" stroke-width="2" d="M1308.44,-146.24C1268.96,-135.36 1215.05,-120.5 1173.09,-108.94"/>
<polygon fill="grey" stroke="grey" stroke-width="2" points="1173.81,-105.51 1163.24,-106.22 1171.95,-112.25 1173.81,-105.51"/>
</g>
<!-- 10&#45;&gt;23 -->
<g id="edge36" class="edge">
<title>10&#45;&gt;23</title>
<path fill="none" stroke="grey" stroke-width="2" d="M1308.49,-146.08C1305.29,-145.34 1302.11,-144.64 1299,-144 1190.04,-121.7 1157.98,-130.21 1045.14,-108.09"/>
<polygon fill="grey" stroke="grey" stroke-width="2" points="1045.55,-104.6 1035.06,-106.07 1044.18,-111.46 1045.55,-104.6"/>
</g>
<!-- 10&#45;&gt;28 -->
<g id="edge47" class="edge">
<title>10&#45;&gt;28</title>
<path fill="none" stroke="grey" stroke-width="2" d="M1331.18,-143.88C1314.55,-134.64 1293.84,-123.13 1275.98,-113.21"/>
<polygon fill="grey" stroke="grey" stroke-width="2" points="1277.38,-109.99 1266.94,-108.19 1273.98,-116.11 1277.38,-109.99"/>
</g>
<!-- 10&#45;&gt;33 -->
<g id="edge58" class="edge">
<title>10&#45;&gt;33</title>
<path fill="none" stroke="grey" stroke-width="2" d="M1362.49,-143.7C1362.71,-135.98 1362.98,-126.71 1363.23,-118.11"/>
<polygon fill="grey" stroke="grey" stroke-width="2" points="1366.72,-118.2 1363.51,-108.1 1359.73,-118 1366.72,-118.2"/>
</g>
<!-- 10&#45;&gt;38 -->
<g id="edge69" class="edge">
<title>10&#45;&gt;38</title>
<path fill="none" stroke="grey" stroke-width="2" d="M1308.18,-145.83C1305.09,-145.16 1302.01,-144.54 1299,-144 1133.95,-114.2 1086.12,-137.14 917.02,-107.99"/>
<polygon fill="grey" stroke="grey" stroke-width="2" points="917.48,-104.52 907.03,-106.24 916.27,-111.42 917.48,-104.52"/>
</g>
<!-- 10&#45;&gt;43 -->
<g id="edge80" class="edge">
<title>10&#45;&gt;43</title>
<path fill="none" stroke="grey" stroke-width="2" d="M1393.8,-143.88C1411.11,-134.55 1432.72,-122.92 1451.26,-112.94"/>
<polygon fill="grey" stroke="grey" stroke-width="2" points="1452.93,-116.01 1460.08,-108.19 1449.61,-109.85 1452.93,-116.01"/>
</g>
<!-- 11&#45;&gt;10 -->
<g id="edge20" class="edge">
<title>11&#45;&gt;10</title>
<path fill="none" stroke="grey" stroke-width="2" d="M1436.78,-215.88C1424.08,-206.89 1408.34,-195.76 1394.58,-186.03"/>
<polygon fill="grey" stroke="grey" stroke-width="2" points="1396.5,-183.11 1386.31,-180.19 1392.46,-188.82 1396.5,-183.11"/>
</g>
<!-- 12 -->
<g id="node13" class="node">
<title>12</title>
<path fill="none" stroke="#56d882" stroke-width="2" stroke-dasharray="5,2" d="M1533,-324C1533,-324 1447,-324 1447,-324 1441,-324 1435,-318 1435,-312 1435,-312 1435,-300 1435,-300 1435,-294 1441,-288 1447,-288 1447,-288 1533,-288 1533,-288 1539,-288 1545,-294 1545,-300 1545,-300 1545,-312 1545,-312 1545,-318 1539,-324 1533,-324"/>
<text text-anchor="middle" x="1490" y="-303.5" font-family="sans" font-size="10.00">download_RNASEQ</text>
</g>
<!-- 12&#45;&gt;11 -->
<g id="edge21" class="edge">
<title>12&#45;&gt;11</title>
<path fill="none" stroke="grey" stroke-width="2" d="M1482.83,-287.7C1479.57,-279.81 1475.63,-270.3 1472,-261.55"/>
<polygon fill="grey" stroke="grey" stroke-width="2" points="1475.15,-260 1468.09,-252.1 1468.68,-262.68 1475.15,-260"/>
</g>
<!-- 13 -->
<g id="node14" class="node">
<title>13</title>
<path fill="none" stroke="#5663d8" stroke-width="2" stroke-dasharray="5,2" d="M1035,-180C1035,-180 955,-180 955,-180 949,-180 943,-174 943,-168 943,-168 943,-156 943,-156 943,-150 949,-144 955,-144 955,-144 1035,-144 1035,-144 1041,-144 1047,-150 1047,-156 1047,-156 1047,-168 1047,-168 1047,-174 1041,-180 1035,-180"/>
<text text-anchor="middle" x="995" y="-159.5" font-family="sans" font-size="10.00">make_FUSION_SE</text>
</g>
<!-- 13&#45;&gt;1 -->
<g id="edge10" class="edge">
<title>13&#45;&gt;1</title>
<path fill="none" stroke="grey" stroke-width="2" d="M1022.64,-143.88C1037.42,-134.72 1055.79,-123.34 1071.7,-113.48"/>
<polygon fill="grey" stroke="grey" stroke-width="2" points="1073.59,-116.43 1080.25,-108.19 1069.91,-110.48 1073.59,-116.43"/>
</g>
<!-- 13&#45;&gt;23 -->
<g id="edge37" class="edge">
<title>13&#45;&gt;23</title>
<path fill="none" stroke="grey" stroke-width="2" d="M991.29,-143.7C989.64,-135.98 987.65,-126.71 985.81,-118.11"/>
<polygon fill="grey" stroke="grey" stroke-width="2" points="989.18,-117.15 983.67,-108.1 982.34,-118.62 989.18,-117.15"/>
</g>
<!-- 13&#45;&gt;28 -->
<g id="edge48" class="edge">
<title>13&#45;&gt;28</title>
<path fill="none" stroke="grey" stroke-width="2" d="M1047.29,-145.81C1083.67,-135.25 1132.4,-121.09 1171.23,-109.81"/>
<polygon fill="grey" stroke="grey" stroke-width="2" points="1172.25,-113.16 1180.88,-107.01 1170.3,-106.44 1172.25,-113.16"/>
</g>
<!-- 13&#45;&gt;33 -->
<g id="edge59" class="edge">
<title>13&#45;&gt;33</title>
<path fill="none" stroke="grey" stroke-width="2" d="M1047.32,-146.18C1050.59,-145.4 1053.83,-144.67 1057,-144 1160.71,-122.18 1191.29,-129.58 1298.97,-108.08"/>
<polygon fill="grey" stroke="grey" stroke-width="2" points="1299.83,-111.47 1308.94,-106.05 1298.44,-104.61 1299.83,-111.47"/>
</g>
<!-- 13&#45;&gt;38 -->
<g id="edge70" class="edge">
<title>13&#45;&gt;38</title>
<path fill="none" stroke="grey" stroke-width="2" d="M960.02,-143.88C940.8,-134.47 916.77,-122.71 896.26,-112.67"/>
<polygon fill="grey" stroke="grey" stroke-width="2" points="897.64,-109.44 887.12,-108.19 894.56,-115.73 897.64,-109.44"/>
</g>
<!-- 13&#45;&gt;43 -->
<g id="edge81" class="edge">
<title>13&#45;&gt;43</title>
<path fill="none" stroke="grey" stroke-width="2" d="M1047.28,-145.99C1050.56,-145.26 1053.82,-144.59 1057,-144 1216.74,-114.57 1263.16,-136.47 1427.03,-107.99"/>
<polygon fill="grey" stroke="grey" stroke-width="2" points="1427.74,-111.42 1436.97,-106.23 1426.51,-104.53 1427.74,-111.42"/>
</g>
<!-- 14&#45;&gt;13 -->
<g id="edge23" class="edge">
<title>14&#45;&gt;13</title>
<path fill="none" stroke="grey" stroke-width="2" d="M976.93,-215.7C979.61,-207.9 982.83,-198.51 985.8,-189.83"/>
<polygon fill="grey" stroke="grey" stroke-width="2" points="989.2,-190.7 989.14,-180.1 982.58,-188.43 989.2,-190.7"/>
</g>
<!-- 15 -->
<g id="node16" class="node">
<title>15</title>
<path fill="none" stroke="#5673d8" stroke-width="2" stroke-dasharray="5,2" d="M976.5,-324C976.5,-324 893.5,-324 893.5,-324 887.5,-324 881.5,-318 881.5,-312 881.5,-312 881.5,-300 881.5,-300 881.5,-294 887.5,-288 893.5,-288 893.5,-288 976.5,-288 976.5,-288 982.5,-288 988.5,-294 988.5,-300 988.5,-300 988.5,-312 988.5,-312 988.5,-318 982.5,-324 976.5,-324"/>
<text text-anchor="middle" x="935" y="-303.5" font-family="sans" font-size="10.00">download_FUSION</text>
</g>
<!-- 15&#45;&gt;14 -->
<g id="edge24" class="edge">
<title>15&#45;&gt;14</title>
<path fill="none" stroke="grey" stroke-width="2" d="M943.9,-287.7C948,-279.73 952.95,-270.1 957.49,-261.26"/>
<polygon fill="grey" stroke="grey" stroke-width="2" points="960.74,-262.6 962.2,-252.1 954.52,-259.4 960.74,-262.6"/>
</g>
<!-- 16 -->
<g id="node17" class="node">
<title>16</title>
<path fill="none" stroke="#56c1d8" stroke-width="2" stroke-dasharray="5,2" d="M1278,-180C1278,-180 1184,-180 1184,-180 1178,-180 1172,-174 1172,-168 1172,-168 1172,-156 1172,-156 1172,-150 1178,-144 1184,-144 1184,-144 1278,-144 1278,-144 1284,-144 1290,-150 1290,-156 1290,-156 1290,-168 1290,-168 1290,-174 1284,-180 1278,-180"/>
<text text-anchor="middle" x="1231" y="-159.5" font-family="sans" font-size="10.00">make_MUTATION_SE</text>
</g>
<!-- 16&#45;&gt;1 -->
<g id="edge11" class="edge">
<title>16&#45;&gt;1</title>
<path fill="none" stroke="grey" stroke-width="2" d="M1200.91,-143.88C1184.68,-134.64 1164.46,-123.13 1147.03,-113.21"/>
<polygon fill="grey" stroke="grey" stroke-width="2" points="1148.63,-110.09 1138.2,-108.19 1145.16,-116.18 1148.63,-110.09"/>
</g>
<!-- 16&#45;&gt;23 -->
<g id="edge38" class="edge">
<title>16&#45;&gt;23</title>
<path fill="none" stroke="grey" stroke-width="2" d="M1171.83,-144.5C1133.76,-133.88 1084.24,-120.07 1045.06,-109.14"/>
<polygon fill="grey" stroke="grey" stroke-width="2" points="1045.9,-105.75 1035.33,-106.43 1044.02,-112.49 1045.9,-105.75"/>
</g>
<!-- 16&#45;&gt;28 -->
<g id="edge49" class="edge">
<title>16&#45;&gt;28</title>
<path fill="none" stroke="grey" stroke-width="2" d="M1232.24,-143.7C1232.79,-135.98 1233.45,-126.71 1234.06,-118.11"/>
<polygon fill="grey" stroke="grey" stroke-width="2" points="1237.56,-118.33 1234.78,-108.1 1230.57,-117.83 1237.56,-118.33"/>
</g>
<!-- 16&#45;&gt;33 -->
<g id="edge60" class="edge">
<title>16&#45;&gt;33</title>
<path fill="none" stroke="grey" stroke-width="2" d="M1263.54,-143.88C1281.25,-134.55 1303.35,-122.92 1322.32,-112.94"/>
<polygon fill="grey" stroke="grey" stroke-width="2" points="1324.12,-115.94 1331.34,-108.19 1320.86,-109.75 1324.12,-115.94"/>
</g>
<!-- 16&#45;&gt;38 -->
<g id="edge71" class="edge">
<title>16&#45;&gt;38</title>
<path fill="none" stroke="grey" stroke-width="2" d="M1171.99,-146.06C1168.62,-145.33 1165.27,-144.64 1162,-144 1056.74,-123.38 1026.03,-129.81 917.14,-108.1"/>
<polygon fill="grey" stroke="grey" stroke-width="2" points="917.56,-104.61 907.06,-106.05 916.17,-111.47 917.56,-104.61"/>
</g>
<!-- 16&#45;&gt;43 -->
<g id="edge82" class="edge">
<title>16&#45;&gt;43</title>
<path fill="none" stroke="grey" stroke-width="2" d="M1290.22,-145.12C1330.88,-134.21 1384.86,-119.74 1426.75,-108.5"/>
<polygon fill="grey" stroke="grey" stroke-width="2" points="1427.83,-111.83 1436.58,-105.86 1426.01,-105.07 1427.83,-111.83"/>
</g>
<!-- 17&#45;&gt;16 -->
<g id="edge26" class="edge">
<title>17&#45;&gt;16</title>
<path fill="none" stroke="grey" stroke-width="2" d="M1234.01,-215.7C1233.57,-207.98 1233.04,-198.71 1232.55,-190.11"/>
<polygon fill="grey" stroke="grey" stroke-width="2" points="1236.04,-189.89 1231.98,-180.1 1229.05,-190.29 1236.04,-189.89"/>
</g>
<!-- 18 -->
<g id="node19" class="node">
<title>18</title>
<path fill="none" stroke="#d86656" stroke-width="2" stroke-dasharray="5,2" d="M1405,-324C1405,-324 1253,-324 1253,-324 1247,-324 1241,-318 1241,-312 1241,-312 1241,-300 1241,-300 1241,-294 1247,-288 1253,-288 1253,-288 1405,-288 1405,-288 1411,-288 1417,-294 1417,-300 1417,-300 1417,-312 1417,-312 1417,-318 1411,-324 1405,-324"/>
<text text-anchor="middle" x="1329" y="-303.5" font-family="sans" font-size="10.00">download_MUTATION_processed</text>
</g>
<!-- 18&#45;&gt;17 -->
<g id="edge27" class="edge">
<title>18&#45;&gt;17</title>
<path fill="none" stroke="grey" stroke-width="2" d="M1305.76,-287.7C1293.81,-278.8 1279.08,-267.82 1266.15,-258.2"/>
<polygon fill="grey" stroke="grey" stroke-width="2" points="1268.08,-255.27 1257.97,-252.1 1263.9,-260.88 1268.08,-255.27"/>
</g>
<!-- 19 -->
<g id="node20" class="node">
<title>19</title>
<path fill="none" stroke="#5692d8" stroke-width="2" d="M839,-180C839,-180 679,-180 679,-180 673,-180 667,-174 667,-168 667,-168 667,-156 667,-156 667,-150 673,-144 679,-144 679,-144 839,-144 839,-144 845,-144 851,-150 851,-156 851,-156 851,-168 851,-168 851,-174 845,-180 839,-180"/>
<text text-anchor="middle" x="759" y="-159.5" font-family="sans" font-size="10.00">fit_treatmentResponseExperiment</text>
</g>
<!-- 19&#45;&gt;1 -->
<g id="edge12" class="edge">
<title>19&#45;&gt;1</title>
<path fill="none" stroke="grey" stroke-width="2" d="M851.13,-145.69C904.61,-136.37 973.42,-123.65 1043.08,-108.13"/>
<polygon fill="grey" stroke="grey" stroke-width="2" points="1043.92,-111.52 1052.91,-105.92 1042.38,-104.69 1043.92,-111.52"/>
</g>
<!-- 20&#45;&gt;19 -->
<g id="edge29" class="edge">
<title>20&#45;&gt;19</title>
<path fill="none" stroke="grey" stroke-width="2" d="M678.4,-287.96C667.94,-278.63 656.6,-266.11 651,-252 645.09,-237.13 642.54,-229.58 651,-216 659.51,-202.35 672.67,-192.11 686.92,-184.48"/>
<polygon fill="grey" stroke="grey" stroke-width="2" points="688.48,-187.61 695.9,-180.05 685.38,-181.33 688.48,-187.61"/>
</g>
<!-- 22 -->
<g id="node23" class="node">
<title>22</title>
<path fill="none" stroke="#9fd856" stroke-width="2" d="M846,-252C846,-252 672,-252 672,-252 666,-252 660,-246 660,-240 660,-240 660,-228 660,-228 660,-222 666,-216 672,-216 672,-216 846,-216 846,-216 852,-216 858,-222 858,-228 858,-228 858,-240 858,-240 858,-246 852,-252 846,-252"/>
<text text-anchor="middle" x="759" y="-231.5" font-family="sans" font-size="10.00">build_treatmentResponseExperiment</text>
</g>
<!-- 20&#45;&gt;22 -->
<g id="edge33" class="edge">
<title>20&#45;&gt;22</title>
<path fill="none" stroke="grey" stroke-width="2" d="M715.34,-287.7C722.29,-279.3 730.77,-269.07 738.4,-259.86"/>
<polygon fill="grey" stroke="grey" stroke-width="2" points="741.14,-262.04 744.83,-252.1 735.75,-257.57 741.14,-262.04"/>
</g>
<!-- 21 -->
<g id="node22" class="node">
<title>21</title>
<path fill="none" stroke="#d8a456" stroke-width="2" stroke-dasharray="5,2" d="M771.5,-401C771.5,-401 630.5,-401 630.5,-401 624.5,-401 618.5,-395 618.5,-389 618.5,-389 618.5,-372 618.5,-372 618.5,-366 624.5,-360 630.5,-360 630.5,-360 771.5,-360 771.5,-360 777.5,-360 783.5,-366 783.5,-372 783.5,-372 783.5,-389 783.5,-389 783.5,-395 777.5,-401 771.5,-401"/>
<text text-anchor="middle" x="701" y="-389" font-family="sans" font-size="10.00">download_treatmentResponse</text>
<text text-anchor="middle" x="701" y="-378" font-family="sans" font-size="10.00">dataset: GDSC1</text>
<text text-anchor="middle" x="701" y="-367" font-family="sans" font-size="10.00">release: 8.2</text>
</g>
<!-- 21&#45;&gt;20 -->
<g id="edge31" class="edge">
<title>21&#45;&gt;20</title>
<path fill="none" stroke="grey" stroke-width="2" d="M701,-359.69C701,-351.91 701,-342.84 701,-334.45"/>
<polygon fill="grey" stroke="grey" stroke-width="2" points="704.5,-334.32 701,-324.32 697.5,-334.32 704.5,-334.32"/>
</g>
<!-- 22&#45;&gt;19 -->
<g id="edge30" class="edge">
<title>22&#45;&gt;19</title>
<path fill="none" stroke="grey" stroke-width="2" d="M759,-215.7C759,-207.98 759,-198.71 759,-190.11"/>
<polygon fill="grey" stroke="grey" stroke-width="2" points="762.5,-190.1 759,-180.1 755.5,-190.1 762.5,-190.1"/>
</g>
<!-- 23&#45;&gt;0 -->
<g id="edge2" class="edge">
<title>23&#45;&gt;0</title>
<path fill="none" stroke="grey" stroke-width="2" d="M1026.97,-71.88C1053.68,-62.14 1087.32,-49.87 1115.47,-39.61"/>
<polygon fill="grey" stroke="grey" stroke-width="2" points="1116.99,-42.78 1125.18,-36.07 1114.59,-36.21 1116.99,-42.78"/>
</g>
<!-- 24 -->
<g id="node25" class="node">
<title>24</title>
<path fill="none" stroke="#5692d8" stroke-width="2" d="M547,-180C547,-180 387,-180 387,-180 381,-180 375,-174 375,-168 375,-168 375,-156 375,-156 375,-150 381,-144 387,-144 387,-144 547,-144 547,-144 553,-144 559,-150 559,-156 559,-156 559,-168 559,-168 559,-174 553,-180 547,-180"/>
<text text-anchor="middle" x="467" y="-159.5" font-family="sans" font-size="10.00">fit_treatmentResponseExperiment</text>
</g>
<!-- 24&#45;&gt;23 -->
<g id="edge39" class="edge">
<title>24&#45;&gt;23</title>
<path fill="none" stroke="grey" stroke-width="2" d="M559.15,-146.81C566.2,-145.82 573.21,-144.87 580,-144 725.76,-125.24 766.58,-134.92 915.03,-108.02"/>
<polygon fill="grey" stroke="grey" stroke-width="2" points="915.76,-111.44 924.96,-106.19 914.5,-104.56 915.76,-111.44"/>
</g>
<!-- 25&#45;&gt;24 -->
<g id="edge40" class="edge">
<title>25&#45;&gt;24</title>
<path fill="none" stroke="grey" stroke-width="2" d="M403.9,-287.95C386.34,-279.99 369.27,-268.49 359,-252 350.54,-238.42 350.54,-229.58 359,-216 367.51,-202.35 380.67,-192.11 394.92,-184.48"/>
<polygon fill="grey" stroke="grey" stroke-width="2" points="396.48,-187.61 403.9,-180.05 393.38,-181.33 396.48,-187.61"/>
</g>
<!-- 27 -->
<g id="node28" class="node">
<title>27</title>
<path fill="none" stroke="#9fd856" stroke-width="2" d="M554,-252C554,-252 380,-252 380,-252 374,-252 368,-246 368,-240 368,-240 368,-228 368,-228 368,-222 374,-216 380,-216 380,-216 554,-216 554,-216 560,-216 566,-222 566,-228 566,-228 566,-240 566,-240 566,-246 560,-252 554,-252"/>
<text text-anchor="middle" x="467" y="-231.5" font-family="sans" font-size="10.00">build_treatmentResponseExperiment</text>
</g>
<!-- 25&#45;&gt;27 -->
<g id="edge44" class="edge">
<title>25&#45;&gt;27</title>
<path fill="none" stroke="grey" stroke-width="2" d="M467,-287.7C467,-279.98 467,-270.71 467,-262.11"/>
<polygon fill="grey" stroke="grey" stroke-width="2" points="470.5,-262.1 467,-252.1 463.5,-262.1 470.5,-262.1"/>
</g>
<!-- 26 -->
<g id="node27" class="node">
<title>26</title>
<path fill="none" stroke="#d8a456" stroke-width="2" stroke-dasharray="5,2" d="M537.5,-401C537.5,-401 396.5,-401 396.5,-401 390.5,-401 384.5,-395 384.5,-389 384.5,-389 384.5,-372 384.5,-372 384.5,-366 390.5,-360 396.5,-360 396.5,-360 537.5,-360 537.5,-360 543.5,-360 549.5,-366 549.5,-372 549.5,-372 549.5,-389 549.5,-389 549.5,-395 543.5,-401 537.5,-401"/>
<text text-anchor="middle" x="467" y="-389" font-family="sans" font-size="10.00">download_treatmentResponse</text>
<text text-anchor="middle" x="467" y="-378" font-family="sans" font-size="10.00">dataset: GDSC1</text>
<text text-anchor="middle" x="467" y="-367" font-family="sans" font-size="10.00">release: 8.4</text>
</g>
<!-- 26&#45;&gt;25 -->
<g id="edge42" class="edge">
<title>26&#45;&gt;25</title>
<path fill="none" stroke="grey" stroke-width="2" d="M467,-359.69C467,-351.91 467,-342.84 467,-334.45"/>
<polygon fill="grey" stroke="grey" stroke-width="2" points="470.5,-334.32 467,-324.32 463.5,-334.32 470.5,-334.32"/>
</g>
<!-- 27&#45;&gt;24 -->
<g id="edge41" class="edge">
<title>27&#45;&gt;24</title>
<path fill="none" stroke="grey" stroke-width="2" d="M467,-215.7C467,-207.98 467,-198.71 467,-190.11"/>
<polygon fill="grey" stroke="grey" stroke-width="2" points="470.5,-190.1 467,-180.1 463.5,-190.1 470.5,-190.1"/>
</g>
<!-- 28&#45;&gt;0 -->
<g id="edge3" class="edge">
<title>28&#45;&gt;0</title>
<path fill="none" stroke="grey" stroke-width="2" d="M1220.18,-71.7C1212.43,-63.22 1202.96,-52.86 1194.48,-43.58"/>
<polygon fill="grey" stroke="grey" stroke-width="2" points="1196.97,-41.12 1187.64,-36.1 1191.8,-45.85 1196.97,-41.12"/>
</g>
<!-- 29 -->
<g id="node30" class="node">
<title>29</title>
<path fill="none" stroke="#5692d8" stroke-width="2" d="M1747,-180C1747,-180 1587,-180 1587,-180 1581,-180 1575,-174 1575,-168 1575,-168 1575,-156 1575,-156 1575,-150 1581,-144 1587,-144 1587,-144 1747,-144 1747,-144 1753,-144 1759,-150 1759,-156 1759,-156 1759,-168 1759,-168 1759,-174 1753,-180 1747,-180"/>
<text text-anchor="middle" x="1667" y="-159.5" font-family="sans" font-size="10.00">fit_treatmentResponseExperiment</text>
</g>
<!-- 29&#45;&gt;28 -->
<g id="edge50" class="edge">
<title>29&#45;&gt;28</title>
<path fill="none" stroke="grey" stroke-width="2" d="M1574.81,-146.09C1570.14,-145.37 1565.52,-144.67 1561,-144 1448.35,-127.2 1416.53,-130.85 1301,-108.07"/>
<polygon fill="grey" stroke="grey" stroke-width="2" points="1301.55,-104.61 1291.06,-106.08 1300.18,-111.47 1301.55,-104.61"/>
</g>
<!-- 30&#45;&gt;29 -->
<g id="edge51" class="edge">
<title>30&#45;&gt;29</title>
<path fill="none" stroke="grey" stroke-width="2" d="M1650.38,-287.9C1632.19,-280.04 1614.85,-268.6 1604,-252 1595.25,-238.61 1597.25,-230.51 1604,-216 1609.43,-204.34 1618.82,-194.34 1628.72,-186.26"/>
<polygon fill="grey" stroke="grey" stroke-width="2" points="1630.85,-189.03 1636.7,-180.2 1626.62,-183.45 1630.85,-189.03"/>
</g>
<!-- 32 -->
<g id="node33" class="node">
<title>32</title>
<path fill="none" stroke="#9fd856" stroke-width="2" d="M1799,-252C1799,-252 1625,-252 1625,-252 1619,-252 1613,-246 1613,-240 1613,-240 1613,-228 1613,-228 1613,-222 1619,-216 1625,-216 1625,-216 1799,-216 1799,-216 1805,-216 1811,-222 1811,-228 1811,-228 1811,-240 1811,-240 1811,-246 1805,-252 1799,-252"/>
<text text-anchor="middle" x="1712" y="-231.5" font-family="sans" font-size="10.00">build_treatmentResponseExperiment</text>
</g>
<!-- 30&#45;&gt;32 -->
<g id="edge55" class="edge">
<title>30&#45;&gt;32</title>
<path fill="none" stroke="grey" stroke-width="2" d="M1721.79,-287.7C1720.35,-279.98 1718.63,-270.71 1717.04,-262.11"/>
<polygon fill="grey" stroke="grey" stroke-width="2" points="1720.44,-261.3 1715.18,-252.1 1713.56,-262.58 1720.44,-261.3"/>
</g>
<!-- 31 -->
<g id="node32" class="node">
<title>31</title>
<path fill="none" stroke="#d8a456" stroke-width="2" stroke-dasharray="5,2" d="M1795.5,-401C1795.5,-401 1654.5,-401 1654.5,-401 1648.5,-401 1642.5,-395 1642.5,-389 1642.5,-389 1642.5,-372 1642.5,-372 1642.5,-366 1648.5,-360 1654.5,-360 1654.5,-360 1795.5,-360 1795.5,-360 1801.5,-360 1807.5,-366 1807.5,-372 1807.5,-372 1807.5,-389 1807.5,-389 1807.5,-395 1801.5,-401 1795.5,-401"/>
<text text-anchor="middle" x="1725" y="-389" font-family="sans" font-size="10.00">download_treatmentResponse</text>
<text text-anchor="middle" x="1725" y="-378" font-family="sans" font-size="10.00">dataset: GDSC1</text>
<text text-anchor="middle" x="1725" y="-367" font-family="sans" font-size="10.00">release: 8.5</text>
</g>
<!-- 31&#45;&gt;30 -->
<g id="edge53" class="edge">
<title>31&#45;&gt;30</title>
<path fill="none" stroke="grey" stroke-width="2" d="M1725,-359.69C1725,-351.91 1725,-342.84 1725,-334.45"/>
<polygon fill="grey" stroke="grey" stroke-width="2" points="1728.5,-334.32 1725,-324.32 1721.5,-334.32 1728.5,-334.32"/>
</g>
<!-- 32&#45;&gt;29 -->
<g id="edge52" class="edge">
<title>32&#45;&gt;29</title>
<path fill="none" stroke="grey" stroke-width="2" d="M1700.88,-215.7C1695.64,-207.56 1689.3,-197.69 1683.52,-188.7"/>
<polygon fill="grey" stroke="grey" stroke-width="2" points="1686.35,-186.62 1678,-180.1 1680.46,-190.41 1686.35,-186.62"/>
</g>
<!-- 33&#45;&gt;0 -->
<g id="edge4" class="edge">
<title>33&#45;&gt;0</title>
<path fill="none" stroke="grey" stroke-width="2" d="M1317.03,-71.88C1290.32,-62.14 1256.68,-49.87 1228.53,-39.61"/>
<polygon fill="grey" stroke="grey" stroke-width="2" points="1229.41,-36.21 1218.82,-36.07 1227.01,-42.78 1229.41,-36.21"/>
</g>
<!-- 34 -->
<g id="node35" class="node">
<title>34</title>
<path fill="none" stroke="#5692d8" stroke-width="2" d="M2039,-180C2039,-180 1879,-180 1879,-180 1873,-180 1867,-174 1867,-168 1867,-168 1867,-156 1867,-156 1867,-150 1873,-144 1879,-144 1879,-144 2039,-144 2039,-144 2045,-144 2051,-150 2051,-156 2051,-156 2051,-168 2051,-168 2051,-174 2045,-180 2039,-180"/>
<text text-anchor="middle" x="1959" y="-159.5" font-family="sans" font-size="10.00">fit_treatmentResponseExperiment</text>
</g>
<!-- 34&#45;&gt;33 -->
<g id="edge61" class="edge">
<title>34&#45;&gt;33</title>
<path fill="none" stroke="grey" stroke-width="2" d="M1866.85,-145.8C1862.17,-145.16 1857.53,-144.55 1853,-144 1668.05,-121.37 1616.52,-139.8 1428.93,-107.98"/>
<polygon fill="grey" stroke="grey" stroke-width="2" points="1429.47,-104.52 1419.02,-106.27 1428.28,-111.42 1429.47,-104.52"/>
</g>
<!-- 35&#45;&gt;34 -->
<g id="edge62" class="edge">
<title>35&#45;&gt;34</title>
<path fill="none" stroke="grey" stroke-width="2" d="M1926.42,-287.91C1914.76,-278.81 1902.31,-266.49 1896,-252 1889.61,-237.33 1889.25,-230.51 1896,-216 1901.43,-204.34 1910.82,-194.34 1920.72,-186.26"/>
<polygon fill="grey" stroke="grey" stroke-width="2" points="1922.85,-189.03 1928.7,-180.2 1918.62,-183.45 1922.85,-189.03"/>
</g>
<!-- 37 -->
<g id="node38" class="node">
<title>37</title>
<path fill="none" stroke="#9fd856" stroke-width="2" d="M2091,-252C2091,-252 1917,-252 1917,-252 1911,-252 1905,-246 1905,-240 1905,-240 1905,-228 1905,-228 1905,-222 1911,-216 1917,-216 1917,-216 2091,-216 2091,-216 2097,-216 2103,-222 2103,-228 2103,-228 2103,-240 2103,-240 2103,-246 2097,-252 2091,-252"/>
<text text-anchor="middle" x="2004" y="-231.5" font-family="sans" font-size="10.00">build_treatmentResponseExperiment</text>
</g>
<!-- 35&#45;&gt;37 -->
<g id="edge66" class="edge">
<title>35&#45;&gt;37</title>
<path fill="none" stroke="grey" stroke-width="2" d="M1965.61,-287.7C1971.6,-279.47 1978.88,-269.48 1985.48,-260.42"/>
<polygon fill="grey" stroke="grey" stroke-width="2" points="1988.48,-262.25 1991.54,-252.1 1982.82,-258.13 1988.48,-262.25"/>
</g>
<!-- 36 -->
<g id="node37" class="node">
<title>36</title>
<path fill="none" stroke="#d8a456" stroke-width="2" stroke-dasharray="5,2" d="M2023.5,-401C2023.5,-401 1882.5,-401 1882.5,-401 1876.5,-401 1870.5,-395 1870.5,-389 1870.5,-389 1870.5,-372 1870.5,-372 1870.5,-366 1876.5,-360 1882.5,-360 1882.5,-360 2023.5,-360 2023.5,-360 2029.5,-360 2035.5,-366 2035.5,-372 2035.5,-372 2035.5,-389 2035.5,-389 2035.5,-395 2029.5,-401 2023.5,-401"/>
<text text-anchor="middle" x="1953" y="-389" font-family="sans" font-size="10.00">download_treatmentResponse</text>
<text text-anchor="middle" x="1953" y="-378" font-family="sans" font-size="10.00">dataset: GDSC2</text>
<text text-anchor="middle" x="1953" y="-367" font-family="sans" font-size="10.00">release: 8.2</text>
</g>
<!-- 36&#45;&gt;35 -->
<g id="edge64" class="edge">
<title>36&#45;&gt;35</title>
<path fill="none" stroke="grey" stroke-width="2" d="M1953,-359.69C1953,-351.91 1953,-342.84 1953,-334.45"/>
<polygon fill="grey" stroke="grey" stroke-width="2" points="1956.5,-334.32 1953,-324.32 1949.5,-334.32 1956.5,-334.32"/>
</g>
<!-- 37&#45;&gt;34 -->
<g id="edge63" class="edge">
<title>37&#45;&gt;34</title>
<path fill="none" stroke="grey" stroke-width="2" d="M1992.88,-215.7C1987.64,-207.56 1981.3,-197.69 1975.52,-188.7"/>
<polygon fill="grey" stroke="grey" stroke-width="2" points="1978.35,-186.62 1970,-180.1 1972.46,-190.41 1978.35,-186.62"/>
</g>
<!-- 38&#45;&gt;0 -->
<g id="edge5" class="edge">
<title>38&#45;&gt;0</title>
<path fill="none" stroke="grey" stroke-width="2" d="M907.11,-74.15C910.11,-73.41 913.09,-72.69 916,-72 975.01,-58.07 1042.15,-44.24 1092.86,-34.21"/>
<polygon fill="grey" stroke="grey" stroke-width="2" points="1093.64,-37.62 1102.78,-32.25 1092.29,-30.75 1093.64,-37.62"/>
</g>
<!-- 39 -->
<g id="node40" class="node">
<title>39</title>
<path fill="none" stroke="#5692d8" stroke-width="2" d="M262,-180C262,-180 102,-180 102,-180 96,-180 90,-174 90,-168 90,-168 90,-156 90,-156 90,-150 96,-144 102,-144 102,-144 262,-144 262,-144 268,-144 274,-150 274,-156 274,-156 274,-168 274,-168 274,-174 268,-180 262,-180"/>
<text text-anchor="middle" x="182" y="-159.5" font-family="sans" font-size="10.00">fit_treatmentResponseExperiment</text>
</g>
<!-- 39&#45;&gt;38 -->
<g id="edge72" class="edge">
<title>39&#45;&gt;38</title>
<path fill="none" stroke="grey" stroke-width="2" d="M274.16,-145.85C278.84,-145.2 283.47,-144.58 288,-144 467.87,-121.15 681.18,-103.72 786.48,-95.76"/>
<polygon fill="grey" stroke="grey" stroke-width="2" points="786.92,-99.24 796.63,-95 786.4,-92.26 786.92,-99.24"/>
</g>
<!-- 40&#45;&gt;39 -->
<g id="edge73" class="edge">
<title>40&#45;&gt;39</title>
<path fill="none" stroke="grey" stroke-width="2" d="M195.89,-287.75C200.11,-277.58 204.86,-264.33 207,-252 209.74,-236.24 210.5,-231.61 207,-216 204.99,-207.01 201.27,-197.75 197.3,-189.53"/>
<polygon fill="grey" stroke="grey" stroke-width="2" points="200.32,-187.73 192.63,-180.44 194.09,-190.94 200.32,-187.73"/>
</g>
<!-- 42 -->
<g id="node43" class="node">
<title>42</title>
<path fill="none" stroke="#9fd856" stroke-width="2" d="M186,-252C186,-252 12,-252 12,-252 6,-252 0,-246 0,-240 0,-240 0,-228 0,-228 0,-222 6,-216 12,-216 12,-216 186,-216 186,-216 192,-216 198,-222 198,-228 198,-228 198,-240 198,-240 198,-246 192,-252 186,-252"/>
<text text-anchor="middle" x="99" y="-231.5" font-family="sans" font-size="10.00">build_treatmentResponseExperiment</text>
</g>
<!-- 40&#45;&gt;42 -->
<g id="edge77" class="edge">
<title>40&#45;&gt;42</title>
<path fill="none" stroke="grey" stroke-width="2" d="M166,-287.7C154.79,-278.88 141,-268.03 128.85,-258.47"/>
<polygon fill="grey" stroke="grey" stroke-width="2" points="130.77,-255.54 120.75,-252.1 126.44,-261.04 130.77,-255.54"/>
</g>
<!-- 41 -->
<g id="node42" class="node">
<title>41</title>
<path fill="none" stroke="#d8a456" stroke-width="2" stroke-dasharray="5,2" d="M258.5,-401C258.5,-401 117.5,-401 117.5,-401 111.5,-401 105.5,-395 105.5,-389 105.5,-389 105.5,-372 105.5,-372 105.5,-366 111.5,-360 117.5,-360 117.5,-360 258.5,-360 258.5,-360 264.5,-360 270.5,-366 270.5,-372 270.5,-372 270.5,-389 270.5,-389 270.5,-395 264.5,-401 258.5,-401"/>
<text text-anchor="middle" x="188" y="-389" font-family="sans" font-size="10.00">download_treatmentResponse</text>
<text text-anchor="middle" x="188" y="-378" font-family="sans" font-size="10.00">dataset: GDSC2</text>
<text text-anchor="middle" x="188" y="-367" font-family="sans" font-size="10.00">release: 8.4</text>
</g>
<!-- 41&#45;&gt;40 -->
<g id="edge75" class="edge">
<title>41&#45;&gt;40</title>
<path fill="none" stroke="grey" stroke-width="2" d="M188,-359.69C188,-351.91 188,-342.84 188,-334.45"/>
<polygon fill="grey" stroke="grey" stroke-width="2" points="191.5,-334.32 188,-324.32 184.5,-334.32 191.5,-334.32"/>
</g>
<!-- 42&#45;&gt;39 -->
<g id="edge74" class="edge">
<title>42&#45;&gt;39</title>
<path fill="none" stroke="grey" stroke-width="2" d="M119.52,-215.7C129.87,-206.97 142.59,-196.24 153.84,-186.75"/>
<polygon fill="grey" stroke="grey" stroke-width="2" points="156.33,-189.23 161.72,-180.1 151.82,-183.88 156.33,-189.23"/>
</g>
<!-- 43&#45;&gt;0 -->
<g id="edge6" class="edge">
<title>43&#45;&gt;0</title>
<path fill="none" stroke="grey" stroke-width="2" d="M1436.89,-74.15C1433.89,-73.41 1430.91,-72.69 1428,-72 1368.99,-58.07 1301.85,-44.24 1251.14,-34.21"/>
<polygon fill="grey" stroke="grey" stroke-width="2" points="1251.71,-30.75 1241.22,-32.25 1250.36,-37.62 1251.71,-30.75"/>
</g>
<!-- 44 -->
<g id="node45" class="node">
<title>44</title>
<path fill="none" stroke="#5692d8" stroke-width="2" d="M2331,-180C2331,-180 2171,-180 2171,-180 2165,-180 2159,-174 2159,-168 2159,-168 2159,-156 2159,-156 2159,-150 2165,-144 2171,-144 2171,-144 2331,-144 2331,-144 2337,-144 2343,-150 2343,-156 2343,-156 2343,-168 2343,-168 2343,-174 2337,-180 2331,-180"/>
<text text-anchor="middle" x="2251" y="-159.5" font-family="sans" font-size="10.00">fit_treatmentResponseExperiment</text>
</g>
<!-- 44&#45;&gt;43 -->
<g id="edge83" class="edge">
<title>44&#45;&gt;43</title>
<path fill="none" stroke="grey" stroke-width="2" d="M2158.85,-145.78C2154.17,-145.14 2149.53,-144.55 2145,-144 1930.7,-118.16 1675.28,-101.51 1557.47,-94.62"/>
<polygon fill="grey" stroke="grey" stroke-width="2" points="1557.37,-91.11 1547.18,-94.02 1556.96,-98.09 1557.37,-91.11"/>
</g>
<!-- 45&#45;&gt;44 -->
<g id="edge84" class="edge">
<title>45&#45;&gt;44</title>
<path fill="none" stroke="grey" stroke-width="2" d="M2237.11,-287.75C2232.89,-277.58 2228.14,-264.33 2226,-252 2223.26,-236.24 2222.5,-231.61 2226,-216 2228.01,-207.01 2231.73,-197.75 2235.7,-189.53"/>
<polygon fill="grey" stroke="grey" stroke-width="2" points="2238.91,-190.94 2240.37,-180.44 2232.68,-187.73 2238.91,-190.94"/>
</g>
<!-- 47 -->
<g id="node48" class="node">
<title>47</title>
<path fill="none" stroke="#9fd856" stroke-width="2" d="M2421,-252C2421,-252 2247,-252 2247,-252 2241,-252 2235,-246 2235,-240 2235,-240 2235,-228 2235,-228 2235,-222 2241,-216 2247,-216 2247,-216 2421,-216 2421,-216 2427,-216 2433,-222 2433,-228 2433,-228 2433,-240 2433,-240 2433,-246 2427,-252 2421,-252"/>
<text text-anchor="middle" x="2334" y="-231.5" font-family="sans" font-size="10.00">build_treatmentResponseExperiment</text>
</g>
<!-- 45&#45;&gt;47 -->
<g id="edge88" class="edge">
<title>45&#45;&gt;47</title>
<path fill="none" stroke="grey" stroke-width="2" d="M2267,-287.7C2278.21,-278.88 2292,-268.03 2304.15,-258.47"/>
<polygon fill="grey" stroke="grey" stroke-width="2" points="2306.56,-261.04 2312.25,-252.1 2302.23,-255.54 2306.56,-261.04"/>
</g>
<!-- 46 -->
<g id="node47" class="node">
<title>46</title>
<path fill="none" stroke="#d8a456" stroke-width="2" stroke-dasharray="5,2" d="M2315.5,-401C2315.5,-401 2174.5,-401 2174.5,-401 2168.5,-401 2162.5,-395 2162.5,-389 2162.5,-389 2162.5,-372 2162.5,-372 2162.5,-366 2168.5,-360 2174.5,-360 2174.5,-360 2315.5,-360 2315.5,-360 2321.5,-360 2327.5,-366 2327.5,-372 2327.5,-372 2327.5,-389 2327.5,-389 2327.5,-395 2321.5,-401 2315.5,-401"/>
<text text-anchor="middle" x="2245" y="-389" font-family="sans" font-size="10.00">download_treatmentResponse</text>
<text text-anchor="middle" x="2245" y="-378" font-family="sans" font-size="10.00">dataset: GDSC2</text>
<text text-anchor="middle" x="2245" y="-367" font-family="sans" font-size="10.00">release: 8.5</text>
</g>
<!-- 46&#45;&gt;45 -->
<g id="edge86" class="edge">
<title>46&#45;&gt;45</title>
<path fill="none" stroke="grey" stroke-width="2" d="M2245,-359.69C2245,-351.91 2245,-342.84 2245,-334.45"/>
<polygon fill="grey" stroke="grey" stroke-width="2" points="2248.5,-334.32 2245,-324.32 2241.5,-334.32 2248.5,-334.32"/>
</g>
<!-- 47&#45;&gt;44 -->
<g id="edge85" class="edge">
<title>47&#45;&gt;44</title>
<path fill="none" stroke="grey" stroke-width="2" d="M2313.48,-215.7C2303.13,-206.97 2290.41,-196.24 2279.16,-186.75"/>
<polygon fill="grey" stroke="grey" stroke-width="2" points="2281.18,-183.88 2271.28,-180.1 2276.67,-189.23 2281.18,-183.88"/>
</g>
</g>
</svg>
