<?xml version="1.0" encoding="UTF-8" standalone="no"?>
<!DOCTYPE svg PUBLIC "-//W3C//DTD SVG 1.1//EN"
 "http://www.w3.org/Graphics/SVG/1.1/DTD/svg11.dtd">
<!-- Generated by graphviz version 2.43.0 (0)
 -->
<!-- Title: snakemake_dag Pages: 1 -->
<svg width="1335pt" height="188pt"
 viewBox="0.00 0.00 1335.00 188.00" xmlns="http://www.w3.org/2000/svg" xmlns:xlink="http://www.w3.org/1999/xlink">
<g id="graph0" class="graph" transform="scale(1 1) rotate(0) translate(4 184)">
<title>snakemake_dag</title>
<polygon fill="white" stroke="transparent" points="-4,4 -4,-184 1331,-184 1331,4 -4,4"/>
<!-- 0 -->
<g id="node1" class="node">
<title>0</title>
<path fill="none" stroke="#5673d8" stroke-width="2" d="M713,-36C713,-36 683,-36 683,-36 677,-36 671,-30 671,-24 671,-24 671,-12 671,-12 671,-6 677,0 683,0 683,0 713,0 713,0 719,0 725,-6 725,-12 725,-12 725,-24 725,-24 725,-30 719,-36 713,-36"/>
<text text-anchor="middle" x="698" y="-15.5" font-family="sans" font-size="10.00">all</text>
</g>
<!-- 1 -->
<g id="node2" class="node">
<title>1</title>
<path fill="none" stroke="#56d8a9" stroke-width="2" d="M214.5,-108C214.5,-108 107.5,-108 107.5,-108 101.5,-108 95.5,-102 95.5,-96 95.5,-96 95.5,-84 95.5,-84 95.5,-78 101.5,-72 107.5,-72 107.5,-72 214.5,-72 214.5,-72 220.5,-72 226.5,-78 226.5,-84 226.5,-84 226.5,-96 226.5,-96 226.5,-102 220.5,-108 214.5,-108"/>
<text text-anchor="middle" x="161" y="-87.5" font-family="sans" font-size="10.00">preprocessEXPRESSION</text>
</g>
<!-- 1&#45;&gt;0 -->
<g id="edge1" class="edge">
<title>1&#45;&gt;0</title>
<path fill="none" stroke="grey" stroke-width="2" d="M226.58,-80.45C340.42,-65.61 571.05,-35.55 660.95,-23.83"/>
<polygon fill="grey" stroke="grey" stroke-width="2" points="661.48,-27.29 670.95,-22.53 660.58,-20.35 661.48,-27.29"/>
</g>
<!-- 2 -->
<g id="node3" class="node">
<title>2</title>
<path fill="none" stroke="#59d856" stroke-width="2" d="M128,-180C128,-180 12,-180 12,-180 6,-180 0,-174 0,-168 0,-168 0,-156 0,-156 0,-150 6,-144 12,-144 12,-144 128,-144 128,-144 134,-144 140,-150 140,-156 140,-156 140,-168 140,-168 140,-174 134,-180 128,-180"/>
<text text-anchor="middle" x="70" y="-159.5" font-family="sans" font-size="10.00">downloadExpressionData</text>
</g>
<!-- 2&#45;&gt;1 -->
<g id="edge8" class="edge">
<title>2&#45;&gt;1</title>
<path fill="none" stroke="grey" stroke-width="2" d="M92.49,-143.7C103.96,-134.88 118.06,-124.03 130.48,-114.47"/>
<polygon fill="grey" stroke="grey" stroke-width="2" points="132.97,-116.98 138.76,-108.1 128.7,-111.43 132.97,-116.98"/>
</g>
<!-- 3 -->
<g id="node4" class="node">
<title>3</title>
<path fill="none" stroke="#5692d8" stroke-width="2" d="M413.5,-108C413.5,-108 346.5,-108 346.5,-108 340.5,-108 334.5,-102 334.5,-96 334.5,-96 334.5,-84 334.5,-84 334.5,-78 340.5,-72 346.5,-72 346.5,-72 413.5,-72 413.5,-72 419.5,-72 425.5,-78 425.5,-84 425.5,-84 425.5,-96 425.5,-96 425.5,-102 419.5,-108 413.5,-108"/>
<text text-anchor="middle" x="380" y="-87.5" font-family="sans" font-size="10.00">preprocessCNV</text>
</g>
<!-- 3&#45;&gt;0 -->
<g id="edge2" class="edge">
<title>3&#45;&gt;0</title>
<path fill="none" stroke="grey" stroke-width="2" d="M425.56,-78.97C488.91,-65.03 602.38,-40.05 660.88,-27.17"/>
<polygon fill="grey" stroke="grey" stroke-width="2" points="661.78,-30.56 670.8,-24.99 660.28,-23.72 661.78,-30.56"/>
</g>
<!-- 4 -->
<g id="node5" class="node">
<title>4</title>
<path fill="none" stroke="#8fd856" stroke-width="2" d="M281.5,-180C281.5,-180 170.5,-180 170.5,-180 164.5,-180 158.5,-174 158.5,-168 158.5,-168 158.5,-156 158.5,-156 158.5,-150 164.5,-144 170.5,-144 170.5,-144 281.5,-144 281.5,-144 287.5,-144 293.5,-150 293.5,-156 293.5,-156 293.5,-168 293.5,-168 293.5,-174 287.5,-180 281.5,-180"/>
<text text-anchor="middle" x="226" y="-159.5" font-family="sans" font-size="10.00">downloadCNV_WESData</text>
</g>
<!-- 4&#45;&gt;3 -->
<g id="edge9" class="edge">
<title>4&#45;&gt;3</title>
<path fill="none" stroke="grey" stroke-width="2" d="M263.67,-143.88C284.63,-134.35 310.9,-122.41 333.18,-112.28"/>
<polygon fill="grey" stroke="grey" stroke-width="2" points="334.79,-115.39 342.45,-108.07 331.9,-109.02 334.79,-115.39"/>
</g>
<!-- 5 -->
<g id="node6" class="node">
<title>5</title>
<path fill="none" stroke="#56d892" stroke-width="2" d="M436.5,-180C436.5,-180 323.5,-180 323.5,-180 317.5,-180 311.5,-174 311.5,-168 311.5,-168 311.5,-156 311.5,-156 311.5,-150 317.5,-144 323.5,-144 323.5,-144 436.5,-144 436.5,-144 442.5,-144 448.5,-150 448.5,-156 448.5,-156 448.5,-168 448.5,-168 448.5,-174 442.5,-180 436.5,-180"/>
<text text-anchor="middle" x="380" y="-159.5" font-family="sans" font-size="10.00">downloadCNV_WGSData</text>
</g>
<!-- 5&#45;&gt;3 -->
<g id="edge10" class="edge">
<title>5&#45;&gt;3</title>
<path fill="none" stroke="grey" stroke-width="2" d="M380,-143.7C380,-135.98 380,-126.71 380,-118.11"/>
<polygon fill="grey" stroke="grey" stroke-width="2" points="383.5,-118.1 380,-108.1 376.5,-118.1 383.5,-118.1"/>
</g>
<!-- 6 -->
<g id="node7" class="node">
<title>6</title>
<path fill="none" stroke="#d8cb56" stroke-width="2" d="M597,-108C597,-108 481,-108 481,-108 475,-108 469,-102 469,-96 469,-96 469,-84 469,-84 469,-78 475,-72 481,-72 481,-72 597,-72 597,-72 603,-72 609,-78 609,-84 609,-84 609,-96 609,-96 609,-102 603,-108 597,-108"/>
<text text-anchor="middle" x="539" y="-87.5" font-family="sans" font-size="10.00">preprocessMETHYLATION</text>
</g>
<!-- 6&#45;&gt;0 -->
<g id="edge3" class="edge">
<title>6&#45;&gt;0</title>
<path fill="none" stroke="grey" stroke-width="2" d="M577.9,-71.88C603.49,-60.61 636.77,-45.96 661.8,-34.94"/>
<polygon fill="grey" stroke="grey" stroke-width="2" points="663.22,-38.14 670.96,-30.9 660.4,-31.73 663.22,-38.14"/>
</g>
<!-- 7 -->
<g id="node8" class="node">
<title>7</title>
<path fill="none" stroke="#c6d856" stroke-width="2" d="M589,-180C589,-180 479,-180 479,-180 473,-180 467,-174 467,-168 467,-168 467,-156 467,-156 467,-150 473,-144 479,-144 479,-144 589,-144 589,-144 595,-144 601,-150 601,-156 601,-156 601,-168 601,-168 601,-174 595,-180 589,-180"/>
<text text-anchor="middle" x="534" y="-159.5" font-family="sans" font-size="10.00">downloadMETHYLATION</text>
</g>
<!-- 7&#45;&gt;6 -->
<g id="edge11" class="edge">
<title>7&#45;&gt;6</title>
<path fill="none" stroke="grey" stroke-width="2" d="M535.24,-143.7C535.79,-135.98 536.45,-126.71 537.06,-118.11"/>
<polygon fill="grey" stroke="grey" stroke-width="2" points="540.56,-118.33 537.78,-108.1 533.57,-117.83 540.56,-118.33"/>
</g>
<!-- 8 -->
<g id="node9" class="node">
<title>8</title>
<path fill="none" stroke="#56a9d8" stroke-width="2" d="M747,-108C747,-108 649,-108 649,-108 643,-108 637,-102 637,-96 637,-96 637,-84 637,-84 637,-78 643,-72 649,-72 649,-72 747,-72 747,-72 753,-72 759,-78 759,-84 759,-84 759,-96 759,-96 759,-102 753,-108 747,-108"/>
<text text-anchor="middle" x="698" y="-87.5" font-family="sans" font-size="10.00">preprocessMUTATION</text>
</g>
<!-- 8&#45;&gt;0 -->
<g id="edge4" class="edge">
<title>8&#45;&gt;0</title>
<path fill="none" stroke="grey" stroke-width="2" d="M698,-71.7C698,-63.98 698,-54.71 698,-46.11"/>
<polygon fill="grey" stroke="grey" stroke-width="2" points="701.5,-46.1 698,-36.1 694.5,-46.1 701.5,-46.1"/>
</g>
<!-- 9 -->
<g id="node10" class="node">
<title>9</title>
<path fill="none" stroke="#d85656" stroke-width="2" d="M774.5,-180C774.5,-180 631.5,-180 631.5,-180 625.5,-180 619.5,-174 619.5,-168 619.5,-168 619.5,-156 619.5,-156 619.5,-150 625.5,-144 631.5,-144 631.5,-144 774.5,-144 774.5,-144 780.5,-144 786.5,-150 786.5,-156 786.5,-156 786.5,-168 786.5,-168 786.5,-174 780.5,-180 774.5,-180"/>
<text text-anchor="middle" x="703" y="-159.5" font-family="sans" font-size="10.00">downloadMUTATION_WGSData</text>
</g>
<!-- 9&#45;&gt;8 -->
<g id="edge12" class="edge">
<title>9&#45;&gt;8</title>
<path fill="none" stroke="grey" stroke-width="2" d="M701.76,-143.7C701.21,-135.98 700.55,-126.71 699.94,-118.11"/>
<polygon fill="grey" stroke="grey" stroke-width="2" points="703.43,-117.83 699.22,-108.1 696.44,-118.33 703.43,-117.83"/>
</g>
<!-- 10 -->
<g id="node11" class="node">
<title>10</title>
<path fill="none" stroke="#afd856" stroke-width="2" d="M959,-180C959,-180 817,-180 817,-180 811,-180 805,-174 805,-168 805,-168 805,-156 805,-156 805,-150 811,-144 817,-144 817,-144 959,-144 959,-144 965,-144 971,-150 971,-156 971,-156 971,-168 971,-168 971,-174 965,-180 959,-180"/>
<text text-anchor="middle" x="888" y="-159.5" font-family="sans" font-size="10.00">downloadMUTATION_WESData</text>
</g>
<!-- 10&#45;&gt;8 -->
<g id="edge13" class="edge">
<title>10&#45;&gt;8</title>
<path fill="none" stroke="grey" stroke-width="2" d="M841.52,-143.88C815.08,-134.14 781.8,-121.87 753.94,-111.61"/>
<polygon fill="grey" stroke="grey" stroke-width="2" points="754.92,-108.24 744.33,-108.07 752.5,-114.81 754.92,-108.24"/>
</g>
<!-- 11 -->
<g id="node12" class="node">
<title>11</title>
<path fill="none" stroke="#70d856" stroke-width="2" d="M1144.5,-180C1144.5,-180 1001.5,-180 1001.5,-180 995.5,-180 989.5,-174 989.5,-168 989.5,-168 989.5,-156 989.5,-156 989.5,-150 995.5,-144 1001.5,-144 1001.5,-144 1144.5,-144 1144.5,-144 1150.5,-144 1156.5,-150 1156.5,-156 1156.5,-156 1156.5,-168 1156.5,-168 1156.5,-174 1150.5,-180 1144.5,-180"/>
<text text-anchor="middle" x="1073" y="-159.5" font-family="sans" font-size="10.00">downloadMUTATION_summary</text>
</g>
<!-- 11&#45;&gt;8 -->
<g id="edge14" class="edge">
<title>11&#45;&gt;8</title>
<path fill="none" stroke="grey" stroke-width="2" d="M989.36,-145.66C986.2,-145.1 983.07,-144.54 980,-144 889.01,-127.96 863.29,-127.32 768.99,-108.13"/>
<polygon fill="grey" stroke="grey" stroke-width="2" points="769.53,-104.67 759.03,-106.09 768.12,-111.53 769.53,-104.67"/>
</g>
<!-- 12 -->
<g id="node13" class="node">
<title>12</title>
<path fill="none" stroke="#d8ac56" stroke-width="2" d="M925,-108C925,-108 789,-108 789,-108 783,-108 777,-102 777,-96 777,-96 777,-84 777,-84 777,-78 783,-72 789,-72 789,-72 925,-72 925,-72 931,-72 937,-78 937,-84 937,-84 937,-96 937,-96 937,-102 931,-108 925,-108"/>
<text text-anchor="middle" x="857" y="-87.5" font-family="sans" font-size="10.00">downloadTreatmentMetadata</text>
</g>
<!-- 12&#45;&gt;0 -->
<g id="edge5" class="edge">
<title>12&#45;&gt;0</title>
<path fill="none" stroke="grey" stroke-width="2" d="M818.1,-71.88C792.51,-60.61 759.23,-45.96 734.2,-34.94"/>
<polygon fill="grey" stroke="grey" stroke-width="2" points="735.6,-31.73 725.04,-30.9 732.78,-38.14 735.6,-31.73"/>
</g>
<!-- 13 -->
<g id="node14" class="node">
<title>13</title>
<path fill="none" stroke="#56c9d8" stroke-width="2" d="M1090.5,-108C1090.5,-108 967.5,-108 967.5,-108 961.5,-108 955.5,-102 955.5,-96 955.5,-96 955.5,-84 955.5,-84 955.5,-78 961.5,-72 967.5,-72 967.5,-72 1090.5,-72 1090.5,-72 1096.5,-72 1102.5,-78 1102.5,-84 1102.5,-84 1102.5,-96 1102.5,-96 1102.5,-102 1096.5,-108 1090.5,-108"/>
<text text-anchor="middle" x="1029" y="-87.5" font-family="sans" font-size="10.00">downloadSampleMetadata</text>
</g>
<!-- 13&#45;&gt;0 -->
<g id="edge6" class="edge">
<title>13&#45;&gt;0</title>
<path fill="none" stroke="grey" stroke-width="2" d="M955.13,-73.38C886.89,-58.95 788.31,-38.1 735.22,-26.87"/>
<polygon fill="grey" stroke="grey" stroke-width="2" points="735.74,-23.4 725.24,-24.76 734.29,-30.25 735.74,-23.4"/>
</g>
<!-- 14 -->
<g id="node15" class="node">
<title>14</title>
<path fill="none" stroke="#56d873" stroke-width="2" d="M1315,-108C1315,-108 1133,-108 1133,-108 1127,-108 1121,-102 1121,-96 1121,-96 1121,-84 1121,-84 1121,-78 1127,-72 1133,-72 1133,-72 1315,-72 1315,-72 1321,-72 1327,-78 1327,-84 1327,-84 1327,-96 1327,-96 1327,-102 1321,-108 1315,-108"/>
<text text-anchor="middle" x="1224" y="-87.5" font-family="sans" font-size="10.00">downloadCellModelPassportsMetadata</text>
</g>
<!-- 14&#45;&gt;0 -->
<g id="edge7" class="edge">
<title>14&#45;&gt;0</title>
<path fill="none" stroke="grey" stroke-width="2" d="M1120.88,-73.25C1117.89,-72.83 1114.92,-72.41 1112,-72 973.15,-52.58 807.7,-32.24 735.17,-23.46"/>
<polygon fill="grey" stroke="grey" stroke-width="2" points="735.5,-19.98 725.15,-22.25 734.66,-26.93 735.5,-19.98"/>
</g>
</g>
</svg>
