<?xml version="1.0" encoding="UTF-8" standalone="no"?>
<!DOCTYPE svg PUBLIC "-//W3C//DTD SVG 1.1//EN"
 "http://www.w3.org/Graphics/SVG/1.1/DTD/svg11.dtd">
<!-- Generated by graphviz version 2.43.0 (0)
 -->
<!-- Title: snakemake_dag Pages: 1 -->
<svg width="3430pt" height="652pt"
 viewBox="0.00 0.00 3430.00 652.00" xmlns="http://www.w3.org/2000/svg" xmlns:xlink="http://www.w3.org/1999/xlink">
<g id="graph0" class="graph" transform="scale(1 1) rotate(0) translate(4 648)">
<title>snakemake_dag</title>
<polygon fill="white" stroke="transparent" points="-4,4 -4,-648 3426,-648 3426,4 -4,4"/>
<!-- 0 -->
<g id="node1" class="node">
<title>0</title>
<text text-anchor="start" x="1916.5" y="-197.6" font-family="sans" font-weight="bold" font-size="18.00">all</text>
<text text-anchor="start" x="1787.5" y="-173.8" font-family="sans" font-size="10.00"> </text>
<text text-anchor="start" x="1791.5" y="-173.8" font-family="sans" font-weight="bold" font-size="14.00">↪ input</text>
<text text-anchor="start" x="1849.5" y="-173.8" font-family="sans" font-size="10.00"> </text>
<text text-anchor="start" x="1787.5" y="-154" font-family="monospace" font-size="10.00">metadata/cellModelPassportsAnnotation.csv</text>
<text text-anchor="start" x="1787.5" y="-136" font-family="monospace" font-size="10.00">metadata/cellmodelpassportsGeneAnnotation.csv</text>
<text text-anchor="start" x="1787.5" y="-118" font-family="monospace" font-size="10.00">metadata/sampleAnnotation.csv</text>
<text text-anchor="start" x="1787.5" y="-100" font-family="monospace" font-size="10.00">metadata/treatmentAnnotation.csv</text>
<text text-anchor="start" x="1787.5" y="-82" font-family="monospace" font-size="10.00">procdata/cnv/preprocessedCNV.qs</text>
<text text-anchor="start" x="1787.5" y="-64" font-family="monospace" font-size="10.00">procdata/expression/preprocessedEXPRESSION.qs</text>
<text text-anchor="start" x="1787.5" y="-46" font-family="monospace" font-size="10.00">procdata/methylation/preprocessedMETHYLATION.qs</text>
<text text-anchor="start" x="1787.5" y="-28" font-family="monospace" font-size="10.00">procdata/mutation/preprocessedMUTATION.qs</text>
<text text-anchor="start" x="2063.5" y="-10" font-family="sans" font-size="10.00"> &#160;</text>
<polygon fill="#57d957" stroke="#57d957" points="1781.5,-188 1781.5,-188 2077.5,-188 2077.5,-188 1781.5,-188"/>
<polygon fill="#57d957" stroke="#57d957" points="1781.5,-22 1781.5,-22 2077.5,-22 2077.5,-22 1781.5,-22"/>
<polygon fill="none" stroke="#57d957" stroke-width="2" points="1781,-1 1781,-217 2076,-217 2076,-1 1781,-1"/>
</g>
<!-- 1 -->
<g id="node2" class="node">
<title>1</title>
<text text-anchor="start" x="171" y="-401.6" font-family="sans" font-weight="bold" font-size="18.00">preprocessEXPRESSION</text>
<text text-anchor="start" x="7.5" y="-377.8" font-family="sans" font-size="10.00"> </text>
<text text-anchor="start" x="11.5" y="-377.8" font-family="sans" font-weight="bold" font-size="14.00">↪ input</text>
<text text-anchor="start" x="69.5" y="-377.8" font-family="sans" font-size="10.00"> </text>
<text text-anchor="start" x="7.5" y="-358" font-family="monospace" font-size="10.00">/home/bioinf/bhklab/jermiah/psets/pset&#45;pipelines/GDSC/metadata/expression/E&#45;MTAB&#45;3610.sdrf.txt</text>
<text text-anchor="start" x="7.5" y="-340" font-family="monospace" font-size="10.00">rawdata/expression</text>
<text text-anchor="start" x="494.5" y="-319.8" font-family="sans" font-size="10.00"> </text>
<text text-anchor="start" x="498.5" y="-319.8" font-family="sans" font-weight="bold" font-size="14.00">output →</text>
<text text-anchor="start" x="568.5" y="-319.8" font-family="sans" font-size="10.00"> </text>
<text text-anchor="start" x="7.5" y="-300" font-family="monospace" font-size="10.00">procdata/expression/preprocessedEXPRESSION.qs</text>
<polygon fill="#add957" stroke="#add957" points="1.5,-392 1.5,-392 579.5,-392 579.5,-392 1.5,-392"/>
<polygon fill="#add957" stroke="#add957" points="1.5,-334 1.5,-334 579.5,-334 579.5,-334 1.5,-334"/>
<polygon fill="none" stroke="#add957" stroke-width="2" points="1,-291 1,-421 578,-421 578,-291 1,-291"/>
</g>
<!-- 1&#45;&gt;0 -->
<g id="edge2" class="edge">
<title>1&#45;&gt;0</title>
<path fill="none" stroke="grey" stroke-width="2" d="M541.89,-289.97C598.43,-276.81 658.31,-263.98 714.5,-254 1090.03,-187.33 1536.55,-143.31 1769.35,-122.98"/>
<polygon fill="grey" stroke="grey" stroke-width="2" points="1769.93,-126.45 1779.59,-122.09 1769.32,-119.47 1769.93,-126.45"/>
</g>
<!-- 2 -->
<g id="node3" class="node">
<title>2</title>
<text text-anchor="start" x="35.5" y="-605.6" font-family="sans" font-weight="bold" font-size="18.00">downloadExpressionData</text>
<text text-anchor="start" x="35.5" y="-581.8" font-family="sans" font-size="10.00"> </text>
<text text-anchor="start" x="39.5" y="-581.8" font-family="sans" font-weight="bold" font-size="14.00">↪ input</text>
<text text-anchor="start" x="97.5" y="-581.8" font-family="sans" font-size="10.00"> </text>
<text text-anchor="start" x="35.5" y="-562" font-family="monospace" font-size="10.00">&lt;input function&gt;</text>
<text text-anchor="start" x="210.5" y="-541.8" font-family="sans" font-size="10.00"> </text>
<text text-anchor="start" x="214.5" y="-541.8" font-family="sans" font-weight="bold" font-size="14.00">output →</text>
<text text-anchor="start" x="284.5" y="-541.8" font-family="sans" font-size="10.00"> </text>
<text text-anchor="start" x="35.5" y="-522" font-family="monospace" font-size="10.00">rawdata/expression</text>
<polygon fill="#5791d9" stroke="#5791d9" points="29.5,-596 29.5,-596 295.5,-596 295.5,-596 29.5,-596"/>
<polygon fill="#5791d9" stroke="#5791d9" points="29.5,-556 29.5,-556 295.5,-556 295.5,-556 29.5,-556"/>
<polygon fill="none" stroke="#5791d9" stroke-width="2" points="29,-513 29,-625 294,-625 294,-513 29,-513"/>
</g>
<!-- 2&#45;&gt;1 -->
<g id="edge8" class="edge">
<title>2&#45;&gt;1</title>
<path fill="none" stroke="grey" stroke-width="2" d="M195.63,-511.73C210.67,-486.94 228.54,-457.48 244.64,-430.95"/>
<polygon fill="grey" stroke="grey" stroke-width="2" points="247.83,-432.44 250.02,-422.08 241.84,-428.81 247.83,-432.44"/>
</g>
<!-- 3 -->
<g id="node4" class="node">
<title>3</title>
<text text-anchor="start" x="844" y="-437.6" font-family="sans" font-weight="bold" font-size="18.00">preprocessCNV</text>
<text text-anchor="start" x="731.5" y="-413.8" font-family="sans" font-size="10.00"> </text>
<text text-anchor="start" x="735.5" y="-413.8" font-family="sans" font-weight="bold" font-size="14.00">↪ input</text>
<text text-anchor="start" x="793.5" y="-413.8" font-family="sans" font-size="10.00"> </text>
<text text-anchor="start" x="731.5" y="-394" font-family="monospace" font-size="10.00">rawdata/cnv/WES_pureCN_CNV_genes_20221213.csv</text>
<text text-anchor="start" x="731.5" y="-376" font-family="monospace" font-size="10.00">rawdata/cnv/WES_pureCN_CNV_genes_cn_category_20221213.csv</text>
<text text-anchor="start" x="731.5" y="-358" font-family="monospace" font-size="10.00">rawdata/cnv/WES_pureCN_CNV_genes_total_copy_number_20221213.csv</text>
<text text-anchor="start" x="731.5" y="-340" font-family="monospace" font-size="10.00">rawdata/cnv/WGS_purple_CNV_genes_20230303.csv</text>
<text text-anchor="start" x="731.5" y="-322" font-family="monospace" font-size="10.00">rawdata/cnv/WGS_purple_genes_cn_category_20230303.csv</text>
<text text-anchor="start" x="731.5" y="-304" font-family="monospace" font-size="10.00">rawdata/cnv/WGS_purple_genes_total_copy_number_20230303.csv</text>
<text text-anchor="start" x="1032.5" y="-283.8" font-family="sans" font-size="10.00"> </text>
<text text-anchor="start" x="1036.5" y="-283.8" font-family="sans" font-weight="bold" font-size="14.00">output →</text>
<text text-anchor="start" x="1106.5" y="-283.8" font-family="sans" font-size="10.00"> </text>
<text text-anchor="start" x="731.5" y="-264" font-family="monospace" font-size="10.00">procdata/cnv/preprocessedCNV.qs</text>
<polygon fill="#57d990" stroke="#57d990" points="725.5,-428 725.5,-428 1117.5,-428 1117.5,-428 725.5,-428"/>
<polygon fill="#57d990" stroke="#57d990" points="725.5,-298 725.5,-298 1117.5,-298 1117.5,-298 725.5,-298"/>
<polygon fill="none" stroke="#57d990" stroke-width="2" points="725,-255 725,-457 1116,-457 1116,-255 725,-255"/>
</g>
<!-- 3&#45;&gt;0 -->
<g id="edge4" class="edge">
<title>3&#45;&gt;0</title>
<path fill="none" stroke="grey" stroke-width="2" d="M1117.25,-307.18C1307.87,-260.85 1593.32,-191.47 1769.86,-148.56"/>
<polygon fill="grey" stroke="grey" stroke-width="2" points="1770.86,-151.92 1779.75,-146.15 1769.21,-145.11 1770.86,-151.92"/>
</g>
<!-- 4 -->
<g id="node5" class="node">
<title>4</title>
<text text-anchor="start" x="389.5" y="-623.6" font-family="sans" font-weight="bold" font-size="18.00">downloadCNV_WESData</text>
<text text-anchor="start" x="320.5" y="-599.8" font-family="sans" font-size="10.00"> </text>
<text text-anchor="start" x="324.5" y="-599.8" font-family="sans" font-weight="bold" font-size="14.00">↪ input</text>
<text text-anchor="start" x="382.5" y="-599.8" font-family="sans" font-size="10.00"> </text>
<text text-anchor="start" x="320.5" y="-580" font-family="monospace" font-size="10.00">cog.sanger.ac.uk/cmp/download/WES_pureCN_CNV_genes_20221213.zip</text>
<text text-anchor="start" x="621.5" y="-559.8" font-family="sans" font-size="10.00"> </text>
<text text-anchor="start" x="625.5" y="-559.8" font-family="sans" font-weight="bold" font-size="14.00">output →</text>
<text text-anchor="start" x="695.5" y="-559.8" font-family="sans" font-size="10.00"> </text>
<text text-anchor="start" x="320.5" y="-540" font-family="monospace" font-size="10.00">rawdata/cnv/WES_pureCN_CNV_genes_20221213.csv</text>
<text text-anchor="start" x="320.5" y="-522" font-family="monospace" font-size="10.00">rawdata/cnv/WES_pureCN_CNV_genes_cn_category_20221213.csv</text>
<text text-anchor="start" x="320.5" y="-504" font-family="monospace" font-size="10.00">rawdata/cnv/WES_pureCN_CNV_genes_total_copy_number_20221213.csv</text>
<polygon fill="#d9ca57" stroke="#d9ca57" points="314.5,-614 314.5,-614 706.5,-614 706.5,-614 314.5,-614"/>
<polygon fill="#d9ca57" stroke="#d9ca57" points="314.5,-574 314.5,-574 706.5,-574 706.5,-574 314.5,-574"/>
<polygon fill="none" stroke="#d9ca57" stroke-width="2" points="314,-495 314,-643 705,-643 705,-495 314,-495"/>
</g>
<!-- 4&#45;&gt;3 -->
<g id="edge9" class="edge">
<title>4&#45;&gt;3</title>
<path fill="none" stroke="grey" stroke-width="2" d="M653.83,-493.91C673.57,-483.77 694.15,-473.21 714.72,-462.64"/>
<polygon fill="grey" stroke="grey" stroke-width="2" points="716.56,-465.63 723.86,-457.95 713.36,-459.41 716.56,-465.63"/>
</g>
<!-- 5 -->
<g id="node6" class="node">
<title>5</title>
<text text-anchor="start" x="799" y="-623.6" font-family="sans" font-weight="bold" font-size="18.00">downloadCNV_WGSData</text>
<text text-anchor="start" x="731.5" y="-599.8" font-family="sans" font-size="10.00"> </text>
<text text-anchor="start" x="735.5" y="-599.8" font-family="sans" font-weight="bold" font-size="14.00">↪ input</text>
<text text-anchor="start" x="793.5" y="-599.8" font-family="sans" font-size="10.00"> </text>
<text text-anchor="start" x="731.5" y="-580" font-family="monospace" font-size="10.00">cog.sanger.ac.uk/cmp/download/WGS_purple_CNV_genes_20230303.zip</text>
<text text-anchor="start" x="1032.5" y="-559.8" font-family="sans" font-size="10.00"> </text>
<text text-anchor="start" x="1036.5" y="-559.8" font-family="sans" font-weight="bold" font-size="14.00">output →</text>
<text text-anchor="start" x="1106.5" y="-559.8" font-family="sans" font-size="10.00"> </text>
<text text-anchor="start" x="731.5" y="-540" font-family="monospace" font-size="10.00">rawdata/cnv/WGS_purple_CNV_genes_20230303.csv</text>
<text text-anchor="start" x="731.5" y="-522" font-family="monospace" font-size="10.00">rawdata/cnv/WGS_purple_genes_cn_category_20230303.csv</text>
<text text-anchor="start" x="731.5" y="-504" font-family="monospace" font-size="10.00">rawdata/cnv/WGS_purple_genes_total_copy_number_20230303.csv</text>
<polygon fill="#57add9" stroke="#57add9" points="725.5,-614 725.5,-614 1117.5,-614 1117.5,-614 725.5,-614"/>
<polygon fill="#57add9" stroke="#57add9" points="725.5,-574 725.5,-574 1117.5,-574 1117.5,-574 725.5,-574"/>
<polygon fill="none" stroke="#57add9" stroke-width="2" points="725,-495 725,-643 1116,-643 1116,-495 725,-495"/>
</g>
<!-- 5&#45;&gt;3 -->
<g id="edge10" class="edge">
<title>5&#45;&gt;3</title>
<path fill="none" stroke="grey" stroke-width="2" d="M920.5,-493.91C920.5,-485.63 920.5,-477.06 920.5,-468.45"/>
<polygon fill="grey" stroke="grey" stroke-width="2" points="924,-468.32 920.5,-458.32 917,-468.32 924,-468.32"/>
</g>
<!-- 6 -->
<g id="node7" class="node">
<title>6</title>
<text text-anchor="start" x="1443" y="-392.6" font-family="sans" font-weight="bold" font-size="18.00">preprocessMETHYLATION</text>
<text text-anchor="start" x="1428.5" y="-368.8" font-family="sans" font-size="10.00"> </text>
<text text-anchor="start" x="1432.5" y="-368.8" font-family="sans" font-weight="bold" font-size="14.00">↪ input</text>
<text text-anchor="start" x="1490.5" y="-368.8" font-family="sans" font-size="10.00"> </text>
<text text-anchor="start" x="1428.5" y="-349" font-family="monospace" font-size="10.00">rawdata/methylation/METH_CELL_DATA.txt</text>
<text text-anchor="start" x="1633.5" y="-328.8" font-family="sans" font-size="10.00"> </text>
<text text-anchor="start" x="1637.5" y="-328.8" font-family="sans" font-weight="bold" font-size="14.00">output →</text>
<text text-anchor="start" x="1707.5" y="-328.8" font-family="sans" font-size="10.00"> </text>
<text text-anchor="start" x="1428.5" y="-309" font-family="monospace" font-size="10.00">procdata/methylation/preprocessedMETHYLATION.qs</text>
<polygon fill="#74d957" stroke="#74d957" points="1422.5,-383 1422.5,-383 1718.5,-383 1718.5,-383 1422.5,-383"/>
<polygon fill="#74d957" stroke="#74d957" points="1422.5,-343 1422.5,-343 1718.5,-343 1718.5,-343 1422.5,-343"/>
<polygon fill="none" stroke="#74d957" stroke-width="2" points="1422,-300 1422,-412 1717,-412 1717,-300 1422,-300"/>
</g>
<!-- 6&#45;&gt;0 -->
<g id="edge3" class="edge">
<title>6&#45;&gt;0</title>
<path fill="none" stroke="grey" stroke-width="2" d="M1651.86,-298.79C1687.4,-274.54 1730.21,-245.33 1771.41,-217.2"/>
<polygon fill="grey" stroke="grey" stroke-width="2" points="1773.62,-219.94 1779.9,-211.41 1769.67,-214.16 1773.62,-219.94"/>
</g>
<!-- 7 -->
<g id="node8" class="node">
<title>7</title>
<text text-anchor="start" x="1338" y="-605.6" font-family="sans" font-weight="bold" font-size="18.00">downloadMETHYLATION</text>
<text text-anchor="start" x="1142.5" y="-581.8" font-family="sans" font-size="10.00"> </text>
<text text-anchor="start" x="1146.5" y="-581.8" font-family="sans" font-weight="bold" font-size="14.00">↪ input</text>
<text text-anchor="start" x="1204.5" y="-581.8" font-family="sans" font-size="10.00"> </text>
<text text-anchor="start" x="1142.5" y="-562" font-family="monospace" font-size="10.00">www.cancerrxgene.org/gdsc1000/GDSC1000_WebResources//Data/preprocessed/methylation/METH_CELL_DATA.txt.zip</text>
<text text-anchor="start" x="1695.5" y="-541.8" font-family="sans" font-size="10.00"> </text>
<text text-anchor="start" x="1699.5" y="-541.8" font-family="sans" font-weight="bold" font-size="14.00">output →</text>
<text text-anchor="start" x="1769.5" y="-541.8" font-family="sans" font-size="10.00"> </text>
<text text-anchor="start" x="1142.5" y="-522" font-family="monospace" font-size="10.00">rawdata/methylation/METH_CELL_DATA.txt</text>
<polygon fill="#57d974" stroke="#57d974" points="1136.5,-596 1136.5,-596 1780.5,-596 1780.5,-596 1136.5,-596"/>
<polygon fill="#57d974" stroke="#57d974" points="1136.5,-556 1136.5,-556 1780.5,-556 1780.5,-556 1136.5,-556"/>
<polygon fill="none" stroke="#57d974" stroke-width="2" points="1136,-513 1136,-625 1779,-625 1779,-513 1136,-513"/>
</g>
<!-- 7&#45;&gt;6 -->
<g id="edge11" class="edge">
<title>7&#45;&gt;6</title>
<path fill="none" stroke="grey" stroke-width="2" d="M1487.37,-511.73C1501.99,-484.19 1519.67,-450.88 1534.87,-422.23"/>
<polygon fill="grey" stroke="grey" stroke-width="2" points="1538.12,-423.58 1539.72,-413.11 1531.94,-420.3 1538.12,-423.58"/>
</g>
<!-- 8 -->
<g id="node9" class="node">
<title>8</title>
<text text-anchor="start" x="1820.5" y="-410.6" font-family="sans" font-weight="bold" font-size="18.00">preprocessMUTATION</text>
<text text-anchor="start" x="1799.5" y="-386.8" font-family="sans" font-size="10.00"> </text>
<text text-anchor="start" x="1803.5" y="-386.8" font-family="sans" font-weight="bold" font-size="14.00">↪ input</text>
<text text-anchor="start" x="1861.5" y="-386.8" font-family="sans" font-size="10.00"> </text>
<text text-anchor="start" x="1799.5" y="-367" font-family="monospace" font-size="10.00">rawdata/mutation/WES_VCF</text>
<text text-anchor="start" x="1799.5" y="-349" font-family="monospace" font-size="10.00">rawdata/mutation/WGS_VCF</text>
<text text-anchor="start" x="1799.5" y="-331" font-family="monospace" font-size="10.00">rawdata/mutation/mutations_all_20230202.csv</text>
<text text-anchor="start" x="1980.5" y="-310.8" font-family="sans" font-size="10.00"> </text>
<text text-anchor="start" x="1984.5" y="-310.8" font-family="sans" font-weight="bold" font-size="14.00">output →</text>
<text text-anchor="start" x="2054.5" y="-310.8" font-family="sans" font-size="10.00"> </text>
<text text-anchor="start" x="1799.5" y="-291" font-family="monospace" font-size="10.00">procdata/mutation/preprocessedMUTATION.qs</text>
<polygon fill="#5774d9" stroke="#5774d9" points="1793.5,-401 1793.5,-401 2065.5,-401 2065.5,-401 1793.5,-401"/>
<polygon fill="#5774d9" stroke="#5774d9" points="1793.5,-325 1793.5,-325 2065.5,-325 2065.5,-325 1793.5,-325"/>
<polygon fill="none" stroke="#5774d9" stroke-width="2" points="1793,-282 1793,-430 2064,-430 2064,-282 1793,-282"/>
</g>
<!-- 8&#45;&gt;0 -->
<g id="edge7" class="edge">
<title>8&#45;&gt;0</title>
<path fill="none" stroke="grey" stroke-width="2" d="M1928.5,-280.83C1928.5,-264.34 1928.5,-246.47 1928.5,-228.71"/>
<polygon fill="grey" stroke="grey" stroke-width="2" points="1932,-228.27 1928.5,-218.27 1925,-228.27 1932,-228.27"/>
</g>
<!-- 9 -->
<g id="node10" class="node">
<title>9</title>
<text text-anchor="start" x="1833" y="-605.6" font-family="sans" font-weight="bold" font-size="18.00">downloadMUTATION_WGSData</text>
<text text-anchor="start" x="1805.5" y="-581.8" font-family="sans" font-size="10.00"> </text>
<text text-anchor="start" x="1809.5" y="-581.8" font-family="sans" font-weight="bold" font-size="14.00">↪ input</text>
<text text-anchor="start" x="1867.5" y="-581.8" font-family="sans" font-size="10.00"> </text>
<text text-anchor="start" x="1805.5" y="-562" font-family="monospace" font-size="10.00">cog.sanger.ac.uk/cmp/download/mutations_wgs_vcf_20221123.zip</text>
<text text-anchor="start" x="2088.5" y="-541.8" font-family="sans" font-size="10.00"> </text>
<text text-anchor="start" x="2092.5" y="-541.8" font-family="sans" font-weight="bold" font-size="14.00">output →</text>
<text text-anchor="start" x="2162.5" y="-541.8" font-family="sans" font-size="10.00"> </text>
<text text-anchor="start" x="1805.5" y="-522" font-family="monospace" font-size="10.00">rawdata/mutation/WGS_VCF</text>
<polygon fill="#d99157" stroke="#d99157" points="1799.5,-596 1799.5,-596 2173.5,-596 2173.5,-596 1799.5,-596"/>
<polygon fill="#d99157" stroke="#d99157" points="1799.5,-556 1799.5,-556 2173.5,-556 2173.5,-556 1799.5,-556"/>
<polygon fill="none" stroke="#d99157" stroke-width="2" points="1799,-513 1799,-625 2172,-625 2172,-513 1799,-513"/>
</g>
<!-- 9&#45;&gt;8 -->
<g id="edge14" class="edge">
<title>9&#45;&gt;8</title>
<path fill="none" stroke="grey" stroke-width="2" d="M1970.3,-511.73C1964.44,-490.06 1957.62,-464.81 1951.21,-441.07"/>
<polygon fill="grey" stroke="grey" stroke-width="2" points="1954.58,-440.1 1948.59,-431.36 1947.82,-441.93 1954.58,-440.1"/>
</g>
<!-- 10 -->
<g id="node11" class="node">
<title>10</title>
<text text-anchor="start" x="2227.5" y="-605.6" font-family="sans" font-weight="bold" font-size="18.00">downloadMUTATION_WESData</text>
<text text-anchor="start" x="2198.5" y="-581.8" font-family="sans" font-size="10.00"> </text>
<text text-anchor="start" x="2202.5" y="-581.8" font-family="sans" font-weight="bold" font-size="14.00">↪ input</text>
<text text-anchor="start" x="2260.5" y="-581.8" font-family="sans" font-size="10.00"> </text>
<text text-anchor="start" x="2198.5" y="-562" font-family="monospace" font-size="10.00">cog.sanger.ac.uk/cmp/download/mutations_wes_vcf_20221010.zip</text>
<text text-anchor="start" x="2481.5" y="-541.8" font-family="sans" font-size="10.00"> </text>
<text text-anchor="start" x="2485.5" y="-541.8" font-family="sans" font-weight="bold" font-size="14.00">output →</text>
<text text-anchor="start" x="2555.5" y="-541.8" font-family="sans" font-size="10.00"> </text>
<text text-anchor="start" x="2198.5" y="-522" font-family="monospace" font-size="10.00">rawdata/mutation/WES_VCF</text>
<polygon fill="#57d9ad" stroke="#57d9ad" points="2192.5,-596 2192.5,-596 2566.5,-596 2566.5,-596 2192.5,-596"/>
<polygon fill="#57d9ad" stroke="#57d9ad" points="2192.5,-556 2192.5,-556 2566.5,-556 2566.5,-556 2192.5,-556"/>
<polygon fill="none" stroke="#57d9ad" stroke-width="2" points="2192,-513 2192,-625 2565,-625 2565,-513 2192,-513"/>
</g>
<!-- 10&#45;&gt;8 -->
<g id="edge13" class="edge">
<title>10&#45;&gt;8</title>
<path fill="none" stroke="grey" stroke-width="2" d="M2231.84,-511.91C2215.23,-505.77 2198.52,-499.69 2182.5,-494 2134.82,-477.06 2119.76,-480.62 2074.5,-458 2061.84,-451.67 2049.03,-444.37 2036.53,-436.64"/>
<polygon fill="grey" stroke="grey" stroke-width="2" points="2038.25,-433.59 2027.92,-431.23 2034.52,-439.52 2038.25,-433.59"/>
</g>
<!-- 11 -->
<g id="node12" class="node">
<title>11</title>
<text text-anchor="start" x="2607.5" y="-605.6" font-family="sans" font-weight="bold" font-size="18.00">downloadMUTATION_summary</text>
<text text-anchor="start" x="2591.5" y="-581.8" font-family="sans" font-size="10.00"> </text>
<text text-anchor="start" x="2595.5" y="-581.8" font-family="sans" font-weight="bold" font-size="14.00">↪ input</text>
<text text-anchor="start" x="2653.5" y="-581.8" font-family="sans" font-size="10.00"> </text>
<text text-anchor="start" x="2591.5" y="-562" font-family="monospace" font-size="10.00">cog.sanger.ac.uk/cmp/download/mutations_all_20230202.zip</text>
<text text-anchor="start" x="2850.5" y="-541.8" font-family="sans" font-size="10.00"> </text>
<text text-anchor="start" x="2854.5" y="-541.8" font-family="sans" font-weight="bold" font-size="14.00">output →</text>
<text text-anchor="start" x="2924.5" y="-541.8" font-family="sans" font-size="10.00"> </text>
<text text-anchor="start" x="2591.5" y="-522" font-family="monospace" font-size="10.00">rawdata/mutation/mutations_all_20230202.csv</text>
<polygon fill="#cad957" stroke="#cad957" points="2585.5,-596 2585.5,-596 2935.5,-596 2935.5,-596 2585.5,-596"/>
<polygon fill="#cad957" stroke="#cad957" points="2585.5,-556 2585.5,-556 2935.5,-556 2935.5,-556 2585.5,-556"/>
<polygon fill="none" stroke="#cad957" stroke-width="2" points="2585,-513 2585,-625 2934,-625 2934,-513 2585,-513"/>
</g>
<!-- 11&#45;&gt;8 -->
<g id="edge12" class="edge">
<title>11&#45;&gt;8</title>
<path fill="none" stroke="grey" stroke-width="2" d="M2634.98,-511.92C2615.39,-504.86 2595.13,-498.53 2575.5,-494 2357.99,-443.75 2285.08,-532.12 2074.5,-458 2059.09,-452.58 2043.81,-445.07 2029.25,-436.57"/>
<polygon fill="grey" stroke="grey" stroke-width="2" points="2030.66,-433.34 2020.29,-431.17 2027.04,-439.33 2030.66,-433.34"/>
</g>
<!-- 12 -->
<g id="node13" class="node">
<title>12</title>
<text text-anchor="start" x="2171" y="-392.6" font-family="sans" font-weight="bold" font-size="18.00">downloadTreatmentMetadata</text>
<text text-anchor="start" x="2090.5" y="-368.8" font-family="sans" font-size="10.00"> </text>
<text text-anchor="start" x="2094.5" y="-368.8" font-family="sans" font-weight="bold" font-size="14.00">↪ input</text>
<text text-anchor="start" x="2152.5" y="-368.8" font-family="sans" font-size="10.00"> </text>
<text text-anchor="start" x="2090.5" y="-349" font-family="monospace" font-size="10.00">cog.sanger.ac.uk/cancerrxgene/GDSC_release8.5/screened_compounds_rel_8.5.csv</text>
<text text-anchor="start" x="2469.5" y="-328.8" font-family="sans" font-size="10.00"> </text>
<text text-anchor="start" x="2473.5" y="-328.8" font-family="sans" font-weight="bold" font-size="14.00">output →</text>
<text text-anchor="start" x="2543.5" y="-328.8" font-family="sans" font-size="10.00"> </text>
<text text-anchor="start" x="2090.5" y="-309" font-family="monospace" font-size="10.00">metadata/treatmentAnnotation.csv</text>
<polygon fill="#d9ad57" stroke="#d9ad57" points="2084.5,-383 2084.5,-383 2554.5,-383 2554.5,-383 2084.5,-383"/>
<polygon fill="#d9ad57" stroke="#d9ad57" points="2084.5,-343 2084.5,-343 2554.5,-343 2554.5,-343 2084.5,-343"/>
<polygon fill="none" stroke="#d9ad57" stroke-width="2" points="2084,-300 2084,-412 2553,-412 2553,-300 2084,-300"/>
</g>
<!-- 12&#45;&gt;0 -->
<g id="edge1" class="edge">
<title>12&#45;&gt;0</title>
<path fill="none" stroke="grey" stroke-width="2" d="M2229.03,-298.79C2186.6,-272.14 2134.63,-239.49 2085.91,-208.89"/>
<polygon fill="grey" stroke="grey" stroke-width="2" points="2087.51,-205.76 2077.18,-203.4 2083.78,-211.68 2087.51,-205.76"/>
</g>
<!-- 13 -->
<g id="node14" class="node">
<title>13</title>
<text text-anchor="start" x="2653.5" y="-392.6" font-family="sans" font-weight="bold" font-size="18.00">downloadSampleMetadata</text>
<text text-anchor="start" x="2579.5" y="-368.8" font-family="sans" font-size="10.00"> </text>
<text text-anchor="start" x="2583.5" y="-368.8" font-family="sans" font-weight="bold" font-size="14.00">↪ input</text>
<text text-anchor="start" x="2641.5" y="-368.8" font-family="sans" font-size="10.00"> </text>
<text text-anchor="start" x="2579.5" y="-349" font-family="monospace" font-size="10.00">cog.sanger.ac.uk/cancerrxgene/GDSC_release8.5/Cell_Lines_Details.xlsx</text>
<text text-anchor="start" x="2916.5" y="-328.8" font-family="sans" font-size="10.00"> </text>
<text text-anchor="start" x="2920.5" y="-328.8" font-family="sans" font-weight="bold" font-size="14.00">output →</text>
<text text-anchor="start" x="2990.5" y="-328.8" font-family="sans" font-size="10.00"> </text>
<text text-anchor="start" x="2579.5" y="-309" font-family="monospace" font-size="10.00">metadata/sampleAnnotation.csv</text>
<polygon fill="#57cad9" stroke="#57cad9" points="2573.5,-383 2573.5,-383 3001.5,-383 3001.5,-383 2573.5,-383"/>
<polygon fill="#57cad9" stroke="#57cad9" points="2573.5,-343 2573.5,-343 3001.5,-343 3001.5,-343 2573.5,-343"/>
<polygon fill="none" stroke="#57cad9" stroke-width="2" points="2573,-300 2573,-412 3000,-412 3000,-300 2573,-300"/>
</g>
<!-- 13&#45;&gt;0 -->
<g id="edge6" class="edge">
<title>13&#45;&gt;0</title>
<path fill="none" stroke="grey" stroke-width="2" d="M2674.55,-298.96C2639.58,-282.91 2600.46,-266.42 2563.5,-254 2404.76,-200.66 2217.1,-160.84 2087.14,-136.74"/>
<polygon fill="grey" stroke="grey" stroke-width="2" points="2087.58,-133.26 2077.11,-134.89 2086.31,-140.15 2087.58,-133.26"/>
</g>
<!-- 14 -->
<g id="node15" class="node">
<title>14</title>
<text text-anchor="start" x="3026.5" y="-410.6" font-family="sans" font-weight="bold" font-size="18.00">downloadCellModelPassportsMetadata</text>
<text text-anchor="start" x="3026.5" y="-386.8" font-family="sans" font-size="10.00"> </text>
<text text-anchor="start" x="3030.5" y="-386.8" font-family="sans" font-weight="bold" font-size="14.00">↪ input</text>
<text text-anchor="start" x="3088.5" y="-386.8" font-family="sans" font-size="10.00"> </text>
<text text-anchor="start" x="3026.5" y="-367" font-family="monospace" font-size="10.00">cog.sanger.ac.uk/cmp/download/gene_identifiers_20191101.csv</text>
<text text-anchor="start" x="3026.5" y="-349" font-family="monospace" font-size="10.00">cog.sanger.ac.uk/cmp/download/model_list_20230923.csv</text>
<text text-anchor="start" x="3337.5" y="-328.8" font-family="sans" font-size="10.00"> </text>
<text text-anchor="start" x="3341.5" y="-328.8" font-family="sans" font-weight="bold" font-size="14.00">output →</text>
<text text-anchor="start" x="3411.5" y="-328.8" font-family="sans" font-size="10.00"> </text>
<text text-anchor="start" x="3026.5" y="-309" font-family="monospace" font-size="10.00">metadata/cellModelPassportsAnnotation.csv</text>
<text text-anchor="start" x="3026.5" y="-291" font-family="monospace" font-size="10.00">metadata/cellmodelpassportsGeneAnnotation.csv</text>
<polygon fill="#57d9ca" stroke="#57d9ca" points="3020.5,-401 3020.5,-401 3422.5,-401 3422.5,-401 3020.5,-401"/>
<polygon fill="#57d9ca" stroke="#57d9ca" points="3020.5,-343 3020.5,-343 3422.5,-343 3422.5,-343 3020.5,-343"/>
<polygon fill="none" stroke="#57d9ca" stroke-width="2" points="3020,-282 3020,-430 3421,-430 3421,-282 3020,-282"/>
</g>
<!-- 14&#45;&gt;0 -->
<g id="edge5" class="edge">
<title>14&#45;&gt;0</title>
<path fill="none" stroke="grey" stroke-width="2" d="M3082.03,-280.89C3058.64,-270.57 3034.24,-261.09 3010.5,-254 2691.68,-158.75 2301.19,-126.42 2087.33,-115.51"/>
<polygon fill="grey" stroke="grey" stroke-width="2" points="2087.44,-112.01 2077.28,-115 2087.09,-119 2087.44,-112.01"/>
</g>
</g>
</svg>
