<?xml version="1.0" encoding="UTF-8" standalone="no"?>
<!DOCTYPE svg PUBLIC "-//W3C//DTD SVG 1.1//EN"
 "http://www.w3.org/Graphics/SVG/1.1/DTD/svg11.dtd">
<!-- Generated by graphviz version 2.43.0 (0)
 -->
<!-- Title: snakemake_dag Pages: 1 -->
<svg width="760pt" height="332pt"
 viewBox="0.00 0.00 760.00 332.00" xmlns="http://www.w3.org/2000/svg" xmlns:xlink="http://www.w3.org/1999/xlink">
<g id="graph0" class="graph" transform="scale(1 1) rotate(0) translate(4 328)">
<title>snakemake_dag</title>
<polygon fill="white" stroke="transparent" points="-4,4 -4,-328 756,-328 756,4 -4,4"/>
<!-- 0 -->
<g id="node1" class="node">
<title>0</title>
<path fill="none" stroke="#d8cb56" stroke-width="2" d="M393,-36C393,-36 307,-36 307,-36 301,-36 295,-30 295,-24 295,-24 295,-12 295,-12 295,-6 301,0 307,0 307,0 393,0 393,0 399,0 405,-6 405,-12 405,-12 405,-24 405,-24 405,-30 399,-36 393,-36"/>
<text text-anchor="middle" x="350" y="-15.5" font-family="sans" font-size="10.00">build_PharmacoSet</text>
</g>
<!-- 1 -->
<g id="node2" class="node">
<title>1</title>
<path fill="none" stroke="#d8b456" stroke-width="2" d="M402,-252C402,-252 298,-252 298,-252 292,-252 286,-246 286,-240 286,-240 286,-228 286,-228 286,-222 292,-216 298,-216 298,-216 402,-216 402,-216 408,-216 414,-222 414,-228 414,-228 414,-240 414,-240 414,-246 408,-252 402,-252"/>
<text text-anchor="middle" x="350" y="-231.5" font-family="sans" font-size="10.00">preprocess_METADATA</text>
</g>
<!-- 1&#45;&gt;0 -->
<g id="edge3" class="edge">
<title>1&#45;&gt;0</title>
<path fill="none" stroke="grey" stroke-width="2" d="M350,-215.85C350,-178.83 350,-91.18 350,-46.39"/>
<polygon fill="grey" stroke="grey" stroke-width="2" points="353.5,-46.23 350,-36.23 346.5,-46.23 353.5,-46.23"/>
</g>
<!-- 7 -->
<g id="node8" class="node">
<title>7</title>
<path fill="none" stroke="#56d8d0" stroke-width="2" d="M176,-180C176,-180 104,-180 104,-180 98,-180 92,-174 92,-168 92,-168 92,-156 92,-156 92,-150 98,-144 104,-144 104,-144 176,-144 176,-144 182,-144 188,-150 188,-156 188,-156 188,-168 188,-168 188,-174 182,-180 176,-180"/>
<text text-anchor="middle" x="140" y="-159.5" font-family="sans" font-size="10.00">preprocess_CNV</text>
</g>
<!-- 1&#45;&gt;7 -->
<g id="edge12" class="edge">
<title>1&#45;&gt;7</title>
<path fill="none" stroke="grey" stroke-width="2" d="M298.9,-215.97C268.31,-205.77 229.35,-192.78 197.67,-182.22"/>
<polygon fill="grey" stroke="grey" stroke-width="2" points="198.68,-178.87 188.08,-179.03 196.46,-185.51 198.68,-178.87"/>
</g>
<!-- 10 -->
<g id="node11" class="node">
<title>10</title>
<path fill="none" stroke="#97d856" stroke-width="2" d="M310,-180C310,-180 218,-180 218,-180 212,-180 206,-174 206,-168 206,-168 206,-156 206,-156 206,-150 212,-144 218,-144 218,-144 310,-144 310,-144 316,-144 322,-150 322,-156 322,-156 322,-168 322,-168 322,-174 316,-180 310,-180"/>
<text text-anchor="middle" x="264" y="-159.5" font-family="sans" font-size="10.00">preprocess_RNASEQ</text>
</g>
<!-- 1&#45;&gt;10 -->
<g id="edge15" class="edge">
<title>1&#45;&gt;10</title>
<path fill="none" stroke="grey" stroke-width="2" d="M328.74,-215.7C317.91,-206.88 304.58,-196.03 292.84,-186.47"/>
<polygon fill="grey" stroke="grey" stroke-width="2" points="294.98,-183.7 285.01,-180.1 290.56,-189.13 294.98,-183.7"/>
</g>
<!-- 13 -->
<g id="node14" class="node">
<title>13</title>
<path fill="none" stroke="#56d89a" stroke-width="2" d="M479.5,-180C479.5,-180 390.5,-180 390.5,-180 384.5,-180 378.5,-174 378.5,-168 378.5,-168 378.5,-156 378.5,-156 378.5,-150 384.5,-144 390.5,-144 390.5,-144 479.5,-144 479.5,-144 485.5,-144 491.5,-150 491.5,-156 491.5,-156 491.5,-168 491.5,-168 491.5,-174 485.5,-180 479.5,-180"/>
<text text-anchor="middle" x="435" y="-159.5" font-family="sans" font-size="10.00">preprocess_FUSION</text>
</g>
<!-- 1&#45;&gt;13 -->
<g id="edge17" class="edge">
<title>1&#45;&gt;13</title>
<path fill="none" stroke="grey" stroke-width="2" d="M371.01,-215.7C381.72,-206.88 394.89,-196.03 406.5,-186.47"/>
<polygon fill="grey" stroke="grey" stroke-width="2" points="408.74,-189.16 414.23,-180.1 404.29,-183.76 408.74,-189.16"/>
</g>
<!-- 16 -->
<g id="node17" class="node">
<title>16</title>
<path fill="none" stroke="#56d863" stroke-width="2" d="M624.5,-180C624.5,-180 521.5,-180 521.5,-180 515.5,-180 509.5,-174 509.5,-168 509.5,-168 509.5,-156 509.5,-156 509.5,-150 515.5,-144 521.5,-144 521.5,-144 624.5,-144 624.5,-144 630.5,-144 636.5,-150 636.5,-156 636.5,-156 636.5,-168 636.5,-168 636.5,-174 630.5,-180 624.5,-180"/>
<text text-anchor="middle" x="573" y="-159.5" font-family="sans" font-size="10.00">preprocess_MUTATION</text>
</g>
<!-- 1&#45;&gt;16 -->
<g id="edge21" class="edge">
<title>1&#45;&gt;16</title>
<path fill="none" stroke="grey" stroke-width="2" d="M404.27,-215.97C435.83,-206.06 475.79,-193.51 508.9,-183.12"/>
<polygon fill="grey" stroke="grey" stroke-width="2" points="510,-186.45 518.49,-180.11 507.9,-179.77 510,-186.45"/>
</g>
<!-- 2 -->
<g id="node3" class="node">
<title>2</title>
<path fill="none" stroke="#d8a456" stroke-width="2" d="M139.5,-324C139.5,-324 16.5,-324 16.5,-324 10.5,-324 4.5,-318 4.5,-312 4.5,-312 4.5,-300 4.5,-300 4.5,-294 10.5,-288 16.5,-288 16.5,-288 139.5,-288 139.5,-288 145.5,-288 151.5,-294 151.5,-300 151.5,-300 151.5,-312 151.5,-312 151.5,-318 145.5,-324 139.5,-324"/>
<text text-anchor="middle" x="78" y="-303.5" font-family="sans" font-size="10.00">downloadSampleMetadata</text>
</g>
<!-- 2&#45;&gt;1 -->
<g id="edge8" class="edge">
<title>2&#45;&gt;1</title>
<path fill="none" stroke="grey" stroke-width="2" d="M144.19,-287.97C184.08,-277.7 234.96,-264.61 276.15,-254"/>
<polygon fill="grey" stroke="grey" stroke-width="2" points="277.05,-257.39 285.86,-251.51 275.3,-250.61 277.05,-257.39"/>
</g>
<!-- 3 -->
<g id="node4" class="node">
<title>3</title>
<path fill="none" stroke="#56c9d8" stroke-width="2" d="M318,-324C318,-324 182,-324 182,-324 176,-324 170,-318 170,-312 170,-312 170,-300 170,-300 170,-294 176,-288 182,-288 182,-288 318,-288 318,-288 324,-288 330,-294 330,-300 330,-300 330,-312 330,-312 330,-318 324,-324 318,-324"/>
<text text-anchor="middle" x="250" y="-303.5" font-family="sans" font-size="10.00">downloadTreatmentMetadata</text>
</g>
<!-- 3&#45;&gt;1 -->
<g id="edge9" class="edge">
<title>3&#45;&gt;1</title>
<path fill="none" stroke="grey" stroke-width="2" d="M274.46,-287.88C287.3,-278.89 303.2,-267.76 317.09,-258.03"/>
<polygon fill="grey" stroke="grey" stroke-width="2" points="319.26,-260.79 325.44,-252.19 315.24,-255.06 319.26,-260.79"/>
</g>
<!-- 4 -->
<g id="node5" class="node">
<title>4</title>
<path fill="none" stroke="#d86656" stroke-width="2" d="M542,-324C542,-324 360,-324 360,-324 354,-324 348,-318 348,-312 348,-312 348,-300 348,-300 348,-294 354,-288 360,-288 360,-288 542,-288 542,-288 548,-288 554,-294 554,-300 554,-300 554,-312 554,-312 554,-318 548,-324 542,-324"/>
<text text-anchor="middle" x="451" y="-303.5" font-family="sans" font-size="10.00">downloadCellModelPassportsMetadata</text>
</g>
<!-- 4&#45;&gt;1 -->
<g id="edge7" class="edge">
<title>4&#45;&gt;1</title>
<path fill="none" stroke="grey" stroke-width="2" d="M426.29,-287.88C413.33,-278.89 397.27,-267.76 383.23,-258.03"/>
<polygon fill="grey" stroke="grey" stroke-width="2" points="385.02,-255.01 374.8,-252.19 381.03,-260.76 385.02,-255.01"/>
</g>
<!-- 5 -->
<g id="node6" class="node">
<title>5</title>
<path fill="none" stroke="#56a2d8" stroke-width="2" d="M740,-324C740,-324 584,-324 584,-324 578,-324 572,-318 572,-312 572,-312 572,-300 572,-300 572,-294 578,-288 584,-288 584,-288 740,-288 740,-288 746,-288 752,-294 752,-300 752,-300 752,-312 752,-312 752,-318 746,-324 740,-324"/>
<text text-anchor="middle" x="662" y="-303.5" font-family="sans" font-size="10.00">gencode_getGENCODEannotation</text>
</g>
<!-- 5&#45;&gt;1 -->
<g id="edge6" class="edge">
<title>5&#45;&gt;1</title>
<path fill="none" stroke="grey" stroke-width="2" d="M584.8,-287.94C538.21,-277.62 477.67,-264.14 424,-252 423.9,-251.98 423.8,-251.95 423.7,-251.93"/>
<polygon fill="grey" stroke="grey" stroke-width="2" points="424.7,-248.57 414.17,-249.77 423.15,-255.4 424.7,-248.57"/>
</g>
<!-- 6 -->
<g id="node7" class="node">
<title>6</title>
<path fill="none" stroke="#56d8a9" stroke-width="2" d="M176.5,-108C176.5,-108 113.5,-108 113.5,-108 107.5,-108 101.5,-102 101.5,-96 101.5,-96 101.5,-84 101.5,-84 101.5,-78 107.5,-72 113.5,-72 113.5,-72 176.5,-72 176.5,-72 182.5,-72 188.5,-78 188.5,-84 188.5,-84 188.5,-96 188.5,-96 188.5,-102 182.5,-108 176.5,-108"/>
<text text-anchor="middle" x="145" y="-87.5" font-family="sans" font-size="10.00">make_CNV_SE</text>
</g>
<!-- 6&#45;&gt;0 -->
<g id="edge4" class="edge">
<title>6&#45;&gt;0</title>
<path fill="none" stroke="grey" stroke-width="2" d="M188.73,-74.07C218.25,-63.99 257.59,-50.56 290.02,-39.48"/>
<polygon fill="grey" stroke="grey" stroke-width="2" points="291.52,-42.67 299.85,-36.12 289.25,-36.04 291.52,-42.67"/>
</g>
<!-- 7&#45;&gt;6 -->
<g id="edge10" class="edge">
<title>7&#45;&gt;6</title>
<path fill="none" stroke="grey" stroke-width="2" d="M141.24,-143.7C141.79,-135.98 142.45,-126.71 143.06,-118.11"/>
<polygon fill="grey" stroke="grey" stroke-width="2" points="146.56,-118.33 143.78,-108.1 139.57,-117.83 146.56,-118.33"/>
</g>
<!-- 8 -->
<g id="node9" class="node">
<title>8</title>
<path fill="none" stroke="#88d856" stroke-width="2" d="M128,-252C128,-252 12,-252 12,-252 6,-252 0,-246 0,-240 0,-240 0,-228 0,-228 0,-222 6,-216 12,-216 12,-216 128,-216 128,-216 134,-216 140,-222 140,-228 140,-228 140,-240 140,-240 140,-246 134,-252 128,-252"/>
<text text-anchor="middle" x="70" y="-231.5" font-family="sans" font-size="10.00">download_CNV_WESData</text>
</g>
<!-- 8&#45;&gt;7 -->
<g id="edge11" class="edge">
<title>8&#45;&gt;7</title>
<path fill="none" stroke="grey" stroke-width="2" d="M87.3,-215.7C95.86,-207.14 106.34,-196.66 115.7,-187.3"/>
<polygon fill="grey" stroke="grey" stroke-width="2" points="118.3,-189.65 122.9,-180.1 113.35,-184.7 118.3,-189.65"/>
</g>
<!-- 9 -->
<g id="node10" class="node">
<title>9</title>
<path fill="none" stroke="#d85656" stroke-width="2" d="M307.5,-108C307.5,-108 224.5,-108 224.5,-108 218.5,-108 212.5,-102 212.5,-96 212.5,-96 212.5,-84 212.5,-84 212.5,-78 218.5,-72 224.5,-72 224.5,-72 307.5,-72 307.5,-72 313.5,-72 319.5,-78 319.5,-84 319.5,-84 319.5,-96 319.5,-96 319.5,-102 313.5,-108 307.5,-108"/>
<text text-anchor="middle" x="266" y="-87.5" font-family="sans" font-size="10.00">make_RNASEQ_SE</text>
</g>
<!-- 9&#45;&gt;0 -->
<g id="edge1" class="edge">
<title>9&#45;&gt;0</title>
<path fill="none" stroke="grey" stroke-width="2" d="M286.76,-71.7C297.24,-62.97 310.11,-52.24 321.5,-42.75"/>
<polygon fill="grey" stroke="grey" stroke-width="2" points="324.03,-45.19 329.47,-36.1 319.55,-39.82 324.03,-45.19"/>
</g>
<!-- 10&#45;&gt;9 -->
<g id="edge13" class="edge">
<title>10&#45;&gt;9</title>
<path fill="none" stroke="grey" stroke-width="2" d="M264.49,-143.7C264.71,-135.98 264.98,-126.71 265.23,-118.11"/>
<polygon fill="grey" stroke="grey" stroke-width="2" points="268.72,-118.2 265.51,-108.1 261.73,-118 268.72,-118.2"/>
</g>
<!-- 11 -->
<g id="node12" class="node">
<title>11</title>
<path fill="none" stroke="#61d856" stroke-width="2" d="M256,-252C256,-252 170,-252 170,-252 164,-252 158,-246 158,-240 158,-240 158,-228 158,-228 158,-222 164,-216 170,-216 170,-216 256,-216 256,-216 262,-216 268,-222 268,-228 268,-228 268,-240 268,-240 268,-246 262,-252 256,-252"/>
<text text-anchor="middle" x="213" y="-231.5" font-family="sans" font-size="10.00">download_RNASEQ</text>
</g>
<!-- 11&#45;&gt;10 -->
<g id="edge14" class="edge">
<title>11&#45;&gt;10</title>
<path fill="none" stroke="grey" stroke-width="2" d="M225.61,-215.7C231.6,-207.47 238.88,-197.48 245.48,-188.42"/>
<polygon fill="grey" stroke="grey" stroke-width="2" points="248.48,-190.25 251.54,-180.1 242.82,-186.13 248.48,-190.25"/>
</g>
<!-- 12 -->
<g id="node13" class="node">
<title>12</title>
<path fill="none" stroke="#567bd8" stroke-width="2" d="M472,-108C472,-108 392,-108 392,-108 386,-108 380,-102 380,-96 380,-96 380,-84 380,-84 380,-78 386,-72 392,-72 392,-72 472,-72 472,-72 478,-72 484,-78 484,-84 484,-84 484,-96 484,-96 484,-102 478,-108 472,-108"/>
<text text-anchor="middle" x="432" y="-87.5" font-family="sans" font-size="10.00">make_FUSION_SE</text>
</g>
<!-- 12&#45;&gt;0 -->
<g id="edge5" class="edge">
<title>12&#45;&gt;0</title>
<path fill="none" stroke="grey" stroke-width="2" d="M411.73,-71.7C401.5,-62.97 388.94,-52.24 377.82,-42.75"/>
<polygon fill="grey" stroke="grey" stroke-width="2" points="379.91,-39.94 370.04,-36.1 375.37,-45.26 379.91,-39.94"/>
</g>
<!-- 13&#45;&gt;12 -->
<g id="edge16" class="edge">
<title>13&#45;&gt;12</title>
<path fill="none" stroke="grey" stroke-width="2" d="M434.26,-143.7C433.93,-135.98 433.53,-126.71 433.16,-118.11"/>
<polygon fill="grey" stroke="grey" stroke-width="2" points="436.66,-117.95 432.73,-108.1 429.66,-118.25 436.66,-117.95"/>
</g>
<!-- 14 -->
<g id="node15" class="node">
<title>14</title>
<path fill="none" stroke="#56b9d8" stroke-width="2" d="M527.5,-252C527.5,-252 444.5,-252 444.5,-252 438.5,-252 432.5,-246 432.5,-240 432.5,-240 432.5,-228 432.5,-228 432.5,-222 438.5,-216 444.5,-216 444.5,-216 527.5,-216 527.5,-216 533.5,-216 539.5,-222 539.5,-228 539.5,-228 539.5,-240 539.5,-240 539.5,-246 533.5,-252 527.5,-252"/>
<text text-anchor="middle" x="486" y="-231.5" font-family="sans" font-size="10.00">download_FUSION</text>
</g>
<!-- 14&#45;&gt;13 -->
<g id="edge18" class="edge">
<title>14&#45;&gt;13</title>
<path fill="none" stroke="grey" stroke-width="2" d="M473.39,-215.7C467.4,-207.47 460.12,-197.48 453.52,-188.42"/>
<polygon fill="grey" stroke="grey" stroke-width="2" points="456.18,-186.13 447.46,-180.1 450.52,-190.25 456.18,-186.13"/>
</g>
<!-- 15 -->
<g id="node16" class="node">
<title>15</title>
<path fill="none" stroke="#d88d56" stroke-width="2" d="M614,-108C614,-108 520,-108 520,-108 514,-108 508,-102 508,-96 508,-96 508,-84 508,-84 508,-78 514,-72 520,-72 520,-72 614,-72 614,-72 620,-72 626,-78 626,-84 626,-84 626,-96 626,-96 626,-102 620,-108 614,-108"/>
<text text-anchor="middle" x="567" y="-87.5" font-family="sans" font-size="10.00">make_MUTATION_SE</text>
</g>
<!-- 15&#45;&gt;0 -->
<g id="edge2" class="edge">
<title>15&#45;&gt;0</title>
<path fill="none" stroke="grey" stroke-width="2" d="M514.19,-71.97C483.61,-62.1 444.93,-49.62 412.79,-39.25"/>
<polygon fill="grey" stroke="grey" stroke-width="2" points="413.64,-35.85 403.04,-36.11 411.49,-42.51 413.64,-35.85"/>
</g>
<!-- 16&#45;&gt;15 -->
<g id="edge19" class="edge">
<title>16&#45;&gt;15</title>
<path fill="none" stroke="grey" stroke-width="2" d="M571.52,-143.7C570.86,-135.98 570.06,-126.71 569.32,-118.11"/>
<polygon fill="grey" stroke="grey" stroke-width="2" points="572.81,-117.77 568.47,-108.1 565.83,-118.37 572.81,-117.77"/>
</g>
<!-- 17 -->
<g id="node18" class="node">
<title>17</title>
<path fill="none" stroke="#d87d56" stroke-width="2" d="M722,-252C722,-252 570,-252 570,-252 564,-252 558,-246 558,-240 558,-240 558,-228 558,-228 558,-222 564,-216 570,-216 570,-216 722,-216 722,-216 728,-216 734,-222 734,-228 734,-228 734,-240 734,-240 734,-246 728,-252 722,-252"/>
<text text-anchor="middle" x="646" y="-231.5" font-family="sans" font-size="10.00">download_MUTATION_processed</text>
</g>
<!-- 17&#45;&gt;16 -->
<g id="edge20" class="edge">
<title>17&#45;&gt;16</title>
<path fill="none" stroke="grey" stroke-width="2" d="M627.96,-215.7C618.94,-207.05 607.88,-196.45 598.06,-187.03"/>
<polygon fill="grey" stroke="grey" stroke-width="2" points="600.48,-184.5 590.84,-180.1 595.63,-189.55 600.48,-184.5"/>
</g>
</g>
</svg>
