<?xml version="1.0" encoding="UTF-8" standalone="no"?>
<!DOCTYPE svg PUBLIC "-//W3C//DTD SVG 1.1//EN"
 "http://www.w3.org/Graphics/SVG/1.1/DTD/svg11.dtd">
<!-- Generated by graphviz version 2.43.0 (0)
 -->
<!-- Title: snakemake_dag Pages: 1 -->
<svg width="971pt" height="332pt"
 viewBox="0.00 0.00 971.00 332.00" xmlns="http://www.w3.org/2000/svg" xmlns:xlink="http://www.w3.org/1999/xlink">
<g id="graph0" class="graph" transform="scale(1 1) rotate(0) translate(4 328)">
<title>snakemake_dag</title>
<polygon fill="white" stroke="transparent" points="-4,4 -4,-328 967,-328 967,4 -4,4"/>
<!-- 0 -->
<g id="node1" class="node">
<title>0</title>
<path fill="none" stroke="#56a2d8" stroke-width="2" d="M387.5,-36C387.5,-36 301.5,-36 301.5,-36 295.5,-36 289.5,-30 289.5,-24 289.5,-24 289.5,-12 289.5,-12 289.5,-6 295.5,0 301.5,0 301.5,0 387.5,0 387.5,0 393.5,0 399.5,-6 399.5,-12 399.5,-12 399.5,-24 399.5,-24 399.5,-30 393.5,-36 387.5,-36"/>
<text text-anchor="middle" x="344.5" y="-15.5" font-family="sans" font-size="10.00">build_PharmacoSet</text>
</g>
<!-- 1 -->
<g id="node2" class="node">
<title>1</title>
<path fill="none" stroke="#56d873" stroke-width="2" d="M297.5,-252C297.5,-252 193.5,-252 193.5,-252 187.5,-252 181.5,-246 181.5,-240 181.5,-240 181.5,-228 181.5,-228 181.5,-222 187.5,-216 193.5,-216 193.5,-216 297.5,-216 297.5,-216 303.5,-216 309.5,-222 309.5,-228 309.5,-228 309.5,-240 309.5,-240 309.5,-246 303.5,-252 297.5,-252"/>
<text text-anchor="middle" x="245.5" y="-231.5" font-family="sans" font-size="10.00">preprocess_METADATA</text>
</g>
<!-- 1&#45;&gt;0 -->
<g id="edge5" class="edge">
<title>1&#45;&gt;0</title>
<path fill="none" stroke="grey" stroke-width="2" d="M234.87,-215.56C229.4,-205.54 223.3,-192.51 220.5,-180 215.24,-156.53 225.28,-73.73 226.5,-72 239.21,-54.04 259.48,-42.06 279.66,-34.12"/>
<polygon fill="grey" stroke="grey" stroke-width="2" points="281.01,-37.35 289.21,-30.64 278.61,-30.78 281.01,-37.35"/>
</g>
<!-- 6 -->
<g id="node7" class="node">
<title>6</title>
<path fill="none" stroke="#d6d856" stroke-width="2" d="M313.5,-180C313.5,-180 241.5,-180 241.5,-180 235.5,-180 229.5,-174 229.5,-168 229.5,-168 229.5,-156 229.5,-156 229.5,-150 235.5,-144 241.5,-144 241.5,-144 313.5,-144 313.5,-144 319.5,-144 325.5,-150 325.5,-156 325.5,-156 325.5,-168 325.5,-168 325.5,-174 319.5,-180 313.5,-180"/>
<text text-anchor="middle" x="277.5" y="-159.5" font-family="sans" font-size="10.00">preprocess_CNV</text>
</g>
<!-- 1&#45;&gt;6 -->
<g id="edge11" class="edge">
<title>1&#45;&gt;6</title>
<path fill="none" stroke="grey" stroke-width="2" d="M253.41,-215.7C257.05,-207.73 261.45,-198.1 265.49,-189.26"/>
<polygon fill="grey" stroke="grey" stroke-width="2" points="268.71,-190.65 269.68,-180.1 262.34,-187.74 268.71,-190.65"/>
</g>
<!-- 8 -->
<g id="node9" class="node">
<title>8</title>
<path fill="none" stroke="#d8bc56" stroke-width="2" d="M161.5,-180C161.5,-180 69.5,-180 69.5,-180 63.5,-180 57.5,-174 57.5,-168 57.5,-168 57.5,-156 57.5,-156 57.5,-150 63.5,-144 69.5,-144 69.5,-144 161.5,-144 161.5,-144 167.5,-144 173.5,-150 173.5,-156 173.5,-156 173.5,-168 173.5,-168 173.5,-174 167.5,-180 161.5,-180"/>
<text text-anchor="middle" x="115.5" y="-159.5" font-family="sans" font-size="10.00">preprocess_RNASEQ</text>
</g>
<!-- 1&#45;&gt;8 -->
<g id="edge14" class="edge">
<title>1&#45;&gt;8</title>
<path fill="none" stroke="grey" stroke-width="2" d="M213.7,-215.88C196.39,-206.55 174.78,-194.92 156.24,-184.94"/>
<polygon fill="grey" stroke="grey" stroke-width="2" points="157.89,-181.85 147.42,-180.19 154.57,-188.01 157.89,-181.85"/>
</g>
<!-- 13 -->
<g id="node14" class="node">
<title>13</title>
<path fill="none" stroke="#568ad8" stroke-width="2" d="M459,-180C459,-180 356,-180 356,-180 350,-180 344,-174 344,-168 344,-168 344,-156 344,-156 344,-150 350,-144 356,-144 356,-144 459,-144 459,-144 465,-144 471,-150 471,-156 471,-156 471,-168 471,-168 471,-174 465,-180 459,-180"/>
<text text-anchor="middle" x="407.5" y="-159.5" font-family="sans" font-size="10.00">preprocess_MUTATION</text>
</g>
<!-- 1&#45;&gt;13 -->
<g id="edge18" class="edge">
<title>1&#45;&gt;13</title>
<path fill="none" stroke="grey" stroke-width="2" d="M285.13,-215.88C307.28,-206.31 335.06,-194.3 358.56,-184.15"/>
<polygon fill="grey" stroke="grey" stroke-width="2" points="360.21,-187.25 368,-180.07 357.43,-180.82 360.21,-187.25"/>
</g>
<!-- 16 -->
<g id="node17" class="node">
<title>16</title>
<path fill="none" stroke="#56d88a" stroke-width="2" d="M590,-180C590,-180 501,-180 501,-180 495,-180 489,-174 489,-168 489,-168 489,-156 489,-156 489,-150 495,-144 501,-144 501,-144 590,-144 590,-144 596,-144 602,-150 602,-156 602,-156 602,-168 602,-168 602,-174 596,-180 590,-180"/>
<text text-anchor="middle" x="545.5" y="-159.5" font-family="sans" font-size="10.00">preprocess_FUSION</text>
</g>
<!-- 1&#45;&gt;16 -->
<g id="edge21" class="edge">
<title>1&#45;&gt;16</title>
<path fill="none" stroke="grey" stroke-width="2" d="M309.59,-218.04C312.6,-217.35 315.58,-216.67 318.5,-216 386.91,-200.39 406.55,-197.39 478.61,-180.17"/>
<polygon fill="grey" stroke="grey" stroke-width="2" points="479.74,-183.5 488.65,-177.77 478.11,-176.7 479.74,-183.5"/>
</g>
<!-- 2 -->
<g id="node3" class="node">
<title>2</title>
<path fill="none" stroke="#59d856" stroke-width="2" d="M135,-324C135,-324 12,-324 12,-324 6,-324 0,-318 0,-312 0,-312 0,-300 0,-300 0,-294 6,-288 12,-288 12,-288 135,-288 135,-288 141,-288 147,-294 147,-300 147,-300 147,-312 147,-312 147,-318 141,-324 135,-324"/>
<text text-anchor="middle" x="73.5" y="-303.5" font-family="sans" font-size="10.00">downloadSampleMetadata</text>
</g>
<!-- 2&#45;&gt;1 -->
<g id="edge8" class="edge">
<title>2&#45;&gt;1</title>
<path fill="none" stroke="grey" stroke-width="2" d="M115.58,-287.88C139.3,-278.22 169.12,-266.09 194.2,-255.88"/>
<polygon fill="grey" stroke="grey" stroke-width="2" points="195.62,-259.08 203.56,-252.07 192.98,-252.6 195.62,-259.08"/>
</g>
<!-- 3 -->
<g id="node4" class="node">
<title>3</title>
<path fill="none" stroke="#70d856" stroke-width="2" d="M313.5,-324C313.5,-324 177.5,-324 177.5,-324 171.5,-324 165.5,-318 165.5,-312 165.5,-312 165.5,-300 165.5,-300 165.5,-294 171.5,-288 177.5,-288 177.5,-288 313.5,-288 313.5,-288 319.5,-288 325.5,-294 325.5,-300 325.5,-300 325.5,-312 325.5,-312 325.5,-318 319.5,-324 313.5,-324"/>
<text text-anchor="middle" x="245.5" y="-303.5" font-family="sans" font-size="10.00">downloadTreatmentMetadata</text>
</g>
<!-- 3&#45;&gt;1 -->
<g id="edge9" class="edge">
<title>3&#45;&gt;1</title>
<path fill="none" stroke="grey" stroke-width="2" d="M245.5,-287.7C245.5,-279.98 245.5,-270.71 245.5,-262.11"/>
<polygon fill="grey" stroke="grey" stroke-width="2" points="249,-262.1 245.5,-252.1 242,-262.1 249,-262.1"/>
</g>
<!-- 4 -->
<g id="node5" class="node">
<title>4</title>
<path fill="none" stroke="#88d856" stroke-width="2" d="M537.5,-324C537.5,-324 355.5,-324 355.5,-324 349.5,-324 343.5,-318 343.5,-312 343.5,-312 343.5,-300 343.5,-300 343.5,-294 349.5,-288 355.5,-288 355.5,-288 537.5,-288 537.5,-288 543.5,-288 549.5,-294 549.5,-300 549.5,-300 549.5,-312 549.5,-312 549.5,-318 543.5,-324 537.5,-324"/>
<text text-anchor="middle" x="446.5" y="-303.5" font-family="sans" font-size="10.00">downloadCellModelPassportsMetadata</text>
</g>
<!-- 4&#45;&gt;1 -->
<g id="edge7" class="edge">
<title>4&#45;&gt;1</title>
<path fill="none" stroke="grey" stroke-width="2" d="M397.59,-287.97C369.5,-278.19 334.04,-265.84 304.43,-255.52"/>
<polygon fill="grey" stroke="grey" stroke-width="2" points="305.23,-252.09 294.63,-252.11 302.93,-258.71 305.23,-252.09"/>
</g>
<!-- 5 -->
<g id="node6" class="node">
<title>5</title>
<path fill="none" stroke="#bed856" stroke-width="2" d="M311,-108C311,-108 248,-108 248,-108 242,-108 236,-102 236,-96 236,-96 236,-84 236,-84 236,-78 242,-72 248,-72 248,-72 311,-72 311,-72 317,-72 323,-78 323,-84 323,-84 323,-96 323,-96 323,-102 317,-108 311,-108"/>
<text text-anchor="middle" x="279.5" y="-87.5" font-family="sans" font-size="10.00">make_CNV_SE</text>
</g>
<!-- 5&#45;&gt;0 -->
<g id="edge6" class="edge">
<title>5&#45;&gt;0</title>
<path fill="none" stroke="grey" stroke-width="2" d="M295.57,-71.7C303.44,-63.22 313.06,-52.86 321.67,-43.58"/>
<polygon fill="grey" stroke="grey" stroke-width="2" points="324.38,-45.81 328.62,-36.1 319.25,-41.05 324.38,-45.81"/>
</g>
<!-- 6&#45;&gt;5 -->
<g id="edge10" class="edge">
<title>6&#45;&gt;5</title>
<path fill="none" stroke="grey" stroke-width="2" d="M277.99,-143.7C278.21,-135.98 278.48,-126.71 278.73,-118.11"/>
<polygon fill="grey" stroke="grey" stroke-width="2" points="282.22,-118.2 279.01,-108.1 275.23,-118 282.22,-118.2"/>
</g>
<!-- 7 -->
<g id="node8" class="node">
<title>7</title>
<path fill="none" stroke="#d8a456" stroke-width="2" d="M159,-108C159,-108 76,-108 76,-108 70,-108 64,-102 64,-96 64,-96 64,-84 64,-84 64,-78 70,-72 76,-72 76,-72 159,-72 159,-72 165,-72 171,-78 171,-84 171,-84 171,-96 171,-96 171,-102 165,-108 159,-108"/>
<text text-anchor="middle" x="117.5" y="-87.5" font-family="sans" font-size="10.00">make_RNASEQ_SE</text>
</g>
<!-- 7&#45;&gt;0 -->
<g id="edge2" class="edge">
<title>7&#45;&gt;0</title>
<path fill="none" stroke="grey" stroke-width="2" d="M171.01,-72.5C203.46,-62.49 245.09,-49.66 279.44,-39.06"/>
<polygon fill="grey" stroke="grey" stroke-width="2" points="280.85,-42.29 289.38,-36 278.79,-35.6 280.85,-42.29"/>
</g>
<!-- 8&#45;&gt;7 -->
<g id="edge12" class="edge">
<title>8&#45;&gt;7</title>
<path fill="none" stroke="grey" stroke-width="2" d="M115.99,-143.7C116.21,-135.98 116.48,-126.71 116.73,-118.11"/>
<polygon fill="grey" stroke="grey" stroke-width="2" points="120.22,-118.2 117.01,-108.1 113.23,-118 120.22,-118.2"/>
</g>
<!-- 9 -->
<g id="node10" class="node">
<title>9</title>
<path fill="none" stroke="#5673d8" stroke-width="2" d="M151.5,-252C151.5,-252 65.5,-252 65.5,-252 59.5,-252 53.5,-246 53.5,-240 53.5,-240 53.5,-228 53.5,-228 53.5,-222 59.5,-216 65.5,-216 65.5,-216 151.5,-216 151.5,-216 157.5,-216 163.5,-222 163.5,-228 163.5,-228 163.5,-240 163.5,-240 163.5,-246 157.5,-252 151.5,-252"/>
<text text-anchor="middle" x="108.5" y="-231.5" font-family="sans" font-size="10.00">download_RNASEQ</text>
</g>
<!-- 9&#45;&gt;8 -->
<g id="edge13" class="edge">
<title>9&#45;&gt;8</title>
<path fill="none" stroke="grey" stroke-width="2" d="M110.23,-215.7C111,-207.98 111.93,-198.71 112.79,-190.11"/>
<polygon fill="grey" stroke="grey" stroke-width="2" points="116.28,-190.4 113.79,-180.1 109.31,-189.71 116.28,-190.4"/>
</g>
<!-- 10 -->
<g id="node11" class="node">
<title>10</title>
<path fill="none" stroke="#56d8c1" stroke-width="2" d="M751,-180C751,-180 632,-180 632,-180 626,-180 620,-174 620,-168 620,-168 620,-156 620,-156 620,-150 626,-144 632,-144 632,-144 751,-144 751,-144 757,-144 763,-150 763,-156 763,-156 763,-168 763,-168 763,-174 757,-180 751,-180"/>
<text text-anchor="middle" x="691.5" y="-159.5" font-family="sans" font-size="10.00">load_MicroArrayMetadata</text>
</g>
<!-- 18 -->
<g id="node19" class="node">
<title>18</title>
<path fill="none" stroke="#56d8a2" stroke-width="2" d="M793.5,-108C793.5,-108 689.5,-108 689.5,-108 683.5,-108 677.5,-102 677.5,-96 677.5,-96 677.5,-84 677.5,-84 677.5,-78 683.5,-72 689.5,-72 689.5,-72 793.5,-72 793.5,-72 799.5,-72 805.5,-78 805.5,-84 805.5,-84 805.5,-96 805.5,-96 805.5,-102 799.5,-108 793.5,-108"/>
<text text-anchor="middle" x="741.5" y="-87.5" font-family="sans" font-size="10.00">preprocess_MicroArray</text>
</g>
<!-- 10&#45;&gt;18 -->
<g id="edge23" class="edge">
<title>10&#45;&gt;18</title>
<path fill="none" stroke="grey" stroke-width="2" d="M703.86,-143.7C709.73,-135.47 716.87,-125.48 723.34,-116.42"/>
<polygon fill="grey" stroke="grey" stroke-width="2" points="726.32,-118.28 729.28,-108.1 720.62,-114.21 726.32,-118.28"/>
</g>
<!-- 11 -->
<g id="node12" class="node">
<title>11</title>
<path fill="none" stroke="#d85656" stroke-width="2" d="M833,-252C833,-252 688,-252 688,-252 682,-252 676,-246 676,-240 676,-240 676,-228 676,-228 676,-222 682,-216 688,-216 688,-216 833,-216 833,-216 839,-216 845,-222 845,-228 845,-228 845,-240 845,-240 845,-246 839,-252 833,-252"/>
<text text-anchor="middle" x="760.5" y="-231.5" font-family="sans" font-size="10.00">download_MicroArrayMetadata</text>
</g>
<!-- 11&#45;&gt;10 -->
<g id="edge15" class="edge">
<title>11&#45;&gt;10</title>
<path fill="none" stroke="grey" stroke-width="2" d="M743.44,-215.7C735,-207.14 724.68,-196.66 715.46,-187.3"/>
<polygon fill="grey" stroke="grey" stroke-width="2" points="717.87,-184.77 708.36,-180.1 712.89,-189.68 717.87,-184.77"/>
</g>
<!-- 11&#45;&gt;18 -->
<g id="edge22" class="edge">
<title>11&#45;&gt;18</title>
<path fill="none" stroke="grey" stroke-width="2" d="M766.84,-215.67C772.55,-197.54 779.11,-168.38 772.5,-144 769.92,-134.48 765.16,-124.92 760.12,-116.59"/>
<polygon fill="grey" stroke="grey" stroke-width="2" points="763.01,-114.6 754.65,-108.09 757.12,-118.39 763.01,-114.6"/>
</g>
<!-- 12 -->
<g id="node13" class="node">
<title>12</title>
<path fill="none" stroke="#a7d856" stroke-width="2" d="M450.5,-108C450.5,-108 356.5,-108 356.5,-108 350.5,-108 344.5,-102 344.5,-96 344.5,-96 344.5,-84 344.5,-84 344.5,-78 350.5,-72 356.5,-72 356.5,-72 450.5,-72 450.5,-72 456.5,-72 462.5,-78 462.5,-84 462.5,-84 462.5,-96 462.5,-96 462.5,-102 456.5,-108 450.5,-108"/>
<text text-anchor="middle" x="403.5" y="-87.5" font-family="sans" font-size="10.00">make_MUTATION_SE</text>
</g>
<!-- 12&#45;&gt;0 -->
<g id="edge3" class="edge">
<title>12&#45;&gt;0</title>
<path fill="none" stroke="grey" stroke-width="2" d="M388.92,-71.7C381.84,-63.3 373.22,-53.07 365.45,-43.86"/>
<polygon fill="grey" stroke="grey" stroke-width="2" points="368.04,-41.49 358.92,-36.1 362.69,-46.01 368.04,-41.49"/>
</g>
<!-- 13&#45;&gt;12 -->
<g id="edge16" class="edge">
<title>13&#45;&gt;12</title>
<path fill="none" stroke="grey" stroke-width="2" d="M406.51,-143.7C406.07,-135.98 405.54,-126.71 405.05,-118.11"/>
<polygon fill="grey" stroke="grey" stroke-width="2" points="408.54,-117.89 404.48,-108.1 401.55,-118.29 408.54,-117.89"/>
</g>
<!-- 14 -->
<g id="node15" class="node">
<title>14</title>
<path fill="none" stroke="#d88d56" stroke-width="2" d="M491.5,-252C491.5,-252 339.5,-252 339.5,-252 333.5,-252 327.5,-246 327.5,-240 327.5,-240 327.5,-228 327.5,-228 327.5,-222 333.5,-216 339.5,-216 339.5,-216 491.5,-216 491.5,-216 497.5,-216 503.5,-222 503.5,-228 503.5,-228 503.5,-240 503.5,-240 503.5,-246 497.5,-252 491.5,-252"/>
<text text-anchor="middle" x="415.5" y="-231.5" font-family="sans" font-size="10.00">download_MUTATION_processed</text>
</g>
<!-- 14&#45;&gt;13 -->
<g id="edge17" class="edge">
<title>14&#45;&gt;13</title>
<path fill="none" stroke="grey" stroke-width="2" d="M413.52,-215.7C412.64,-207.98 411.58,-198.71 410.6,-190.11"/>
<polygon fill="grey" stroke="grey" stroke-width="2" points="414.07,-189.64 409.45,-180.1 407.11,-190.44 414.07,-189.64"/>
</g>
<!-- 15 -->
<g id="node16" class="node">
<title>15</title>
<path fill="none" stroke="#d86e56" stroke-width="2" d="M579.5,-108C579.5,-108 499.5,-108 499.5,-108 493.5,-108 487.5,-102 487.5,-96 487.5,-96 487.5,-84 487.5,-84 487.5,-78 493.5,-72 499.5,-72 499.5,-72 579.5,-72 579.5,-72 585.5,-72 591.5,-78 591.5,-84 591.5,-84 591.5,-96 591.5,-96 591.5,-102 585.5,-108 579.5,-108"/>
<text text-anchor="middle" x="539.5" y="-87.5" font-family="sans" font-size="10.00">make_FUSION_SE</text>
</g>
<!-- 15&#45;&gt;0 -->
<g id="edge1" class="edge">
<title>15&#45;&gt;0</title>
<path fill="none" stroke="grey" stroke-width="2" d="M491.8,-71.88C464.55,-62.09 430.2,-49.77 401.53,-39.47"/>
<polygon fill="grey" stroke="grey" stroke-width="2" points="402.64,-36.15 392.05,-36.07 400.28,-42.74 402.64,-36.15"/>
</g>
<!-- 16&#45;&gt;15 -->
<g id="edge19" class="edge">
<title>16&#45;&gt;15</title>
<path fill="none" stroke="grey" stroke-width="2" d="M544.02,-143.7C543.36,-135.98 542.56,-126.71 541.82,-118.11"/>
<polygon fill="grey" stroke="grey" stroke-width="2" points="545.31,-117.77 540.97,-108.1 538.33,-118.37 545.31,-117.77"/>
</g>
<!-- 17 -->
<g id="node18" class="node">
<title>17</title>
<path fill="none" stroke="#56d8d8" stroke-width="2" d="M616,-252C616,-252 533,-252 533,-252 527,-252 521,-246 521,-240 521,-240 521,-228 521,-228 521,-222 527,-216 533,-216 533,-216 616,-216 616,-216 622,-216 628,-222 628,-228 628,-228 628,-240 628,-240 628,-246 622,-252 616,-252"/>
<text text-anchor="middle" x="574.5" y="-231.5" font-family="sans" font-size="10.00">download_FUSION</text>
</g>
<!-- 17&#45;&gt;16 -->
<g id="edge20" class="edge">
<title>17&#45;&gt;16</title>
<path fill="none" stroke="grey" stroke-width="2" d="M567.33,-215.7C564.07,-207.81 560.13,-198.3 556.5,-189.55"/>
<polygon fill="grey" stroke="grey" stroke-width="2" points="559.65,-188 552.59,-180.1 553.18,-190.68 559.65,-188"/>
</g>
<!-- 18&#45;&gt;0 -->
<g id="edge4" class="edge">
<title>18&#45;&gt;0</title>
<path fill="none" stroke="grey" stroke-width="2" d="M677.27,-77.68C603.71,-64.7 483.82,-43.56 409.8,-30.51"/>
<polygon fill="grey" stroke="grey" stroke-width="2" points="410.13,-27.02 399.67,-28.73 408.91,-33.91 410.13,-27.02"/>
</g>
<!-- 19 -->
<g id="node20" class="node">
<title>19</title>
<path fill="none" stroke="#56c1d8" stroke-width="2" d="M951,-180C951,-180 832,-180 832,-180 826,-180 820,-174 820,-168 820,-168 820,-156 820,-156 820,-150 826,-144 832,-144 832,-144 951,-144 951,-144 957,-144 963,-150 963,-156 963,-156 963,-168 963,-168 963,-174 957,-180 951,-180"/>
<text text-anchor="middle" x="891.5" y="-159.5" font-family="sans" font-size="10.00">download_MicroArrayFILE</text>
</g>
<!-- 19&#45;&gt;18 -->
<g id="edge24" class="edge">
<title>19&#45;&gt;18</title>
<path fill="none" stroke="grey" stroke-width="2" d="M854.81,-143.88C834.48,-134.39 809.03,-122.51 787.4,-112.42"/>
<polygon fill="grey" stroke="grey" stroke-width="2" points="788.62,-109.13 778.07,-108.07 785.66,-115.47 788.62,-109.13"/>
</g>
</g>
</svg>
