<?xml version="1.0" encoding="UTF-8" standalone="no"?>
<!DOCTYPE svg PUBLIC "-//W3C//DTD SVG 1.1//EN"
 "http://www.w3.org/Graphics/SVG/1.1/DTD/svg11.dtd">
<!-- Generated by graphviz version 2.43.0 (0)
 -->
<!-- Title: snakemake_dag Pages: 1 -->
<svg width="638pt" height="332pt"
 viewBox="0.00 0.00 637.50 332.00" xmlns="http://www.w3.org/2000/svg" xmlns:xlink="http://www.w3.org/1999/xlink">
<g id="graph0" class="graph" transform="scale(1 1) rotate(0) translate(4 328)">
<title>snakemake_dag</title>
<polygon fill="white" stroke="transparent" points="-4,4 -4,-328 633.5,-328 633.5,4 -4,4"/>
<!-- 0 -->
<g id="node1" class="node">
<title>0</title>
<path fill="none" stroke="#56a2d8" stroke-width="2" d="M339.5,-36C339.5,-36 253.5,-36 253.5,-36 247.5,-36 241.5,-30 241.5,-24 241.5,-24 241.5,-12 241.5,-12 241.5,-6 247.5,0 253.5,0 253.5,0 339.5,0 339.5,0 345.5,0 351.5,-6 351.5,-12 351.5,-12 351.5,-24 351.5,-24 351.5,-30 345.5,-36 339.5,-36"/>
<text text-anchor="middle" x="296.5" y="-15.5" font-family="sans" font-size="10.00">build_PharmacoSet</text>
</g>
<!-- 1 -->
<g id="node2" class="node">
<title>1</title>
<path fill="none" stroke="#88d856" stroke-width="2" d="M297.5,-252C297.5,-252 193.5,-252 193.5,-252 187.5,-252 181.5,-246 181.5,-240 181.5,-240 181.5,-228 181.5,-228 181.5,-222 187.5,-216 193.5,-216 193.5,-216 297.5,-216 297.5,-216 303.5,-216 309.5,-222 309.5,-228 309.5,-228 309.5,-240 309.5,-240 309.5,-246 303.5,-252 297.5,-252"/>
<text text-anchor="middle" x="245.5" y="-231.5" font-family="sans" font-size="10.00">preprocess_METADATA</text>
</g>
<!-- 1&#45;&gt;0 -->
<g id="edge5" class="edge">
<title>1&#45;&gt;0</title>
<path fill="none" stroke="grey" stroke-width="2" d="M258.48,-215.79C265.29,-205.85 273.11,-192.81 277.5,-180 292.92,-135.03 296.26,-79.32 296.75,-46.61"/>
<polygon fill="grey" stroke="grey" stroke-width="2" points="300.25,-46.47 296.82,-36.45 293.25,-46.42 300.25,-46.47"/>
</g>
<!-- 6 -->
<g id="node7" class="node">
<title>6</title>
<path fill="none" stroke="#59d856" stroke-width="2" d="M256.5,-180C256.5,-180 184.5,-180 184.5,-180 178.5,-180 172.5,-174 172.5,-168 172.5,-168 172.5,-156 172.5,-156 172.5,-150 178.5,-144 184.5,-144 184.5,-144 256.5,-144 256.5,-144 262.5,-144 268.5,-150 268.5,-156 268.5,-156 268.5,-168 268.5,-168 268.5,-174 262.5,-180 256.5,-180"/>
<text text-anchor="middle" x="220.5" y="-159.5" font-family="sans" font-size="10.00">preprocess_CNV</text>
</g>
<!-- 1&#45;&gt;6 -->
<g id="edge10" class="edge">
<title>1&#45;&gt;6</title>
<path fill="none" stroke="grey" stroke-width="2" d="M239.32,-215.7C236.5,-207.81 233.11,-198.3 229.98,-189.55"/>
<polygon fill="grey" stroke="grey" stroke-width="2" points="233.27,-188.34 226.61,-180.1 226.68,-190.7 233.27,-188.34"/>
</g>
<!-- 8 -->
<g id="node9" class="node">
<title>8</title>
<path fill="none" stroke="#70d856" stroke-width="2" d="M142.5,-180C142.5,-180 50.5,-180 50.5,-180 44.5,-180 38.5,-174 38.5,-168 38.5,-168 38.5,-156 38.5,-156 38.5,-150 44.5,-144 50.5,-144 50.5,-144 142.5,-144 142.5,-144 148.5,-144 154.5,-150 154.5,-156 154.5,-156 154.5,-168 154.5,-168 154.5,-174 148.5,-180 142.5,-180"/>
<text text-anchor="middle" x="96.5" y="-159.5" font-family="sans" font-size="10.00">preprocess_RNASEQ</text>
</g>
<!-- 1&#45;&gt;8 -->
<g id="edge12" class="edge">
<title>1&#45;&gt;8</title>
<path fill="none" stroke="grey" stroke-width="2" d="M209.05,-215.88C188.86,-206.39 163.58,-194.51 142.09,-184.42"/>
<polygon fill="grey" stroke="grey" stroke-width="2" points="143.37,-181.15 132.83,-180.07 140.39,-187.49 143.37,-181.15"/>
</g>
<!-- 11 -->
<g id="node12" class="node">
<title>11</title>
<path fill="none" stroke="#56c1d8" stroke-width="2" d="M426,-180C426,-180 337,-180 337,-180 331,-180 325,-174 325,-168 325,-168 325,-156 325,-156 325,-150 331,-144 337,-144 337,-144 426,-144 426,-144 432,-144 438,-150 438,-156 438,-156 438,-168 438,-168 438,-174 432,-180 426,-180"/>
<text text-anchor="middle" x="381.5" y="-159.5" font-family="sans" font-size="10.00">preprocess_FUSION</text>
</g>
<!-- 1&#45;&gt;11 -->
<g id="edge16" class="edge">
<title>1&#45;&gt;11</title>
<path fill="none" stroke="grey" stroke-width="2" d="M278.77,-215.88C296.96,-206.51 319.69,-194.81 339.14,-184.8"/>
<polygon fill="grey" stroke="grey" stroke-width="2" points="340.81,-187.88 348.1,-180.19 337.61,-181.65 340.81,-187.88"/>
</g>
<!-- 14 -->
<g id="node15" class="node">
<title>14</title>
<path fill="none" stroke="#56d8a2" stroke-width="2" d="M571,-180C571,-180 468,-180 468,-180 462,-180 456,-174 456,-168 456,-168 456,-156 456,-156 456,-150 462,-144 468,-144 468,-144 571,-144 571,-144 577,-144 583,-150 583,-156 583,-156 583,-168 583,-168 583,-174 577,-180 571,-180"/>
<text text-anchor="middle" x="519.5" y="-159.5" font-family="sans" font-size="10.00">preprocess_MUTATION</text>
</g>
<!-- 1&#45;&gt;14 -->
<g id="edge18" class="edge">
<title>1&#45;&gt;14</title>
<path fill="none" stroke="grey" stroke-width="2" d="M309.74,-216.59C350.54,-206.17 403.46,-192.65 445.94,-181.79"/>
<polygon fill="grey" stroke="grey" stroke-width="2" points="446.84,-185.18 455.66,-179.31 445.11,-178.39 446.84,-185.18"/>
</g>
<!-- 2 -->
<g id="node3" class="node">
<title>2</title>
<path fill="none" stroke="#bed856" stroke-width="2" d="M135,-324C135,-324 12,-324 12,-324 6,-324 0,-318 0,-312 0,-312 0,-300 0,-300 0,-294 6,-288 12,-288 12,-288 135,-288 135,-288 141,-288 147,-294 147,-300 147,-300 147,-312 147,-312 147,-318 141,-324 135,-324"/>
<text text-anchor="middle" x="73.5" y="-303.5" font-family="sans" font-size="10.00">downloadSampleMetadata</text>
</g>
<!-- 2&#45;&gt;1 -->
<g id="edge8" class="edge">
<title>2&#45;&gt;1</title>
<path fill="none" stroke="grey" stroke-width="2" d="M115.58,-287.88C139.3,-278.22 169.12,-266.09 194.2,-255.88"/>
<polygon fill="grey" stroke="grey" stroke-width="2" points="195.62,-259.08 203.56,-252.07 192.98,-252.6 195.62,-259.08"/>
</g>
<!-- 3 -->
<g id="node4" class="node">
<title>3</title>
<path fill="none" stroke="#d8a456" stroke-width="2" d="M313.5,-324C313.5,-324 177.5,-324 177.5,-324 171.5,-324 165.5,-318 165.5,-312 165.5,-312 165.5,-300 165.5,-300 165.5,-294 171.5,-288 177.5,-288 177.5,-288 313.5,-288 313.5,-288 319.5,-288 325.5,-294 325.5,-300 325.5,-300 325.5,-312 325.5,-312 325.5,-318 319.5,-324 313.5,-324"/>
<text text-anchor="middle" x="245.5" y="-303.5" font-family="sans" font-size="10.00">downloadTreatmentMetadata</text>
</g>
<!-- 3&#45;&gt;1 -->
<g id="edge7" class="edge">
<title>3&#45;&gt;1</title>
<path fill="none" stroke="grey" stroke-width="2" d="M245.5,-287.7C245.5,-279.98 245.5,-270.71 245.5,-262.11"/>
<polygon fill="grey" stroke="grey" stroke-width="2" points="249,-262.1 245.5,-252.1 242,-262.1 249,-262.1"/>
</g>
<!-- 4 -->
<g id="node5" class="node">
<title>4</title>
<path fill="none" stroke="#568ad8" stroke-width="2" d="M537.5,-324C537.5,-324 355.5,-324 355.5,-324 349.5,-324 343.5,-318 343.5,-312 343.5,-312 343.5,-300 343.5,-300 343.5,-294 349.5,-288 355.5,-288 355.5,-288 537.5,-288 537.5,-288 543.5,-288 549.5,-294 549.5,-300 549.5,-300 549.5,-312 549.5,-312 549.5,-318 543.5,-324 537.5,-324"/>
<text text-anchor="middle" x="446.5" y="-303.5" font-family="sans" font-size="10.00">downloadCellModelPassportsMetadata</text>
</g>
<!-- 4&#45;&gt;1 -->
<g id="edge6" class="edge">
<title>4&#45;&gt;1</title>
<path fill="none" stroke="grey" stroke-width="2" d="M397.59,-287.97C369.5,-278.19 334.04,-265.84 304.43,-255.52"/>
<polygon fill="grey" stroke="grey" stroke-width="2" points="305.23,-252.09 294.63,-252.11 302.93,-258.71 305.23,-252.09"/>
</g>
<!-- 5 -->
<g id="node6" class="node">
<title>5</title>
<path fill="none" stroke="#d6d856" stroke-width="2" d="M254,-108C254,-108 191,-108 191,-108 185,-108 179,-102 179,-96 179,-96 179,-84 179,-84 179,-78 185,-72 191,-72 191,-72 254,-72 254,-72 260,-72 266,-78 266,-84 266,-84 266,-96 266,-96 266,-102 260,-108 254,-108"/>
<text text-anchor="middle" x="222.5" y="-87.5" font-family="sans" font-size="10.00">make_CNV_SE</text>
</g>
<!-- 5&#45;&gt;0 -->
<g id="edge2" class="edge">
<title>5&#45;&gt;0</title>
<path fill="none" stroke="grey" stroke-width="2" d="M240.79,-71.7C249.93,-63.05 261.14,-52.45 271.1,-43.03"/>
<polygon fill="grey" stroke="grey" stroke-width="2" points="273.56,-45.52 278.42,-36.1 268.75,-40.43 273.56,-45.52"/>
</g>
<!-- 6&#45;&gt;5 -->
<g id="edge9" class="edge">
<title>6&#45;&gt;5</title>
<path fill="none" stroke="grey" stroke-width="2" d="M220.99,-143.7C221.21,-135.98 221.48,-126.71 221.73,-118.11"/>
<polygon fill="grey" stroke="grey" stroke-width="2" points="225.22,-118.2 222.01,-108.1 218.23,-118 225.22,-118.2"/>
</g>
<!-- 7 -->
<g id="node8" class="node">
<title>7</title>
<path fill="none" stroke="#56d8c1" stroke-width="2" d="M143,-108C143,-108 60,-108 60,-108 54,-108 48,-102 48,-96 48,-96 48,-84 48,-84 48,-78 54,-72 60,-72 60,-72 143,-72 143,-72 149,-72 155,-78 155,-84 155,-84 155,-96 155,-96 155,-102 149,-108 143,-108"/>
<text text-anchor="middle" x="101.5" y="-87.5" font-family="sans" font-size="10.00">make_RNASEQ_SE</text>
</g>
<!-- 7&#45;&gt;0 -->
<g id="edge1" class="edge">
<title>7&#45;&gt;0</title>
<path fill="none" stroke="grey" stroke-width="2" d="M149.2,-71.88C176.45,-62.09 210.8,-49.77 239.47,-39.47"/>
<polygon fill="grey" stroke="grey" stroke-width="2" points="240.72,-42.74 248.95,-36.07 238.36,-36.15 240.72,-42.74"/>
</g>
<!-- 8&#45;&gt;7 -->
<g id="edge11" class="edge">
<title>8&#45;&gt;7</title>
<path fill="none" stroke="grey" stroke-width="2" d="M97.74,-143.7C98.29,-135.98 98.95,-126.71 99.56,-118.11"/>
<polygon fill="grey" stroke="grey" stroke-width="2" points="103.06,-118.33 100.28,-108.1 96.07,-117.83 103.06,-118.33"/>
</g>
<!-- 9 -->
<g id="node10" class="node">
<title>9</title>
<path fill="none" stroke="#d86e56" stroke-width="2" d="M139.5,-252C139.5,-252 53.5,-252 53.5,-252 47.5,-252 41.5,-246 41.5,-240 41.5,-240 41.5,-228 41.5,-228 41.5,-222 47.5,-216 53.5,-216 53.5,-216 139.5,-216 139.5,-216 145.5,-216 151.5,-222 151.5,-228 151.5,-228 151.5,-240 151.5,-240 151.5,-246 145.5,-252 139.5,-252"/>
<text text-anchor="middle" x="96.5" y="-231.5" font-family="sans" font-size="10.00">download_RNASEQ</text>
</g>
<!-- 9&#45;&gt;8 -->
<g id="edge13" class="edge">
<title>9&#45;&gt;8</title>
<path fill="none" stroke="grey" stroke-width="2" d="M96.5,-215.7C96.5,-207.98 96.5,-198.71 96.5,-190.11"/>
<polygon fill="grey" stroke="grey" stroke-width="2" points="100,-190.1 96.5,-180.1 93,-190.1 100,-190.1"/>
</g>
<!-- 10 -->
<g id="node11" class="node">
<title>10</title>
<path fill="none" stroke="#5673d8" stroke-width="2" d="M418.5,-108C418.5,-108 338.5,-108 338.5,-108 332.5,-108 326.5,-102 326.5,-96 326.5,-96 326.5,-84 326.5,-84 326.5,-78 332.5,-72 338.5,-72 338.5,-72 418.5,-72 418.5,-72 424.5,-72 430.5,-78 430.5,-84 430.5,-84 430.5,-96 430.5,-96 430.5,-102 424.5,-108 418.5,-108"/>
<text text-anchor="middle" x="378.5" y="-87.5" font-family="sans" font-size="10.00">make_FUSION_SE</text>
</g>
<!-- 10&#45;&gt;0 -->
<g id="edge4" class="edge">
<title>10&#45;&gt;0</title>
<path fill="none" stroke="grey" stroke-width="2" d="M358.23,-71.7C348,-62.97 335.44,-52.24 324.32,-42.75"/>
<polygon fill="grey" stroke="grey" stroke-width="2" points="326.41,-39.94 316.54,-36.1 321.87,-45.26 326.41,-39.94"/>
</g>
<!-- 11&#45;&gt;10 -->
<g id="edge14" class="edge">
<title>11&#45;&gt;10</title>
<path fill="none" stroke="grey" stroke-width="2" d="M380.76,-143.7C380.43,-135.98 380.03,-126.71 379.66,-118.11"/>
<polygon fill="grey" stroke="grey" stroke-width="2" points="383.16,-117.95 379.23,-108.1 376.16,-118.25 383.16,-117.95"/>
</g>
<!-- 12 -->
<g id="node13" class="node">
<title>12</title>
<path fill="none" stroke="#d88d56" stroke-width="2" d="M423,-252C423,-252 340,-252 340,-252 334,-252 328,-246 328,-240 328,-240 328,-228 328,-228 328,-222 334,-216 340,-216 340,-216 423,-216 423,-216 429,-216 435,-222 435,-228 435,-228 435,-240 435,-240 435,-246 429,-252 423,-252"/>
<text text-anchor="middle" x="381.5" y="-231.5" font-family="sans" font-size="10.00">download_FUSION</text>
</g>
<!-- 12&#45;&gt;11 -->
<g id="edge15" class="edge">
<title>12&#45;&gt;11</title>
<path fill="none" stroke="grey" stroke-width="2" d="M381.5,-215.7C381.5,-207.98 381.5,-198.71 381.5,-190.11"/>
<polygon fill="grey" stroke="grey" stroke-width="2" points="385,-190.1 381.5,-180.1 378,-190.1 385,-190.1"/>
</g>
<!-- 13 -->
<g id="node14" class="node">
<title>13</title>
<path fill="none" stroke="#56d8d8" stroke-width="2" d="M560.5,-108C560.5,-108 466.5,-108 466.5,-108 460.5,-108 454.5,-102 454.5,-96 454.5,-96 454.5,-84 454.5,-84 454.5,-78 460.5,-72 466.5,-72 466.5,-72 560.5,-72 560.5,-72 566.5,-72 572.5,-78 572.5,-84 572.5,-84 572.5,-96 572.5,-96 572.5,-102 566.5,-108 560.5,-108"/>
<text text-anchor="middle" x="513.5" y="-87.5" font-family="sans" font-size="10.00">make_MUTATION_SE</text>
</g>
<!-- 13&#45;&gt;0 -->
<g id="edge3" class="edge">
<title>13&#45;&gt;0</title>
<path fill="none" stroke="grey" stroke-width="2" d="M460.69,-71.97C430.11,-62.1 391.43,-49.62 359.29,-39.25"/>
<polygon fill="grey" stroke="grey" stroke-width="2" points="360.14,-35.85 349.54,-36.11 357.99,-42.51 360.14,-35.85"/>
</g>
<!-- 14&#45;&gt;13 -->
<g id="edge17" class="edge">
<title>14&#45;&gt;13</title>
<path fill="none" stroke="grey" stroke-width="2" d="M518.02,-143.7C517.36,-135.98 516.56,-126.71 515.82,-118.11"/>
<polygon fill="grey" stroke="grey" stroke-width="2" points="519.31,-117.77 514.97,-108.1 512.33,-118.37 519.31,-117.77"/>
</g>
<!-- 15 -->
<g id="node16" class="node">
<title>15</title>
<path fill="none" stroke="#56d873" stroke-width="2" d="M617.5,-252C617.5,-252 465.5,-252 465.5,-252 459.5,-252 453.5,-246 453.5,-240 453.5,-240 453.5,-228 453.5,-228 453.5,-222 459.5,-216 465.5,-216 465.5,-216 617.5,-216 617.5,-216 623.5,-216 629.5,-222 629.5,-228 629.5,-228 629.5,-240 629.5,-240 629.5,-246 623.5,-252 617.5,-252"/>
<text text-anchor="middle" x="541.5" y="-231.5" font-family="sans" font-size="10.00">download_MUTATION_processed</text>
</g>
<!-- 15&#45;&gt;14 -->
<g id="edge19" class="edge">
<title>15&#45;&gt;14</title>
<path fill="none" stroke="grey" stroke-width="2" d="M536.06,-215.7C533.61,-207.9 530.66,-198.51 527.93,-189.83"/>
<polygon fill="grey" stroke="grey" stroke-width="2" points="531.21,-188.59 524.88,-180.1 524.54,-190.69 531.21,-188.59"/>
</g>
</g>
</svg>
