<?xml version="1.0" encoding="UTF-8" standalone="no"?>
<!DOCTYPE svg PUBLIC "-//W3C//DTD SVG 1.1//EN"
 "http://www.w3.org/Graphics/SVG/1.1/DTD/svg11.dtd">
<!-- Generated by graphviz version 2.43.0 (0)
 -->
<!-- Title: snakemake_dag Pages: 1 -->
<svg width="1057pt" height="332pt"
 viewBox="0.00 0.00 1056.50 332.00" xmlns="http://www.w3.org/2000/svg" xmlns:xlink="http://www.w3.org/1999/xlink">
<g id="graph0" class="graph" transform="scale(1 1) rotate(0) translate(4 328)">
<title>snakemake_dag</title>
<polygon fill="white" stroke="transparent" points="-4,4 -4,-328 1052.5,-328 1052.5,4 -4,4"/>
<!-- 0 -->
<g id="node1" class="node">
<title>0</title>
<path fill="none" stroke="#d6d856" stroke-width="2" d="M515,-36C515,-36 429,-36 429,-36 423,-36 417,-30 417,-24 417,-24 417,-12 417,-12 417,-6 423,0 429,0 429,0 515,0 515,0 521,0 527,-6 527,-12 527,-12 527,-24 527,-24 527,-30 521,-36 515,-36"/>
<text text-anchor="middle" x="472" y="-15.5" font-family="sans" font-size="10.00">build_PharmacoSet</text>
</g>
<!-- 1 -->
<g id="node2" class="node">
<title>1</title>
<path fill="none" stroke="#bed856" stroke-width="2" d="M479,-252C479,-252 387,-252 387,-252 381,-252 375,-246 375,-240 375,-240 375,-228 375,-228 375,-222 381,-216 387,-216 387,-216 479,-216 479,-216 485,-216 491,-222 491,-228 491,-228 491,-240 491,-240 491,-246 485,-252 479,-252"/>
<text text-anchor="middle" x="433" y="-231.5" font-family="sans" font-size="10.00">preprocessMetadata</text>
</g>
<!-- 1&#45;&gt;0 -->
<g id="edge1" class="edge">
<title>1&#45;&gt;0</title>
<path fill="none" stroke="grey" stroke-width="2" d="M444.73,-215.9C451.31,-205.78 459.31,-192.53 465,-180 478.89,-149.41 482.83,-141.19 488,-108 490.46,-92.19 490.34,-87.83 488,-72 486.72,-63.35 484.33,-54.15 481.78,-45.89"/>
<polygon fill="grey" stroke="grey" stroke-width="2" points="485.1,-44.78 478.65,-36.37 478.45,-46.96 485.1,-44.78"/>
</g>
<!-- 7 -->
<g id="node8" class="node">
<title>7</title>
<path fill="none" stroke="#88d856" stroke-width="2" d="M148,-180C148,-180 54,-180 54,-180 48,-180 42,-174 42,-168 42,-168 42,-156 42,-156 42,-150 48,-144 54,-144 54,-144 148,-144 148,-144 154,-144 160,-150 160,-156 160,-156 160,-168 160,-168 160,-174 154,-180 148,-180"/>
<text text-anchor="middle" x="101" y="-159.5" font-family="sans" font-size="10.00">make_MUTATION_SE</text>
</g>
<!-- 1&#45;&gt;7 -->
<g id="edge12" class="edge">
<title>1&#45;&gt;7</title>
<path fill="none" stroke="grey" stroke-width="2" d="M374.9,-222.15C323.49,-212.36 246.23,-197.2 170.06,-180.19"/>
<polygon fill="grey" stroke="grey" stroke-width="2" points="170.82,-176.77 160.3,-178 169.29,-183.6 170.82,-176.77"/>
</g>
<!-- 9 -->
<g id="node10" class="node">
<title>9</title>
<path fill="none" stroke="#70d856" stroke-width="2" d="M362.5,-108C362.5,-108 279.5,-108 279.5,-108 273.5,-108 267.5,-102 267.5,-96 267.5,-96 267.5,-84 267.5,-84 267.5,-78 273.5,-72 279.5,-72 279.5,-72 362.5,-72 362.5,-72 368.5,-72 374.5,-78 374.5,-84 374.5,-84 374.5,-96 374.5,-96 374.5,-102 368.5,-108 362.5,-108"/>
<text text-anchor="middle" x="321" y="-87.5" font-family="sans" font-size="10.00">make_RNASEQ_SE</text>
</g>
<!-- 1&#45;&gt;9 -->
<g id="edge14" class="edge">
<title>1&#45;&gt;9</title>
<path fill="none" stroke="grey" stroke-width="2" d="M387.19,-215.94C370.35,-207.53 352.58,-195.74 341,-180 327.83,-162.11 323.09,-137.11 321.49,-118.16"/>
<polygon fill="grey" stroke="grey" stroke-width="2" points="324.98,-117.84 320.89,-108.07 317.99,-118.26 324.98,-117.84"/>
</g>
<!-- 10 -->
<g id="node11" class="node">
<title>10</title>
<path fill="none" stroke="#568ad8" stroke-width="2" d="M282,-180C282,-180 190,-180 190,-180 184,-180 178,-174 178,-168 178,-168 178,-156 178,-156 178,-150 184,-144 190,-144 190,-144 282,-144 282,-144 288,-144 294,-150 294,-156 294,-156 294,-168 294,-168 294,-174 288,-180 282,-180"/>
<text text-anchor="middle" x="236" y="-159.5" font-family="sans" font-size="10.00">preprocess_RNASEQ</text>
</g>
<!-- 1&#45;&gt;10 -->
<g id="edge16" class="edge">
<title>1&#45;&gt;10</title>
<path fill="none" stroke="grey" stroke-width="2" d="M385.06,-215.97C357.53,-206.19 322.78,-193.84 293.76,-183.52"/>
<polygon fill="grey" stroke="grey" stroke-width="2" points="294.75,-180.16 284.15,-180.11 292.41,-186.76 294.75,-180.16"/>
</g>
<!-- 12 -->
<g id="node13" class="node">
<title>12</title>
<path fill="none" stroke="#56d88a" stroke-width="2" d="M467.5,-108C467.5,-108 404.5,-108 404.5,-108 398.5,-108 392.5,-102 392.5,-96 392.5,-96 392.5,-84 392.5,-84 392.5,-78 398.5,-72 404.5,-72 404.5,-72 467.5,-72 467.5,-72 473.5,-72 479.5,-78 479.5,-84 479.5,-84 479.5,-96 479.5,-96 479.5,-102 473.5,-108 467.5,-108"/>
<text text-anchor="middle" x="436" y="-87.5" font-family="sans" font-size="10.00">make_CNV_SE</text>
</g>
<!-- 1&#45;&gt;12 -->
<g id="edge17" class="edge">
<title>1&#45;&gt;12</title>
<path fill="none" stroke="grey" stroke-width="2" d="M440.07,-215.67C443.84,-205.47 448.09,-192.22 450,-180 452.47,-164.19 452.06,-159.87 450,-144 448.9,-135.51 446.84,-126.43 444.63,-118.24"/>
<polygon fill="grey" stroke="grey" stroke-width="2" points="447.95,-117.09 441.82,-108.44 441.22,-119.02 447.95,-117.09"/>
</g>
<!-- 13 -->
<g id="node14" class="node">
<title>13</title>
<path fill="none" stroke="#56c1d8" stroke-width="2" d="M429.5,-180C429.5,-180 362.5,-180 362.5,-180 356.5,-180 350.5,-174 350.5,-168 350.5,-168 350.5,-156 350.5,-156 350.5,-150 356.5,-144 362.5,-144 362.5,-144 429.5,-144 429.5,-144 435.5,-144 441.5,-150 441.5,-156 441.5,-156 441.5,-168 441.5,-168 441.5,-174 435.5,-180 429.5,-180"/>
<text text-anchor="middle" x="396" y="-159.5" font-family="sans" font-size="10.00">preprocessCNV</text>
</g>
<!-- 1&#45;&gt;13 -->
<g id="edge19" class="edge">
<title>1&#45;&gt;13</title>
<path fill="none" stroke="grey" stroke-width="2" d="M423.85,-215.7C419.6,-207.64 414.44,-197.89 409.73,-188.98"/>
<polygon fill="grey" stroke="grey" stroke-width="2" points="412.81,-187.31 405.04,-180.1 406.62,-190.58 412.81,-187.31"/>
</g>
<!-- 14 -->
<g id="node15" class="node">
<title>14</title>
<path fill="none" stroke="#5673d8" stroke-width="2" d="M628,-108C628,-108 548,-108 548,-108 542,-108 536,-102 536,-96 536,-96 536,-84 536,-84 536,-78 542,-72 548,-72 548,-72 628,-72 628,-72 634,-72 640,-78 640,-84 640,-84 640,-96 640,-96 640,-102 634,-108 628,-108"/>
<text text-anchor="middle" x="588" y="-87.5" font-family="sans" font-size="10.00">make_FUSION_SE</text>
</g>
<!-- 1&#45;&gt;14 -->
<g id="edge21" class="edge">
<title>1&#45;&gt;14</title>
<path fill="none" stroke="grey" stroke-width="2" d="M468.98,-215.81C486.12,-206.6 506.26,-194.23 522,-180 542.36,-161.6 560.52,-136.07 572.62,-117.07"/>
<polygon fill="grey" stroke="grey" stroke-width="2" points="575.74,-118.67 578.05,-108.33 569.8,-114.97 575.74,-118.67"/>
</g>
<!-- 15 -->
<g id="node16" class="node">
<title>15</title>
<path fill="none" stroke="#56d8c1" stroke-width="2" d="M675.5,-180C675.5,-180 586.5,-180 586.5,-180 580.5,-180 574.5,-174 574.5,-168 574.5,-168 574.5,-156 574.5,-156 574.5,-150 580.5,-144 586.5,-144 586.5,-144 675.5,-144 675.5,-144 681.5,-144 687.5,-150 687.5,-156 687.5,-156 687.5,-168 687.5,-168 687.5,-174 681.5,-180 675.5,-180"/>
<text text-anchor="middle" x="631" y="-159.5" font-family="sans" font-size="10.00">preprocess_FUSION</text>
</g>
<!-- 1&#45;&gt;15 -->
<g id="edge23" class="edge">
<title>1&#45;&gt;15</title>
<path fill="none" stroke="grey" stroke-width="2" d="M481.18,-215.97C508.85,-206.19 543.78,-193.84 572.95,-183.52"/>
<polygon fill="grey" stroke="grey" stroke-width="2" points="574.34,-186.74 582.6,-180.11 572.01,-180.14 574.34,-186.74"/>
</g>
<!-- 2 -->
<g id="node3" class="node">
<title>2</title>
<path fill="none" stroke="#56d8d8" stroke-width="2" d="M322.5,-324C322.5,-324 199.5,-324 199.5,-324 193.5,-324 187.5,-318 187.5,-312 187.5,-312 187.5,-300 187.5,-300 187.5,-294 193.5,-288 199.5,-288 199.5,-288 322.5,-288 322.5,-288 328.5,-288 334.5,-294 334.5,-300 334.5,-300 334.5,-312 334.5,-312 334.5,-318 328.5,-324 322.5,-324"/>
<text text-anchor="middle" x="261" y="-303.5" font-family="sans" font-size="10.00">downloadSampleMetadata</text>
</g>
<!-- 2&#45;&gt;1 -->
<g id="edge8" class="edge">
<title>2&#45;&gt;1</title>
<path fill="none" stroke="grey" stroke-width="2" d="M303.08,-287.88C326.8,-278.22 356.62,-266.09 381.7,-255.88"/>
<polygon fill="grey" stroke="grey" stroke-width="2" points="383.12,-259.08 391.06,-252.07 380.48,-252.6 383.12,-259.08"/>
</g>
<!-- 3 -->
<g id="node4" class="node">
<title>3</title>
<path fill="none" stroke="#a7d856" stroke-width="2" d="M501,-324C501,-324 365,-324 365,-324 359,-324 353,-318 353,-312 353,-312 353,-300 353,-300 353,-294 359,-288 365,-288 365,-288 501,-288 501,-288 507,-288 513,-294 513,-300 513,-300 513,-312 513,-312 513,-318 507,-324 501,-324"/>
<text text-anchor="middle" x="433" y="-303.5" font-family="sans" font-size="10.00">downloadTreatmentMetadata</text>
</g>
<!-- 3&#45;&gt;1 -->
<g id="edge7" class="edge">
<title>3&#45;&gt;1</title>
<path fill="none" stroke="grey" stroke-width="2" d="M433,-287.7C433,-279.98 433,-270.71 433,-262.11"/>
<polygon fill="grey" stroke="grey" stroke-width="2" points="436.5,-262.1 433,-252.1 429.5,-262.1 436.5,-262.1"/>
</g>
<!-- 4 -->
<g id="node5" class="node">
<title>4</title>
<path fill="none" stroke="#d88d56" stroke-width="2" d="M725,-324C725,-324 543,-324 543,-324 537,-324 531,-318 531,-312 531,-312 531,-300 531,-300 531,-294 537,-288 543,-288 543,-288 725,-288 725,-288 731,-288 737,-294 737,-300 737,-300 737,-312 737,-312 737,-318 731,-324 725,-324"/>
<text text-anchor="middle" x="634" y="-303.5" font-family="sans" font-size="10.00">downloadCellModelPassportsMetadata</text>
</g>
<!-- 4&#45;&gt;1 -->
<g id="edge9" class="edge">
<title>4&#45;&gt;1</title>
<path fill="none" stroke="grey" stroke-width="2" d="M585.09,-287.97C557,-278.19 521.54,-265.84 491.93,-255.52"/>
<polygon fill="grey" stroke="grey" stroke-width="2" points="492.73,-252.09 482.13,-252.11 490.43,-258.71 492.73,-252.09"/>
</g>
<!-- 5 -->
<g id="node6" class="node">
<title>5</title>
<path fill="none" stroke="#56a2d8" stroke-width="2" d="M1036.5,-180C1036.5,-180 917.5,-180 917.5,-180 911.5,-180 905.5,-174 905.5,-168 905.5,-168 905.5,-156 905.5,-156 905.5,-150 911.5,-144 917.5,-144 917.5,-144 1036.5,-144 1036.5,-144 1042.5,-144 1048.5,-150 1048.5,-156 1048.5,-156 1048.5,-168 1048.5,-168 1048.5,-174 1042.5,-180 1036.5,-180"/>
<text text-anchor="middle" x="977" y="-159.5" font-family="sans" font-size="10.00">load_MicroArrayMetadata</text>
</g>
<!-- 17 -->
<g id="node18" class="node">
<title>17</title>
<path fill="none" stroke="#d8bc56" stroke-width="2" d="M879,-108C879,-108 775,-108 775,-108 769,-108 763,-102 763,-96 763,-96 763,-84 763,-84 763,-78 769,-72 775,-72 775,-72 879,-72 879,-72 885,-72 891,-78 891,-84 891,-84 891,-96 891,-96 891,-102 885,-108 879,-108"/>
<text text-anchor="middle" x="827" y="-87.5" font-family="sans" font-size="10.00">preprocess_MicroArray</text>
</g>
<!-- 5&#45;&gt;17 -->
<g id="edge25" class="edge">
<title>5&#45;&gt;17</title>
<path fill="none" stroke="grey" stroke-width="2" d="M940.31,-143.88C919.98,-134.39 894.53,-122.51 872.9,-112.42"/>
<polygon fill="grey" stroke="grey" stroke-width="2" points="874.12,-109.13 863.57,-108.07 871.16,-115.47 874.12,-109.13"/>
</g>
<!-- 6 -->
<g id="node7" class="node">
<title>6</title>
<path fill="none" stroke="#56d873" stroke-width="2" d="M999.5,-252C999.5,-252 854.5,-252 854.5,-252 848.5,-252 842.5,-246 842.5,-240 842.5,-240 842.5,-228 842.5,-228 842.5,-222 848.5,-216 854.5,-216 854.5,-216 999.5,-216 999.5,-216 1005.5,-216 1011.5,-222 1011.5,-228 1011.5,-228 1011.5,-240 1011.5,-240 1011.5,-246 1005.5,-252 999.5,-252"/>
<text text-anchor="middle" x="927" y="-231.5" font-family="sans" font-size="10.00">download_MicroArrayMetadata</text>
</g>
<!-- 6&#45;&gt;5 -->
<g id="edge10" class="edge">
<title>6&#45;&gt;5</title>
<path fill="none" stroke="grey" stroke-width="2" d="M939.36,-215.7C945.23,-207.47 952.37,-197.48 958.84,-188.42"/>
<polygon fill="grey" stroke="grey" stroke-width="2" points="961.82,-190.28 964.78,-180.1 956.12,-186.21 961.82,-190.28"/>
</g>
<!-- 6&#45;&gt;17 -->
<g id="edge24" class="edge">
<title>6&#45;&gt;17</title>
<path fill="none" stroke="grey" stroke-width="2" d="M914.94,-215.87C897.52,-191.14 865.2,-145.24 844.97,-116.51"/>
<polygon fill="grey" stroke="grey" stroke-width="2" points="847.72,-114.35 839.11,-108.19 842,-118.38 847.72,-114.35"/>
</g>
<!-- 7&#45;&gt;0 -->
<g id="edge4" class="edge">
<title>7&#45;&gt;0</title>
<path fill="none" stroke="grey" stroke-width="2" d="M126.03,-143.94C156.15,-124.11 208.81,-91.6 258,-72 306.32,-52.74 363.66,-38.99 406.81,-30.33"/>
<polygon fill="grey" stroke="grey" stroke-width="2" points="407.49,-33.77 416.63,-28.4 406.14,-26.9 407.49,-33.77"/>
</g>
<!-- 8 -->
<g id="node9" class="node">
<title>8</title>
<path fill="none" stroke="#d85656" stroke-width="2" d="M164,-252C164,-252 12,-252 12,-252 6,-252 0,-246 0,-240 0,-240 0,-228 0,-228 0,-222 6,-216 12,-216 12,-216 164,-216 164,-216 170,-216 176,-222 176,-228 176,-228 176,-240 176,-240 176,-246 170,-252 164,-252"/>
<text text-anchor="middle" x="88" y="-231.5" font-family="sans" font-size="10.00">download_MUTATION_processed</text>
</g>
<!-- 8&#45;&gt;7 -->
<g id="edge11" class="edge">
<title>8&#45;&gt;7</title>
<path fill="none" stroke="grey" stroke-width="2" d="M91.21,-215.7C92.65,-207.98 94.37,-198.71 95.96,-190.11"/>
<polygon fill="grey" stroke="grey" stroke-width="2" points="99.44,-190.58 97.82,-180.1 92.56,-189.3 99.44,-190.58"/>
</g>
<!-- 9&#45;&gt;0 -->
<g id="edge5" class="edge">
<title>9&#45;&gt;0</title>
<path fill="none" stroke="grey" stroke-width="2" d="M357.94,-71.88C378.49,-62.35 404.25,-50.41 426.09,-40.28"/>
<polygon fill="grey" stroke="grey" stroke-width="2" points="427.58,-43.45 435.18,-36.07 424.64,-37.1 427.58,-43.45"/>
</g>
<!-- 10&#45;&gt;9 -->
<g id="edge13" class="edge">
<title>10&#45;&gt;9</title>
<path fill="none" stroke="grey" stroke-width="2" d="M257.01,-143.7C267.72,-134.88 280.89,-124.03 292.5,-114.47"/>
<polygon fill="grey" stroke="grey" stroke-width="2" points="294.74,-117.16 300.23,-108.1 290.29,-111.76 294.74,-117.16"/>
</g>
<!-- 11 -->
<g id="node12" class="node">
<title>11</title>
<path fill="none" stroke="#56d8a2" stroke-width="2" d="M292,-252C292,-252 206,-252 206,-252 200,-252 194,-246 194,-240 194,-240 194,-228 194,-228 194,-222 200,-216 206,-216 206,-216 292,-216 292,-216 298,-216 304,-222 304,-228 304,-228 304,-240 304,-240 304,-246 298,-252 292,-252"/>
<text text-anchor="middle" x="249" y="-231.5" font-family="sans" font-size="10.00">download_RNASEQ</text>
</g>
<!-- 11&#45;&gt;10 -->
<g id="edge15" class="edge">
<title>11&#45;&gt;10</title>
<path fill="none" stroke="grey" stroke-width="2" d="M245.79,-215.7C244.35,-207.98 242.63,-198.71 241.04,-190.11"/>
<polygon fill="grey" stroke="grey" stroke-width="2" points="244.44,-189.3 239.18,-180.1 237.56,-190.58 244.44,-189.3"/>
</g>
<!-- 12&#45;&gt;0 -->
<g id="edge3" class="edge">
<title>12&#45;&gt;0</title>
<path fill="none" stroke="grey" stroke-width="2" d="M444.9,-71.7C449,-63.73 453.95,-54.1 458.49,-45.26"/>
<polygon fill="grey" stroke="grey" stroke-width="2" points="461.74,-46.6 463.2,-36.1 455.52,-43.4 461.74,-46.6"/>
</g>
<!-- 13&#45;&gt;12 -->
<g id="edge18" class="edge">
<title>13&#45;&gt;12</title>
<path fill="none" stroke="grey" stroke-width="2" d="M405.89,-143.7C410.49,-135.64 416.06,-125.89 421.15,-116.98"/>
<polygon fill="grey" stroke="grey" stroke-width="2" points="424.3,-118.52 426.23,-108.1 418.23,-115.05 424.3,-118.52"/>
</g>
<!-- 14&#45;&gt;0 -->
<g id="edge6" class="edge">
<title>14&#45;&gt;0</title>
<path fill="none" stroke="grey" stroke-width="2" d="M559.62,-71.88C544.46,-62.72 525.59,-51.34 509.26,-41.48"/>
<polygon fill="grey" stroke="grey" stroke-width="2" points="510.86,-38.36 500.49,-36.19 507.24,-44.35 510.86,-38.36"/>
</g>
<!-- 15&#45;&gt;14 -->
<g id="edge20" class="edge">
<title>15&#45;&gt;14</title>
<path fill="none" stroke="grey" stroke-width="2" d="M620.37,-143.7C615.37,-135.56 609.31,-125.69 603.79,-116.7"/>
<polygon fill="grey" stroke="grey" stroke-width="2" points="606.72,-114.79 598.51,-108.1 600.76,-118.46 606.72,-114.79"/>
</g>
<!-- 16 -->
<g id="node17" class="node">
<title>16</title>
<path fill="none" stroke="#d86e56" stroke-width="2" d="M672.5,-252C672.5,-252 589.5,-252 589.5,-252 583.5,-252 577.5,-246 577.5,-240 577.5,-240 577.5,-228 577.5,-228 577.5,-222 583.5,-216 589.5,-216 589.5,-216 672.5,-216 672.5,-216 678.5,-216 684.5,-222 684.5,-228 684.5,-228 684.5,-240 684.5,-240 684.5,-246 678.5,-252 672.5,-252"/>
<text text-anchor="middle" x="631" y="-231.5" font-family="sans" font-size="10.00">download_FUSION</text>
</g>
<!-- 16&#45;&gt;15 -->
<g id="edge22" class="edge">
<title>16&#45;&gt;15</title>
<path fill="none" stroke="grey" stroke-width="2" d="M631,-215.7C631,-207.98 631,-198.71 631,-190.11"/>
<polygon fill="grey" stroke="grey" stroke-width="2" points="634.5,-190.1 631,-180.1 627.5,-190.1 634.5,-190.1"/>
</g>
<!-- 17&#45;&gt;0 -->
<g id="edge2" class="edge">
<title>17&#45;&gt;0</title>
<path fill="none" stroke="grey" stroke-width="2" d="M762.71,-76.32C698.8,-63.72 601.27,-44.49 537.08,-31.83"/>
<polygon fill="grey" stroke="grey" stroke-width="2" points="537.56,-28.36 527.07,-29.86 536.21,-35.23 537.56,-28.36"/>
</g>
<!-- 18 -->
<g id="node19" class="node">
<title>18</title>
<path fill="none" stroke="#59d856" stroke-width="2" d="M836.5,-180C836.5,-180 717.5,-180 717.5,-180 711.5,-180 705.5,-174 705.5,-168 705.5,-168 705.5,-156 705.5,-156 705.5,-150 711.5,-144 717.5,-144 717.5,-144 836.5,-144 836.5,-144 842.5,-144 848.5,-150 848.5,-156 848.5,-156 848.5,-168 848.5,-168 848.5,-174 842.5,-180 836.5,-180"/>
<text text-anchor="middle" x="777" y="-159.5" font-family="sans" font-size="10.00">download_MicroArrayFILE</text>
</g>
<!-- 18&#45;&gt;17 -->
<g id="edge26" class="edge">
<title>18&#45;&gt;17</title>
<path fill="none" stroke="grey" stroke-width="2" d="M789.36,-143.7C795.23,-135.47 802.37,-125.48 808.84,-116.42"/>
<polygon fill="grey" stroke="grey" stroke-width="2" points="811.82,-118.28 814.78,-108.1 806.12,-114.21 811.82,-118.28"/>
</g>
</g>
</svg>
