<?xml version="1.0" encoding="UTF-8" standalone="no"?>
<!DOCTYPE svg PUBLIC "-//W3C//DTD SVG 1.1//EN"
 "http://www.w3.org/Graphics/SVG/1.1/DTD/svg11.dtd">
<!-- Generated by graphviz version 2.43.0 (0)
 -->
<!-- Title: snakemake_dag Pages: 1 -->
<svg width="926pt" height="476pt"
 viewBox="0.00 0.00 925.50 476.00" xmlns="http://www.w3.org/2000/svg" xmlns:xlink="http://www.w3.org/1999/xlink">
<g id="graph0" class="graph" transform="scale(1 1) rotate(0) translate(4 472)">
<title>snakemake_dag</title>
<polygon fill="white" stroke="transparent" points="-4,4 -4,-472 921.5,-472 921.5,4 -4,4"/>
<!-- 0 -->
<g id="node1" class="node">
<title>0</title>
<path fill="none" stroke="#59d856" stroke-width="2" d="M447,-36C447,-36 333,-36 333,-36 327,-36 321,-30 321,-24 321,-24 321,-12 321,-12 321,-6 327,0 333,0 333,0 447,0 447,0 453,0 459,-6 459,-12 459,-12 459,-24 459,-24 459,-30 453,-36 447,-36"/>
<text text-anchor="middle" x="390" y="-15.5" font-family="sans" font-size="10.00">build_ALL_PharmacoSets</text>
</g>
<!-- 1 -->
<g id="node2" class="node">
<title>1</title>
<path fill="none" stroke="#56d8d0" stroke-width="2" d="M433,-108C433,-108 347,-108 347,-108 341,-108 335,-102 335,-96 335,-96 335,-84 335,-84 335,-78 341,-72 347,-72 347,-72 433,-72 433,-72 439,-72 445,-78 445,-84 445,-84 445,-96 445,-96 445,-102 439,-108 433,-108"/>
<text text-anchor="middle" x="390" y="-87.5" font-family="sans" font-size="10.00">build_PharmacoSet</text>
</g>
<!-- 1&#45;&gt;0 -->
<g id="edge1" class="edge">
<title>1&#45;&gt;0</title>
<path fill="none" stroke="grey" stroke-width="2" d="M390,-71.7C390,-63.98 390,-54.71 390,-46.11"/>
<polygon fill="grey" stroke="grey" stroke-width="2" points="393.5,-46.1 390,-36.1 386.5,-46.1 393.5,-46.1"/>
</g>
<!-- 2 -->
<g id="node3" class="node">
<title>2</title>
<path fill="none" stroke="#97d856" stroke-width="2" d="M402,-396C402,-396 298,-396 298,-396 292,-396 286,-390 286,-384 286,-384 286,-372 286,-372 286,-366 292,-360 298,-360 298,-360 402,-360 402,-360 408,-360 414,-366 414,-372 414,-372 414,-384 414,-384 414,-390 408,-396 402,-396"/>
<text text-anchor="middle" x="350" y="-375.5" font-family="sans" font-size="10.00">preprocess_METADATA</text>
</g>
<!-- 2&#45;&gt;1 -->
<g id="edge4" class="edge">
<title>2&#45;&gt;1</title>
<path fill="none" stroke="grey" stroke-width="2" d="M351.77,-359.57C354.85,-329.99 361.55,-268.1 369,-216 373.82,-182.26 380.5,-143.6 385.02,-118.31"/>
<polygon fill="grey" stroke="grey" stroke-width="2" points="388.48,-118.81 386.81,-108.35 381.59,-117.57 388.48,-118.81"/>
</g>
<!-- 8 -->
<g id="node9" class="node">
<title>8</title>
<path fill="none" stroke="#d8a456" stroke-width="2" d="M176,-324C176,-324 104,-324 104,-324 98,-324 92,-318 92,-312 92,-312 92,-300 92,-300 92,-294 98,-288 104,-288 104,-288 176,-288 176,-288 182,-288 188,-294 188,-300 188,-300 188,-312 188,-312 188,-318 182,-324 176,-324"/>
<text text-anchor="middle" x="140" y="-303.5" font-family="sans" font-size="10.00">preprocess_CNV</text>
</g>
<!-- 2&#45;&gt;8 -->
<g id="edge14" class="edge">
<title>2&#45;&gt;8</title>
<path fill="none" stroke="grey" stroke-width="2" d="M298.9,-359.97C268.31,-349.77 229.35,-336.78 197.67,-326.22"/>
<polygon fill="grey" stroke="grey" stroke-width="2" points="198.68,-322.87 188.08,-323.03 196.46,-329.51 198.68,-322.87"/>
</g>
<!-- 11 -->
<g id="node12" class="node">
<title>11</title>
<path fill="none" stroke="#5682d8" stroke-width="2" d="M310,-324C310,-324 218,-324 218,-324 212,-324 206,-318 206,-312 206,-312 206,-300 206,-300 206,-294 212,-288 218,-288 218,-288 310,-288 310,-288 316,-288 322,-294 322,-300 322,-300 322,-312 322,-312 322,-318 316,-324 310,-324"/>
<text text-anchor="middle" x="264" y="-303.5" font-family="sans" font-size="10.00">preprocess_RNASEQ</text>
</g>
<!-- 2&#45;&gt;11 -->
<g id="edge17" class="edge">
<title>2&#45;&gt;11</title>
<path fill="none" stroke="grey" stroke-width="2" d="M328.74,-359.7C317.91,-350.88 304.58,-340.03 292.84,-330.47"/>
<polygon fill="grey" stroke="grey" stroke-width="2" points="294.98,-327.7 285.01,-324.1 290.56,-333.13 294.98,-327.7"/>
</g>
<!-- 14 -->
<g id="node15" class="node">
<title>14</title>
<path fill="none" stroke="#5663d8" stroke-width="2" d="M479.5,-324C479.5,-324 390.5,-324 390.5,-324 384.5,-324 378.5,-318 378.5,-312 378.5,-312 378.5,-300 378.5,-300 378.5,-294 384.5,-288 390.5,-288 390.5,-288 479.5,-288 479.5,-288 485.5,-288 491.5,-294 491.5,-300 491.5,-300 491.5,-312 491.5,-312 491.5,-318 485.5,-324 479.5,-324"/>
<text text-anchor="middle" x="435" y="-303.5" font-family="sans" font-size="10.00">preprocess_FUSION</text>
</g>
<!-- 2&#45;&gt;14 -->
<g id="edge19" class="edge">
<title>2&#45;&gt;14</title>
<path fill="none" stroke="grey" stroke-width="2" d="M371.01,-359.7C381.72,-350.88 394.89,-340.03 406.5,-330.47"/>
<polygon fill="grey" stroke="grey" stroke-width="2" points="408.74,-333.16 414.23,-324.1 404.29,-327.76 408.74,-333.16"/>
</g>
<!-- 17 -->
<g id="node18" class="node">
<title>17</title>
<path fill="none" stroke="#56d8b1" stroke-width="2" d="M624.5,-324C624.5,-324 521.5,-324 521.5,-324 515.5,-324 509.5,-318 509.5,-312 509.5,-312 509.5,-300 509.5,-300 509.5,-294 515.5,-288 521.5,-288 521.5,-288 624.5,-288 624.5,-288 630.5,-288 636.5,-294 636.5,-300 636.5,-300 636.5,-312 636.5,-312 636.5,-318 630.5,-324 624.5,-324"/>
<text text-anchor="middle" x="573" y="-303.5" font-family="sans" font-size="10.00">preprocess_MUTATION</text>
</g>
<!-- 2&#45;&gt;17 -->
<g id="edge23" class="edge">
<title>2&#45;&gt;17</title>
<path fill="none" stroke="grey" stroke-width="2" d="M404.27,-359.97C435.83,-350.06 475.79,-337.51 508.9,-327.12"/>
<polygon fill="grey" stroke="grey" stroke-width="2" points="510,-330.45 518.49,-324.11 507.9,-323.77 510,-330.45"/>
</g>
<!-- 20 -->
<g id="node21" class="node">
<title>20</title>
<path fill="none" stroke="#9fd856" stroke-width="2" d="M830.5,-324C830.5,-324 683.5,-324 683.5,-324 677.5,-324 671.5,-318 671.5,-312 671.5,-312 671.5,-300 671.5,-300 671.5,-294 677.5,-288 683.5,-288 683.5,-288 830.5,-288 830.5,-288 836.5,-288 842.5,-294 842.5,-300 842.5,-300 842.5,-312 842.5,-312 842.5,-318 836.5,-324 830.5,-324"/>
<text text-anchor="middle" x="757" y="-303.5" font-family="sans" font-size="10.00">preprocess_treatmentResponse</text>
</g>
<!-- 2&#45;&gt;20 -->
<g id="edge27" class="edge">
<title>2&#45;&gt;20</title>
<path fill="none" stroke="grey" stroke-width="2" d="M414.12,-361.99C417.46,-361.3 420.76,-360.63 424,-360 446.99,-355.54 571.32,-335.95 661.34,-321.89"/>
<polygon fill="grey" stroke="grey" stroke-width="2" points="661.97,-325.33 671.31,-320.33 660.89,-318.41 661.97,-325.33"/>
</g>
<!-- 3 -->
<g id="node4" class="node">
<title>3</title>
<path fill="none" stroke="#ced856" stroke-width="2" d="M139.5,-468C139.5,-468 16.5,-468 16.5,-468 10.5,-468 4.5,-462 4.5,-456 4.5,-456 4.5,-444 4.5,-444 4.5,-438 10.5,-432 16.5,-432 16.5,-432 139.5,-432 139.5,-432 145.5,-432 151.5,-438 151.5,-444 151.5,-444 151.5,-456 151.5,-456 151.5,-462 145.5,-468 139.5,-468"/>
<text text-anchor="middle" x="78" y="-447.5" font-family="sans" font-size="10.00">downloadSampleMetadata</text>
</g>
<!-- 3&#45;&gt;2 -->
<g id="edge8" class="edge">
<title>3&#45;&gt;2</title>
<path fill="none" stroke="grey" stroke-width="2" d="M144.19,-431.97C184.08,-421.7 234.96,-408.61 276.15,-398"/>
<polygon fill="grey" stroke="grey" stroke-width="2" points="277.05,-401.39 285.86,-395.51 275.3,-394.61 277.05,-401.39"/>
</g>
<!-- 4 -->
<g id="node5" class="node">
<title>4</title>
<path fill="none" stroke="#78d856" stroke-width="2" d="M318,-468C318,-468 182,-468 182,-468 176,-468 170,-462 170,-456 170,-456 170,-444 170,-444 170,-438 176,-432 182,-432 182,-432 318,-432 318,-432 324,-432 330,-438 330,-444 330,-444 330,-456 330,-456 330,-462 324,-468 318,-468"/>
<text text-anchor="middle" x="250" y="-447.5" font-family="sans" font-size="10.00">downloadTreatmentMetadata</text>
</g>
<!-- 4&#45;&gt;2 -->
<g id="edge11" class="edge">
<title>4&#45;&gt;2</title>
<path fill="none" stroke="grey" stroke-width="2" d="M274.46,-431.88C287.3,-422.89 303.2,-411.76 317.09,-402.03"/>
<polygon fill="grey" stroke="grey" stroke-width="2" points="319.26,-404.79 325.44,-396.19 315.24,-399.06 319.26,-404.79"/>
</g>
<!-- 5 -->
<g id="node6" class="node">
<title>5</title>
<path fill="none" stroke="#5692d8" stroke-width="2" d="M542,-468C542,-468 360,-468 360,-468 354,-468 348,-462 348,-456 348,-456 348,-444 348,-444 348,-438 354,-432 360,-432 360,-432 542,-432 542,-432 548,-432 554,-438 554,-444 554,-444 554,-456 554,-456 554,-462 548,-468 542,-468"/>
<text text-anchor="middle" x="451" y="-447.5" font-family="sans" font-size="10.00">downloadCellModelPassportsMetadata</text>
</g>
<!-- 5&#45;&gt;2 -->
<g id="edge9" class="edge">
<title>5&#45;&gt;2</title>
<path fill="none" stroke="grey" stroke-width="2" d="M426.29,-431.88C413.33,-422.89 397.27,-411.76 383.23,-402.03"/>
<polygon fill="grey" stroke="grey" stroke-width="2" points="385.02,-399.01 374.8,-396.19 381.03,-404.76 385.02,-399.01"/>
</g>
<!-- 6 -->
<g id="node7" class="node">
<title>6</title>
<path fill="none" stroke="#d85656" stroke-width="2" d="M740,-468C740,-468 584,-468 584,-468 578,-468 572,-462 572,-456 572,-456 572,-444 572,-444 572,-438 578,-432 584,-432 584,-432 740,-432 740,-432 746,-432 752,-438 752,-444 752,-444 752,-456 752,-456 752,-462 746,-468 740,-468"/>
<text text-anchor="middle" x="662" y="-447.5" font-family="sans" font-size="10.00">gencode_getGENCODEannotation</text>
</g>
<!-- 6&#45;&gt;2 -->
<g id="edge10" class="edge">
<title>6&#45;&gt;2</title>
<path fill="none" stroke="grey" stroke-width="2" d="M584.8,-431.94C538.21,-421.62 477.67,-408.14 424,-396 423.9,-395.98 423.8,-395.95 423.7,-395.93"/>
<polygon fill="grey" stroke="grey" stroke-width="2" points="424.7,-392.57 414.17,-393.77 423.15,-399.4 424.7,-392.57"/>
</g>
<!-- 7 -->
<g id="node8" class="node">
<title>7</title>
<path fill="none" stroke="#56c1d8" stroke-width="2" d="M179.5,-180C179.5,-180 116.5,-180 116.5,-180 110.5,-180 104.5,-174 104.5,-168 104.5,-168 104.5,-156 104.5,-156 104.5,-150 110.5,-144 116.5,-144 116.5,-144 179.5,-144 179.5,-144 185.5,-144 191.5,-150 191.5,-156 191.5,-156 191.5,-168 191.5,-168 191.5,-174 185.5,-180 179.5,-180"/>
<text text-anchor="middle" x="148" y="-159.5" font-family="sans" font-size="10.00">make_CNV_SE</text>
</g>
<!-- 7&#45;&gt;1 -->
<g id="edge5" class="edge">
<title>7&#45;&gt;1</title>
<path fill="none" stroke="grey" stroke-width="2" d="M191.5,-147.45C195.39,-146.27 199.26,-145.11 203,-144 243.37,-132.04 288.81,-119.15 324.79,-109.08"/>
<polygon fill="grey" stroke="grey" stroke-width="2" points="325.98,-112.38 334.67,-106.31 324.1,-105.63 325.98,-112.38"/>
</g>
<!-- 8&#45;&gt;7 -->
<g id="edge12" class="edge">
<title>8&#45;&gt;7</title>
<path fill="none" stroke="grey" stroke-width="2" d="M140.96,-287.87C142.33,-263.67 144.83,-219.21 146.46,-190.39"/>
<polygon fill="grey" stroke="grey" stroke-width="2" points="149.96,-190.37 147.03,-180.19 142.97,-189.98 149.96,-190.37"/>
</g>
<!-- 9 -->
<g id="node10" class="node">
<title>9</title>
<path fill="none" stroke="#d86656" stroke-width="2" d="M128,-396C128,-396 12,-396 12,-396 6,-396 0,-390 0,-384 0,-384 0,-372 0,-372 0,-366 6,-360 12,-360 12,-360 128,-360 128,-360 134,-360 140,-366 140,-372 140,-372 140,-384 140,-384 140,-390 134,-396 128,-396"/>
<text text-anchor="middle" x="70" y="-375.5" font-family="sans" font-size="10.00">download_CNV_WESData</text>
</g>
<!-- 9&#45;&gt;8 -->
<g id="edge13" class="edge">
<title>9&#45;&gt;8</title>
<path fill="none" stroke="grey" stroke-width="2" d="M87.3,-359.7C95.86,-351.14 106.34,-340.66 115.7,-331.3"/>
<polygon fill="grey" stroke="grey" stroke-width="2" points="118.3,-333.65 122.9,-324.1 113.35,-328.7 118.3,-333.65"/>
</g>
<!-- 10 -->
<g id="node11" class="node">
<title>10</title>
<path fill="none" stroke="#56d8c1" stroke-width="2" d="M307.5,-180C307.5,-180 224.5,-180 224.5,-180 218.5,-180 212.5,-174 212.5,-168 212.5,-168 212.5,-156 212.5,-156 212.5,-150 218.5,-144 224.5,-144 224.5,-144 307.5,-144 307.5,-144 313.5,-144 319.5,-150 319.5,-156 319.5,-156 319.5,-168 319.5,-168 319.5,-174 313.5,-180 307.5,-180"/>
<text text-anchor="middle" x="266" y="-159.5" font-family="sans" font-size="10.00">make_RNASEQ_SE</text>
</g>
<!-- 10&#45;&gt;1 -->
<g id="edge2" class="edge">
<title>10&#45;&gt;1</title>
<path fill="none" stroke="grey" stroke-width="2" d="M296.33,-143.88C312.7,-134.64 333.08,-123.13 350.65,-113.21"/>
<polygon fill="grey" stroke="grey" stroke-width="2" points="352.56,-116.15 359.55,-108.19 349.12,-110.06 352.56,-116.15"/>
</g>
<!-- 11&#45;&gt;10 -->
<g id="edge15" class="edge">
<title>11&#45;&gt;10</title>
<path fill="none" stroke="grey" stroke-width="2" d="M264.24,-287.87C264.58,-263.67 265.21,-219.21 265.61,-190.39"/>
<polygon fill="grey" stroke="grey" stroke-width="2" points="269.12,-190.24 265.76,-180.19 262.12,-190.14 269.12,-190.24"/>
</g>
<!-- 12 -->
<g id="node13" class="node">
<title>12</title>
<path fill="none" stroke="#56d873" stroke-width="2" d="M256,-396C256,-396 170,-396 170,-396 164,-396 158,-390 158,-384 158,-384 158,-372 158,-372 158,-366 164,-360 170,-360 170,-360 256,-360 256,-360 262,-360 268,-366 268,-372 268,-372 268,-384 268,-384 268,-390 262,-396 256,-396"/>
<text text-anchor="middle" x="213" y="-375.5" font-family="sans" font-size="10.00">download_RNASEQ</text>
</g>
<!-- 12&#45;&gt;11 -->
<g id="edge16" class="edge">
<title>12&#45;&gt;11</title>
<path fill="none" stroke="grey" stroke-width="2" d="M225.61,-359.7C231.6,-351.47 238.88,-341.48 245.48,-332.42"/>
<polygon fill="grey" stroke="grey" stroke-width="2" points="248.48,-334.25 251.54,-324.1 242.82,-330.13 248.48,-334.25"/>
</g>
<!-- 13 -->
<g id="node14" class="node">
<title>13</title>
<path fill="none" stroke="#56d892" stroke-width="2" d="M470,-252C470,-252 390,-252 390,-252 384,-252 378,-246 378,-240 378,-240 378,-228 378,-228 378,-222 384,-216 390,-216 390,-216 470,-216 470,-216 476,-216 482,-222 482,-228 482,-228 482,-240 482,-240 482,-246 476,-252 470,-252"/>
<text text-anchor="middle" x="430" y="-231.5" font-family="sans" font-size="10.00">make_FUSION_SE</text>
</g>
<!-- 13&#45;&gt;1 -->
<g id="edge7" class="edge">
<title>13&#45;&gt;1</title>
<path fill="none" stroke="grey" stroke-width="2" d="M425.18,-215.87C418.33,-191.56 405.72,-146.82 397.61,-118.01"/>
<polygon fill="grey" stroke="grey" stroke-width="2" points="400.92,-116.87 394.84,-108.19 394.18,-118.76 400.92,-116.87"/>
</g>
<!-- 14&#45;&gt;13 -->
<g id="edge18" class="edge">
<title>14&#45;&gt;13</title>
<path fill="none" stroke="grey" stroke-width="2" d="M433.76,-287.7C433.21,-279.98 432.55,-270.71 431.94,-262.11"/>
<polygon fill="grey" stroke="grey" stroke-width="2" points="435.43,-261.83 431.22,-252.1 428.44,-262.33 435.43,-261.83"/>
</g>
<!-- 15 -->
<g id="node16" class="node">
<title>15</title>
<path fill="none" stroke="#56d882" stroke-width="2" d="M527.5,-396C527.5,-396 444.5,-396 444.5,-396 438.5,-396 432.5,-390 432.5,-384 432.5,-384 432.5,-372 432.5,-372 432.5,-366 438.5,-360 444.5,-360 444.5,-360 527.5,-360 527.5,-360 533.5,-360 539.5,-366 539.5,-372 539.5,-372 539.5,-384 539.5,-384 539.5,-390 533.5,-396 527.5,-396"/>
<text text-anchor="middle" x="486" y="-375.5" font-family="sans" font-size="10.00">download_FUSION</text>
</g>
<!-- 15&#45;&gt;14 -->
<g id="edge20" class="edge">
<title>15&#45;&gt;14</title>
<path fill="none" stroke="grey" stroke-width="2" d="M473.39,-359.7C467.4,-351.47 460.12,-341.48 453.52,-332.42"/>
<polygon fill="grey" stroke="grey" stroke-width="2" points="456.18,-330.13 447.46,-324.1 450.52,-334.25 456.18,-330.13"/>
</g>
<!-- 16 -->
<g id="node17" class="node">
<title>16</title>
<path fill="none" stroke="#88d856" stroke-width="2" d="M606,-252C606,-252 512,-252 512,-252 506,-252 500,-246 500,-240 500,-240 500,-228 500,-228 500,-222 506,-216 512,-216 512,-216 606,-216 606,-216 612,-216 618,-222 618,-228 618,-228 618,-240 618,-240 618,-246 612,-252 606,-252"/>
<text text-anchor="middle" x="559" y="-231.5" font-family="sans" font-size="10.00">make_MUTATION_SE</text>
</g>
<!-- 16&#45;&gt;1 -->
<g id="edge3" class="edge">
<title>16&#45;&gt;1</title>
<path fill="none" stroke="grey" stroke-width="2" d="M538.61,-215.87C508.54,-190.6 452.19,-143.25 418.18,-114.68"/>
<polygon fill="grey" stroke="grey" stroke-width="2" points="420.37,-111.94 410.46,-108.19 415.86,-117.3 420.37,-111.94"/>
</g>
<!-- 17&#45;&gt;16 -->
<g id="edge21" class="edge">
<title>17&#45;&gt;16</title>
<path fill="none" stroke="grey" stroke-width="2" d="M569.54,-287.7C568,-279.98 566.14,-270.71 564.42,-262.11"/>
<polygon fill="grey" stroke="grey" stroke-width="2" points="567.81,-261.22 562.42,-252.1 560.95,-262.6 567.81,-261.22"/>
</g>
<!-- 18 -->
<g id="node19" class="node">
<title>18</title>
<path fill="none" stroke="#68d856" stroke-width="2" d="M722,-396C722,-396 570,-396 570,-396 564,-396 558,-390 558,-384 558,-384 558,-372 558,-372 558,-366 564,-360 570,-360 570,-360 722,-360 722,-360 728,-360 734,-366 734,-372 734,-372 734,-384 734,-384 734,-390 728,-396 722,-396"/>
<text text-anchor="middle" x="646" y="-375.5" font-family="sans" font-size="10.00">download_MUTATION_processed</text>
</g>
<!-- 18&#45;&gt;17 -->
<g id="edge22" class="edge">
<title>18&#45;&gt;17</title>
<path fill="none" stroke="grey" stroke-width="2" d="M627.96,-359.7C618.94,-351.05 607.88,-340.45 598.06,-331.03"/>
<polygon fill="grey" stroke="grey" stroke-width="2" points="600.48,-328.5 590.84,-324.1 595.63,-333.55 600.48,-328.5"/>
</g>
<!-- 19 -->
<g id="node20" class="node">
<title>19</title>
<path fill="none" stroke="#56d863" stroke-width="2" d="M726,-180C726,-180 566,-180 566,-180 560,-180 554,-174 554,-168 554,-168 554,-156 554,-156 554,-150 560,-144 566,-144 566,-144 726,-144 726,-144 732,-144 738,-150 738,-156 738,-156 738,-168 738,-168 738,-174 732,-180 726,-180"/>
<text text-anchor="middle" x="646" y="-159.5" font-family="sans" font-size="10.00">fit_treatmentResponseExperiment</text>
</g>
<!-- 19&#45;&gt;1 -->
<g id="edge6" class="edge">
<title>19&#45;&gt;1</title>
<path fill="none" stroke="grey" stroke-width="2" d="M583.7,-143.97C544.68,-133.3 494.48,-119.57 454.97,-108.76"/>
<polygon fill="grey" stroke="grey" stroke-width="2" points="455.73,-105.35 445.16,-106.08 453.89,-112.1 455.73,-105.35"/>
</g>
<!-- 20&#45;&gt;19 -->
<g id="edge24" class="edge">
<title>20&#45;&gt;19</title>
<path fill="none" stroke="grey" stroke-width="2" d="M710.62,-287.77C693.91,-279.38 676.39,-267.65 665,-252 651.96,-234.08 647.5,-209.09 646.14,-190.14"/>
<polygon fill="grey" stroke="grey" stroke-width="2" points="649.63,-189.88 645.66,-180.06 642.64,-190.21 649.63,-189.88"/>
</g>
<!-- 22 -->
<g id="node23" class="node">
<title>22</title>
<path fill="none" stroke="#56d0d8" stroke-width="2" d="M860,-252C860,-252 686,-252 686,-252 680,-252 674,-246 674,-240 674,-240 674,-228 674,-228 674,-222 680,-216 686,-216 686,-216 860,-216 860,-216 866,-216 872,-222 872,-228 872,-228 872,-240 872,-240 872,-246 866,-252 860,-252"/>
<text text-anchor="middle" x="773" y="-231.5" font-family="sans" font-size="10.00">build_treatmentResponseExperiment</text>
</g>
<!-- 20&#45;&gt;22 -->
<g id="edge28" class="edge">
<title>20&#45;&gt;22</title>
<path fill="none" stroke="grey" stroke-width="2" d="M760.96,-287.7C762.72,-279.98 764.84,-270.71 766.8,-262.11"/>
<polygon fill="grey" stroke="grey" stroke-width="2" points="770.27,-262.63 769.09,-252.1 763.45,-261.07 770.27,-262.63"/>
</g>
<!-- 21 -->
<g id="node22" class="node">
<title>21</title>
<path fill="none" stroke="#56b1d8" stroke-width="2" d="M905.5,-396C905.5,-396 764.5,-396 764.5,-396 758.5,-396 752.5,-390 752.5,-384 752.5,-384 752.5,-372 752.5,-372 752.5,-366 758.5,-360 764.5,-360 764.5,-360 905.5,-360 905.5,-360 911.5,-360 917.5,-366 917.5,-372 917.5,-372 917.5,-384 917.5,-384 917.5,-390 911.5,-396 905.5,-396"/>
<text text-anchor="middle" x="835" y="-375.5" font-family="sans" font-size="10.00">download_treatmentResponse</text>
</g>
<!-- 21&#45;&gt;20 -->
<g id="edge26" class="edge">
<title>21&#45;&gt;20</title>
<path fill="none" stroke="grey" stroke-width="2" d="M815.72,-359.7C806.08,-351.05 794.27,-340.45 783.77,-331.03"/>
<polygon fill="grey" stroke="grey" stroke-width="2" points="785.84,-328.18 776.06,-324.1 781.16,-333.39 785.84,-328.18"/>
</g>
<!-- 22&#45;&gt;19 -->
<g id="edge25" class="edge">
<title>22&#45;&gt;19</title>
<path fill="none" stroke="grey" stroke-width="2" d="M741.93,-215.88C725.17,-206.64 704.29,-195.13 686.3,-185.21"/>
<polygon fill="grey" stroke="grey" stroke-width="2" points="687.63,-181.95 677.19,-180.19 684.26,-188.08 687.63,-181.95"/>
</g>
</g>
</svg>
