<?xml version="1.0" encoding="UTF-8" standalone="no"?>
<!DOCTYPE svg PUBLIC "-//W3C//DTD SVG 1.1//EN"
 "http://www.w3.org/Graphics/SVG/1.1/DTD/svg11.dtd">
<!-- Generated by graphviz version 2.43.0 (0)
 -->
<!-- Title: snakemake_dag Pages: 1 -->
<svg width="738pt" height="332pt"
 viewBox="0.00 0.00 737.50 332.00" xmlns="http://www.w3.org/2000/svg" xmlns:xlink="http://www.w3.org/1999/xlink">
<g id="graph0" class="graph" transform="scale(1 1) rotate(0) translate(4 328)">
<title>snakemake_dag</title>
<polygon fill="white" stroke="transparent" points="-4,4 -4,-328 733.5,-328 733.5,4 -4,4"/>
<!-- 0 -->
<g id="node1" class="node">
<title>0</title>
<path fill="none" stroke="#569ad8" stroke-width="2" d="M388.5,-36C388.5,-36 302.5,-36 302.5,-36 296.5,-36 290.5,-30 290.5,-24 290.5,-24 290.5,-12 290.5,-12 290.5,-6 296.5,0 302.5,0 302.5,0 388.5,0 388.5,0 394.5,0 400.5,-6 400.5,-12 400.5,-12 400.5,-24 400.5,-24 400.5,-30 394.5,-36 388.5,-36"/>
<text text-anchor="middle" x="345.5" y="-15.5" font-family="sans" font-size="10.00">build_PharmacoSet</text>
</g>
<!-- 1 -->
<g id="node2" class="node">
<title>1</title>
<path fill="none" stroke="#d85656" stroke-width="2" d="M397.5,-252C397.5,-252 293.5,-252 293.5,-252 287.5,-252 281.5,-246 281.5,-240 281.5,-240 281.5,-228 281.5,-228 281.5,-222 287.5,-216 293.5,-216 293.5,-216 397.5,-216 397.5,-216 403.5,-216 409.5,-222 409.5,-228 409.5,-228 409.5,-240 409.5,-240 409.5,-246 403.5,-252 397.5,-252"/>
<text text-anchor="middle" x="345.5" y="-231.5" font-family="sans" font-size="10.00">preprocess_METADATA</text>
</g>
<!-- 1&#45;&gt;0 -->
<g id="edge2" class="edge">
<title>1&#45;&gt;0</title>
<path fill="none" stroke="grey" stroke-width="2" d="M345.5,-215.85C345.5,-178.83 345.5,-91.18 345.5,-46.39"/>
<polygon fill="grey" stroke="grey" stroke-width="2" points="349,-46.23 345.5,-36.23 342,-46.23 349,-46.23"/>
</g>
<!-- 6 -->
<g id="node7" class="node">
<title>6</title>
<path fill="none" stroke="#56c9d8" stroke-width="2" d="M171.5,-180C171.5,-180 99.5,-180 99.5,-180 93.5,-180 87.5,-174 87.5,-168 87.5,-168 87.5,-156 87.5,-156 87.5,-150 93.5,-144 99.5,-144 99.5,-144 171.5,-144 171.5,-144 177.5,-144 183.5,-150 183.5,-156 183.5,-156 183.5,-168 183.5,-168 183.5,-174 177.5,-180 171.5,-180"/>
<text text-anchor="middle" x="135.5" y="-159.5" font-family="sans" font-size="10.00">preprocess_CNV</text>
</g>
<!-- 1&#45;&gt;6 -->
<g id="edge11" class="edge">
<title>1&#45;&gt;6</title>
<path fill="none" stroke="grey" stroke-width="2" d="M294.4,-215.97C263.81,-205.77 224.85,-192.78 193.17,-182.22"/>
<polygon fill="grey" stroke="grey" stroke-width="2" points="194.18,-178.87 183.58,-179.03 191.96,-185.51 194.18,-178.87"/>
</g>
<!-- 9 -->
<g id="node10" class="node">
<title>9</title>
<path fill="none" stroke="#bed856" stroke-width="2" d="M305.5,-180C305.5,-180 213.5,-180 213.5,-180 207.5,-180 201.5,-174 201.5,-168 201.5,-168 201.5,-156 201.5,-156 201.5,-150 207.5,-144 213.5,-144 213.5,-144 305.5,-144 305.5,-144 311.5,-144 317.5,-150 317.5,-156 317.5,-156 317.5,-168 317.5,-168 317.5,-174 311.5,-180 305.5,-180"/>
<text text-anchor="middle" x="259.5" y="-159.5" font-family="sans" font-size="10.00">preprocess_RNASEQ</text>
</g>
<!-- 1&#45;&gt;9 -->
<g id="edge14" class="edge">
<title>1&#45;&gt;9</title>
<path fill="none" stroke="grey" stroke-width="2" d="M324.24,-215.7C313.41,-206.88 300.08,-196.03 288.34,-186.47"/>
<polygon fill="grey" stroke="grey" stroke-width="2" points="290.48,-183.7 280.51,-180.1 286.06,-189.13 290.48,-183.7"/>
</g>
<!-- 12 -->
<g id="node13" class="node">
<title>12</title>
<path fill="none" stroke="#78d856" stroke-width="2" d="M475,-180C475,-180 386,-180 386,-180 380,-180 374,-174 374,-168 374,-168 374,-156 374,-156 374,-150 380,-144 386,-144 386,-144 475,-144 475,-144 481,-144 487,-150 487,-156 487,-156 487,-168 487,-168 487,-174 481,-180 475,-180"/>
<text text-anchor="middle" x="430.5" y="-159.5" font-family="sans" font-size="10.00">preprocess_FUSION</text>
</g>
<!-- 1&#45;&gt;12 -->
<g id="edge17" class="edge">
<title>1&#45;&gt;12</title>
<path fill="none" stroke="grey" stroke-width="2" d="M366.51,-215.7C377.22,-206.88 390.39,-196.03 402,-186.47"/>
<polygon fill="grey" stroke="grey" stroke-width="2" points="404.24,-189.16 409.73,-180.1 399.79,-183.76 404.24,-189.16"/>
</g>
<!-- 15 -->
<g id="node16" class="node">
<title>15</title>
<path fill="none" stroke="#a7d856" stroke-width="2" d="M620,-180C620,-180 517,-180 517,-180 511,-180 505,-174 505,-168 505,-168 505,-156 505,-156 505,-150 511,-144 517,-144 517,-144 620,-144 620,-144 626,-144 632,-150 632,-156 632,-156 632,-168 632,-168 632,-174 626,-180 620,-180"/>
<text text-anchor="middle" x="568.5" y="-159.5" font-family="sans" font-size="10.00">preprocess_MUTATION</text>
</g>
<!-- 1&#45;&gt;15 -->
<g id="edge20" class="edge">
<title>1&#45;&gt;15</title>
<path fill="none" stroke="grey" stroke-width="2" d="M399.77,-215.97C431.33,-206.06 471.29,-193.51 504.4,-183.12"/>
<polygon fill="grey" stroke="grey" stroke-width="2" points="505.5,-186.45 513.99,-180.11 503.4,-179.77 505.5,-186.45"/>
</g>
<!-- 2 -->
<g id="node3" class="node">
<title>2</title>
<path fill="none" stroke="#56d892" stroke-width="2" d="M235,-324C235,-324 112,-324 112,-324 106,-324 100,-318 100,-312 100,-312 100,-300 100,-300 100,-294 106,-288 112,-288 112,-288 235,-288 235,-288 241,-288 247,-294 247,-300 247,-300 247,-312 247,-312 247,-318 241,-324 235,-324"/>
<text text-anchor="middle" x="173.5" y="-303.5" font-family="sans" font-size="10.00">downloadSampleMetadata</text>
</g>
<!-- 2&#45;&gt;1 -->
<g id="edge6" class="edge">
<title>2&#45;&gt;1</title>
<path fill="none" stroke="grey" stroke-width="2" d="M215.58,-287.88C239.3,-278.22 269.12,-266.09 294.2,-255.88"/>
<polygon fill="grey" stroke="grey" stroke-width="2" points="295.62,-259.08 303.56,-252.07 292.98,-252.6 295.62,-259.08"/>
</g>
<!-- 3 -->
<g id="node4" class="node">
<title>3</title>
<path fill="none" stroke="#56d8a2" stroke-width="2" d="M413.5,-324C413.5,-324 277.5,-324 277.5,-324 271.5,-324 265.5,-318 265.5,-312 265.5,-312 265.5,-300 265.5,-300 265.5,-294 271.5,-288 277.5,-288 277.5,-288 413.5,-288 413.5,-288 419.5,-288 425.5,-294 425.5,-300 425.5,-300 425.5,-312 425.5,-312 425.5,-318 419.5,-324 413.5,-324"/>
<text text-anchor="middle" x="345.5" y="-303.5" font-family="sans" font-size="10.00">downloadTreatmentMetadata</text>
</g>
<!-- 3&#45;&gt;1 -->
<g id="edge7" class="edge">
<title>3&#45;&gt;1</title>
<path fill="none" stroke="grey" stroke-width="2" d="M345.5,-287.7C345.5,-279.98 345.5,-270.71 345.5,-262.11"/>
<polygon fill="grey" stroke="grey" stroke-width="2" points="349,-262.1 345.5,-252.1 342,-262.1 349,-262.1"/>
</g>
<!-- 4 -->
<g id="node5" class="node">
<title>4</title>
<path fill="none" stroke="#566bd8" stroke-width="2" d="M637.5,-324C637.5,-324 455.5,-324 455.5,-324 449.5,-324 443.5,-318 443.5,-312 443.5,-312 443.5,-300 443.5,-300 443.5,-294 449.5,-288 455.5,-288 455.5,-288 637.5,-288 637.5,-288 643.5,-288 649.5,-294 649.5,-300 649.5,-300 649.5,-312 649.5,-312 649.5,-318 643.5,-324 637.5,-324"/>
<text text-anchor="middle" x="546.5" y="-303.5" font-family="sans" font-size="10.00">downloadCellModelPassportsMetadata</text>
</g>
<!-- 4&#45;&gt;1 -->
<g id="edge8" class="edge">
<title>4&#45;&gt;1</title>
<path fill="none" stroke="grey" stroke-width="2" d="M497.59,-287.97C469.5,-278.19 434.04,-265.84 404.43,-255.52"/>
<polygon fill="grey" stroke="grey" stroke-width="2" points="405.23,-252.09 394.63,-252.11 402.93,-258.71 405.23,-252.09"/>
</g>
<!-- 5 -->
<g id="node6" class="node">
<title>5</title>
<path fill="none" stroke="#56b1d8" stroke-width="2" d="M172,-108C172,-108 109,-108 109,-108 103,-108 97,-102 97,-96 97,-96 97,-84 97,-84 97,-78 103,-72 109,-72 109,-72 172,-72 172,-72 178,-72 184,-78 184,-84 184,-84 184,-96 184,-96 184,-102 178,-108 172,-108"/>
<text text-anchor="middle" x="140.5" y="-87.5" font-family="sans" font-size="10.00">make_CNV_SE</text>
</g>
<!-- 5&#45;&gt;0 -->
<g id="edge3" class="edge">
<title>5&#45;&gt;0</title>
<path fill="none" stroke="grey" stroke-width="2" d="M184.23,-74.07C213.75,-63.99 253.09,-50.56 285.52,-39.48"/>
<polygon fill="grey" stroke="grey" stroke-width="2" points="287.02,-42.67 295.35,-36.12 284.75,-36.04 287.02,-42.67"/>
</g>
<!-- 6&#45;&gt;5 -->
<g id="edge9" class="edge">
<title>6&#45;&gt;5</title>
<path fill="none" stroke="grey" stroke-width="2" d="M136.74,-143.7C137.29,-135.98 137.95,-126.71 138.56,-118.11"/>
<polygon fill="grey" stroke="grey" stroke-width="2" points="142.06,-118.33 139.28,-108.1 135.07,-117.83 142.06,-118.33"/>
</g>
<!-- 7 -->
<g id="node8" class="node">
<title>7</title>
<path fill="none" stroke="#61d856" stroke-width="2" d="M123,-252C123,-252 12,-252 12,-252 6,-252 0,-246 0,-240 0,-240 0,-228 0,-228 0,-222 6,-216 12,-216 12,-216 123,-216 123,-216 129,-216 135,-222 135,-228 135,-228 135,-240 135,-240 135,-246 129,-252 123,-252"/>
<text text-anchor="middle" x="67.5" y="-231.5" font-family="sans" font-size="10.00">downloadCNV_WESData</text>
</g>
<!-- 7&#45;&gt;6 -->
<g id="edge10" class="edge">
<title>7&#45;&gt;6</title>
<path fill="none" stroke="grey" stroke-width="2" d="M84.31,-215.7C92.63,-207.14 102.81,-196.66 111.89,-187.3"/>
<polygon fill="grey" stroke="grey" stroke-width="2" points="114.43,-189.72 118.88,-180.1 109.41,-184.84 114.43,-189.72"/>
</g>
<!-- 8 -->
<g id="node9" class="node">
<title>8</title>
<path fill="none" stroke="#d6d856" stroke-width="2" d="M303,-108C303,-108 220,-108 220,-108 214,-108 208,-102 208,-96 208,-96 208,-84 208,-84 208,-78 214,-72 220,-72 220,-72 303,-72 303,-72 309,-72 315,-78 315,-84 315,-84 315,-96 315,-96 315,-102 309,-108 303,-108"/>
<text text-anchor="middle" x="261.5" y="-87.5" font-family="sans" font-size="10.00">make_RNASEQ_SE</text>
</g>
<!-- 8&#45;&gt;0 -->
<g id="edge4" class="edge">
<title>8&#45;&gt;0</title>
<path fill="none" stroke="grey" stroke-width="2" d="M282.26,-71.7C292.74,-62.97 305.61,-52.24 317,-42.75"/>
<polygon fill="grey" stroke="grey" stroke-width="2" points="319.53,-45.19 324.97,-36.1 315.05,-39.82 319.53,-45.19"/>
</g>
<!-- 9&#45;&gt;8 -->
<g id="edge12" class="edge">
<title>9&#45;&gt;8</title>
<path fill="none" stroke="grey" stroke-width="2" d="M259.99,-143.7C260.21,-135.98 260.48,-126.71 260.73,-118.11"/>
<polygon fill="grey" stroke="grey" stroke-width="2" points="264.22,-118.2 261.01,-108.1 257.23,-118 264.22,-118.2"/>
</g>
<!-- 10 -->
<g id="node11" class="node">
<title>10</title>
<path fill="none" stroke="#d88556" stroke-width="2" d="M251.5,-252C251.5,-252 165.5,-252 165.5,-252 159.5,-252 153.5,-246 153.5,-240 153.5,-240 153.5,-228 153.5,-228 153.5,-222 159.5,-216 165.5,-216 165.5,-216 251.5,-216 251.5,-216 257.5,-216 263.5,-222 263.5,-228 263.5,-228 263.5,-240 263.5,-240 263.5,-246 257.5,-252 251.5,-252"/>
<text text-anchor="middle" x="208.5" y="-231.5" font-family="sans" font-size="10.00">download_RNASEQ</text>
</g>
<!-- 10&#45;&gt;9 -->
<g id="edge13" class="edge">
<title>10&#45;&gt;9</title>
<path fill="none" stroke="grey" stroke-width="2" d="M221.11,-215.7C227.1,-207.47 234.38,-197.48 240.98,-188.42"/>
<polygon fill="grey" stroke="grey" stroke-width="2" points="243.98,-190.25 247.04,-180.1 238.32,-186.13 243.98,-190.25"/>
</g>
<!-- 11 -->
<g id="node12" class="node">
<title>11</title>
<path fill="none" stroke="#56d8b9" stroke-width="2" d="M467.5,-108C467.5,-108 387.5,-108 387.5,-108 381.5,-108 375.5,-102 375.5,-96 375.5,-96 375.5,-84 375.5,-84 375.5,-78 381.5,-72 387.5,-72 387.5,-72 467.5,-72 467.5,-72 473.5,-72 479.5,-78 479.5,-84 479.5,-84 479.5,-96 479.5,-96 479.5,-102 473.5,-108 467.5,-108"/>
<text text-anchor="middle" x="427.5" y="-87.5" font-family="sans" font-size="10.00">make_FUSION_SE</text>
</g>
<!-- 11&#45;&gt;0 -->
<g id="edge1" class="edge">
<title>11&#45;&gt;0</title>
<path fill="none" stroke="grey" stroke-width="2" d="M407.23,-71.7C397,-62.97 384.44,-52.24 373.32,-42.75"/>
<polygon fill="grey" stroke="grey" stroke-width="2" points="375.41,-39.94 365.54,-36.1 370.87,-45.26 375.41,-39.94"/>
</g>
<!-- 12&#45;&gt;11 -->
<g id="edge15" class="edge">
<title>12&#45;&gt;11</title>
<path fill="none" stroke="grey" stroke-width="2" d="M429.76,-143.7C429.43,-135.98 429.03,-126.71 428.66,-118.11"/>
<polygon fill="grey" stroke="grey" stroke-width="2" points="432.16,-117.95 428.23,-108.1 425.16,-118.25 432.16,-117.95"/>
</g>
<!-- 13 -->
<g id="node14" class="node">
<title>13</title>
<path fill="none" stroke="#56d8d0" stroke-width="2" d="M523,-252C523,-252 440,-252 440,-252 434,-252 428,-246 428,-240 428,-240 428,-228 428,-228 428,-222 434,-216 440,-216 440,-216 523,-216 523,-216 529,-216 535,-222 535,-228 535,-228 535,-240 535,-240 535,-246 529,-252 523,-252"/>
<text text-anchor="middle" x="481.5" y="-231.5" font-family="sans" font-size="10.00">download_FUSION</text>
</g>
<!-- 13&#45;&gt;12 -->
<g id="edge16" class="edge">
<title>13&#45;&gt;12</title>
<path fill="none" stroke="grey" stroke-width="2" d="M468.89,-215.7C462.9,-207.47 455.62,-197.48 449.02,-188.42"/>
<polygon fill="grey" stroke="grey" stroke-width="2" points="451.68,-186.13 442.96,-180.1 446.02,-190.25 451.68,-186.13"/>
</g>
<!-- 14 -->
<g id="node15" class="node">
<title>14</title>
<path fill="none" stroke="#5682d8" stroke-width="2" d="M609.5,-108C609.5,-108 515.5,-108 515.5,-108 509.5,-108 503.5,-102 503.5,-96 503.5,-96 503.5,-84 503.5,-84 503.5,-78 509.5,-72 515.5,-72 515.5,-72 609.5,-72 609.5,-72 615.5,-72 621.5,-78 621.5,-84 621.5,-84 621.5,-96 621.5,-96 621.5,-102 615.5,-108 609.5,-108"/>
<text text-anchor="middle" x="562.5" y="-87.5" font-family="sans" font-size="10.00">make_MUTATION_SE</text>
</g>
<!-- 14&#45;&gt;0 -->
<g id="edge5" class="edge">
<title>14&#45;&gt;0</title>
<path fill="none" stroke="grey" stroke-width="2" d="M509.69,-71.97C479.11,-62.1 440.43,-49.62 408.29,-39.25"/>
<polygon fill="grey" stroke="grey" stroke-width="2" points="409.14,-35.85 398.54,-36.11 406.99,-42.51 409.14,-35.85"/>
</g>
<!-- 15&#45;&gt;14 -->
<g id="edge18" class="edge">
<title>15&#45;&gt;14</title>
<path fill="none" stroke="grey" stroke-width="2" d="M567.02,-143.7C566.36,-135.98 565.56,-126.71 564.82,-118.11"/>
<polygon fill="grey" stroke="grey" stroke-width="2" points="568.31,-117.77 563.97,-108.1 561.33,-118.37 568.31,-117.77"/>
</g>
<!-- 16 -->
<g id="node17" class="node">
<title>16</title>
<path fill="none" stroke="#d8c356" stroke-width="2" d="M717.5,-252C717.5,-252 565.5,-252 565.5,-252 559.5,-252 553.5,-246 553.5,-240 553.5,-240 553.5,-228 553.5,-228 553.5,-222 559.5,-216 565.5,-216 565.5,-216 717.5,-216 717.5,-216 723.5,-216 729.5,-222 729.5,-228 729.5,-228 729.5,-240 729.5,-240 729.5,-246 723.5,-252 717.5,-252"/>
<text text-anchor="middle" x="641.5" y="-231.5" font-family="sans" font-size="10.00">download_MUTATION_processed</text>
</g>
<!-- 16&#45;&gt;15 -->
<g id="edge19" class="edge">
<title>16&#45;&gt;15</title>
<path fill="none" stroke="grey" stroke-width="2" d="M623.46,-215.7C614.44,-207.05 603.38,-196.45 593.56,-187.03"/>
<polygon fill="grey" stroke="grey" stroke-width="2" points="595.98,-184.5 586.34,-180.1 591.13,-189.55 595.98,-184.5"/>
</g>
</g>
</svg>
