<?xml version="1.0" encoding="UTF-8" standalone="no"?>
<!DOCTYPE svg PUBLIC "-//W3C//DTD SVG 1.1//EN"
 "http://www.w3.org/Graphics/SVG/1.1/DTD/svg11.dtd">
<!-- Generated by graphviz version 2.43.0 (0)
 -->
<!-- Title: snakemake_dag Pages: 1 -->
<svg width="977pt" height="260pt"
 viewBox="0.00 0.00 976.50 260.00" xmlns="http://www.w3.org/2000/svg" xmlns:xlink="http://www.w3.org/1999/xlink">
<g id="graph0" class="graph" transform="scale(1 1) rotate(0) translate(4 256)">
<title>snakemake_dag</title>
<polygon fill="white" stroke="transparent" points="-4,4 -4,-256 972.5,-256 972.5,4 -4,4"/>
<!-- 0 -->
<g id="node1" class="node">
<title>0</title>
<path fill="none" stroke="#d8cb56" stroke-width="2" d="M483,-36C483,-36 453,-36 453,-36 447,-36 441,-30 441,-24 441,-24 441,-12 441,-12 441,-6 447,0 453,0 453,0 483,0 483,0 489,0 495,-6 495,-12 495,-12 495,-24 495,-24 495,-30 489,-36 483,-36"/>
<text text-anchor="middle" x="468" y="-15.5" font-family="sans" font-size="10.00">all</text>
</g>
<!-- 1 -->
<g id="node2" class="node">
<title>1</title>
<path fill="none" stroke="#56d892" stroke-width="2" d="M321,-180C321,-180 229,-180 229,-180 223,-180 217,-174 217,-168 217,-168 217,-156 217,-156 217,-150 223,-144 229,-144 229,-144 321,-144 321,-144 327,-144 333,-150 333,-156 333,-156 333,-168 333,-168 333,-174 327,-180 321,-180"/>
<text text-anchor="middle" x="275" y="-159.5" font-family="sans" font-size="10.00">preprocessMetadata</text>
</g>
<!-- 1&#45;&gt;0 -->
<g id="edge3" class="edge">
<title>1&#45;&gt;0</title>
<path fill="none" stroke="grey" stroke-width="2" d="M284.64,-143.8C296.41,-124.13 318,-92.08 344,-72 370.12,-51.82 405.08,-37.8 431.22,-29.26"/>
<polygon fill="grey" stroke="grey" stroke-width="2" points="432.28,-32.6 440.77,-26.26 430.18,-25.92 432.28,-32.6"/>
</g>
<!-- 7 -->
<g id="node8" class="node">
<title>7</title>
<path fill="none" stroke="#56d0d8" stroke-width="2" d="M459,-108C459,-108 365,-108 365,-108 359,-108 353,-102 353,-96 353,-96 353,-84 353,-84 353,-78 359,-72 365,-72 365,-72 459,-72 459,-72 465,-72 471,-78 471,-84 471,-84 471,-96 471,-96 471,-102 465,-108 459,-108"/>
<text text-anchor="middle" x="412" y="-87.5" font-family="sans" font-size="10.00">make_MUTATION_SE</text>
</g>
<!-- 1&#45;&gt;7 -->
<g id="edge10" class="edge">
<title>1&#45;&gt;7</title>
<path fill="none" stroke="grey" stroke-width="2" d="M308.51,-143.88C326.84,-134.51 349.74,-122.81 369.33,-112.8"/>
<polygon fill="grey" stroke="grey" stroke-width="2" points="371.04,-115.86 378.36,-108.19 367.86,-109.62 371.04,-115.86"/>
</g>
<!-- 2 -->
<g id="node3" class="node">
<title>2</title>
<path fill="none" stroke="#d87d56" stroke-width="2" d="M537.5,-252C537.5,-252 414.5,-252 414.5,-252 408.5,-252 402.5,-246 402.5,-240 402.5,-240 402.5,-228 402.5,-228 402.5,-222 408.5,-216 414.5,-216 414.5,-216 537.5,-216 537.5,-216 543.5,-216 549.5,-222 549.5,-228 549.5,-228 549.5,-240 549.5,-240 549.5,-246 543.5,-252 537.5,-252"/>
<text text-anchor="middle" x="476" y="-231.5" font-family="sans" font-size="10.00">downloadSampleMetadata</text>
</g>
<!-- 2&#45;&gt;1 -->
<g id="edge6" class="edge">
<title>2&#45;&gt;1</title>
<path fill="none" stroke="grey" stroke-width="2" d="M427.09,-215.97C399,-206.19 363.54,-193.84 333.93,-183.52"/>
<polygon fill="grey" stroke="grey" stroke-width="2" points="334.73,-180.09 324.13,-180.11 332.43,-186.71 334.73,-180.09"/>
</g>
<!-- 9 -->
<g id="node10" class="node">
<title>9</title>
<path fill="none" stroke="#8fd856" stroke-width="2" d="M595,-180C595,-180 503,-180 503,-180 497,-180 491,-174 491,-168 491,-168 491,-156 491,-156 491,-150 497,-144 503,-144 503,-144 595,-144 595,-144 601,-144 607,-150 607,-156 607,-156 607,-168 607,-168 607,-174 601,-180 595,-180"/>
<text text-anchor="middle" x="549" y="-159.5" font-family="sans" font-size="10.00">preprocess_RNASEQ</text>
</g>
<!-- 2&#45;&gt;9 -->
<g id="edge12" class="edge">
<title>2&#45;&gt;9</title>
<path fill="none" stroke="grey" stroke-width="2" d="M494.04,-215.7C503.06,-207.05 514.12,-196.45 523.94,-187.03"/>
<polygon fill="grey" stroke="grey" stroke-width="2" points="526.37,-189.55 531.16,-180.1 521.52,-184.5 526.37,-189.55"/>
</g>
<!-- 3 -->
<g id="node4" class="node">
<title>3</title>
<path fill="none" stroke="#567bd8" stroke-width="2" d="M148,-252C148,-252 12,-252 12,-252 6,-252 0,-246 0,-240 0,-240 0,-228 0,-228 0,-222 6,-216 12,-216 12,-216 148,-216 148,-216 154,-216 160,-222 160,-228 160,-228 160,-240 160,-240 160,-246 154,-252 148,-252"/>
<text text-anchor="middle" x="80" y="-231.5" font-family="sans" font-size="10.00">downloadTreatmentMetadata</text>
</g>
<!-- 3&#45;&gt;1 -->
<g id="edge5" class="edge">
<title>3&#45;&gt;1</title>
<path fill="none" stroke="grey" stroke-width="2" d="M127.7,-215.88C154.95,-206.09 189.3,-193.77 217.97,-183.47"/>
<polygon fill="grey" stroke="grey" stroke-width="2" points="219.22,-186.74 227.45,-180.07 216.86,-180.15 219.22,-186.74"/>
</g>
<!-- 4 -->
<g id="node5" class="node">
<title>4</title>
<path fill="none" stroke="#b6d856" stroke-width="2" d="M372,-252C372,-252 190,-252 190,-252 184,-252 178,-246 178,-240 178,-240 178,-228 178,-228 178,-222 184,-216 190,-216 190,-216 372,-216 372,-216 378,-216 384,-222 384,-228 384,-228 384,-240 384,-240 384,-246 378,-252 372,-252"/>
<text text-anchor="middle" x="281" y="-231.5" font-family="sans" font-size="10.00">downloadCellModelPassportsMetadata</text>
</g>
<!-- 4&#45;&gt;1 -->
<g id="edge7" class="edge">
<title>4&#45;&gt;1</title>
<path fill="none" stroke="grey" stroke-width="2" d="M279.52,-215.7C278.86,-207.98 278.06,-198.71 277.32,-190.11"/>
<polygon fill="grey" stroke="grey" stroke-width="2" points="280.81,-189.77 276.47,-180.1 273.83,-190.37 280.81,-189.77"/>
</g>
<!-- 4&#45;&gt;9 -->
<g id="edge13" class="edge">
<title>4&#45;&gt;9</title>
<path fill="none" stroke="grey" stroke-width="2" d="M346.22,-215.97C387.1,-205.29 439.7,-191.55 481.08,-180.74"/>
<polygon fill="grey" stroke="grey" stroke-width="2" points="482.01,-184.11 490.8,-178.2 480.24,-177.34 482.01,-184.11"/>
</g>
<!-- 5 -->
<g id="node6" class="node">
<title>5</title>
<path fill="none" stroke="#68d856" stroke-width="2" d="M756.5,-180C756.5,-180 637.5,-180 637.5,-180 631.5,-180 625.5,-174 625.5,-168 625.5,-168 625.5,-156 625.5,-156 625.5,-150 631.5,-144 637.5,-144 637.5,-144 756.5,-144 756.5,-144 762.5,-144 768.5,-150 768.5,-156 768.5,-156 768.5,-168 768.5,-168 768.5,-174 762.5,-180 756.5,-180"/>
<text text-anchor="middle" x="697" y="-159.5" font-family="sans" font-size="10.00">load_MicroArrayMetadata</text>
</g>
<!-- 11 -->
<g id="node12" class="node">
<title>11</title>
<path fill="none" stroke="#56d8b9" stroke-width="2" d="M799,-108C799,-108 695,-108 695,-108 689,-108 683,-102 683,-96 683,-96 683,-84 683,-84 683,-78 689,-72 695,-72 695,-72 799,-72 799,-72 805,-72 811,-78 811,-84 811,-84 811,-96 811,-96 811,-102 805,-108 799,-108"/>
<text text-anchor="middle" x="747" y="-87.5" font-family="sans" font-size="10.00">preprocess_MicroArray</text>
</g>
<!-- 5&#45;&gt;11 -->
<g id="edge16" class="edge">
<title>5&#45;&gt;11</title>
<path fill="none" stroke="grey" stroke-width="2" d="M709.36,-143.7C715.23,-135.47 722.37,-125.48 728.84,-116.42"/>
<polygon fill="grey" stroke="grey" stroke-width="2" points="731.82,-118.28 734.78,-108.1 726.12,-114.21 731.82,-118.28"/>
</g>
<!-- 6 -->
<g id="node7" class="node">
<title>6</title>
<path fill="none" stroke="#56a9d8" stroke-width="2" d="M864.5,-252C864.5,-252 719.5,-252 719.5,-252 713.5,-252 707.5,-246 707.5,-240 707.5,-240 707.5,-228 707.5,-228 707.5,-222 713.5,-216 719.5,-216 719.5,-216 864.5,-216 864.5,-216 870.5,-216 876.5,-222 876.5,-228 876.5,-228 876.5,-240 876.5,-240 876.5,-246 870.5,-252 864.5,-252"/>
<text text-anchor="middle" x="792" y="-231.5" font-family="sans" font-size="10.00">download_MicroArrayMetadata</text>
</g>
<!-- 6&#45;&gt;5 -->
<g id="edge8" class="edge">
<title>6&#45;&gt;5</title>
<path fill="none" stroke="grey" stroke-width="2" d="M768.52,-215.7C756.44,-206.8 741.55,-195.82 728.48,-186.2"/>
<polygon fill="grey" stroke="grey" stroke-width="2" points="730.34,-183.22 720.21,-180.1 726.19,-188.85 730.34,-183.22"/>
</g>
<!-- 6&#45;&gt;11 -->
<g id="edge15" class="edge">
<title>6&#45;&gt;11</title>
<path fill="none" stroke="grey" stroke-width="2" d="M791.19,-215.8C789.9,-197.53 786.57,-168.01 778,-144 774.69,-134.71 769.72,-125.21 764.72,-116.87"/>
<polygon fill="grey" stroke="grey" stroke-width="2" points="767.65,-114.95 759.37,-108.33 761.72,-118.67 767.65,-114.95"/>
</g>
<!-- 7&#45;&gt;0 -->
<g id="edge1" class="edge">
<title>7&#45;&gt;0</title>
<path fill="none" stroke="grey" stroke-width="2" d="M425.84,-71.7C432.49,-63.39 440.58,-53.28 447.89,-44.14"/>
<polygon fill="grey" stroke="grey" stroke-width="2" points="450.8,-46.1 454.32,-36.1 445.34,-41.73 450.8,-46.1"/>
</g>
<!-- 8 -->
<g id="node9" class="node">
<title>8</title>
<path fill="none" stroke="#56d86b" stroke-width="2" d="M460.5,-180C460.5,-180 363.5,-180 363.5,-180 357.5,-180 351.5,-174 351.5,-168 351.5,-168 351.5,-156 351.5,-156 351.5,-150 357.5,-144 363.5,-144 363.5,-144 460.5,-144 460.5,-144 466.5,-144 472.5,-150 472.5,-156 472.5,-156 472.5,-168 472.5,-168 472.5,-174 466.5,-180 460.5,-180"/>
<text text-anchor="middle" x="412" y="-159.5" font-family="sans" font-size="10.00">download_MUTATION</text>
</g>
<!-- 8&#45;&gt;7 -->
<g id="edge9" class="edge">
<title>8&#45;&gt;7</title>
<path fill="none" stroke="grey" stroke-width="2" d="M412,-143.7C412,-135.98 412,-126.71 412,-118.11"/>
<polygon fill="grey" stroke="grey" stroke-width="2" points="415.5,-118.1 412,-108.1 408.5,-118.1 415.5,-118.1"/>
</g>
<!-- 9&#45;&gt;0 -->
<g id="edge4" class="edge">
<title>9&#45;&gt;0</title>
<path fill="none" stroke="grey" stroke-width="2" d="M539.23,-143.87C525.18,-119.24 499.17,-73.64 482.77,-44.88"/>
<polygon fill="grey" stroke="grey" stroke-width="2" points="485.8,-43.14 477.81,-36.19 479.72,-46.61 485.8,-43.14"/>
</g>
<!-- 10 -->
<g id="node11" class="node">
<title>10</title>
<path fill="none" stroke="#d8a456" stroke-width="2" d="M666,-252C666,-252 580,-252 580,-252 574,-252 568,-246 568,-240 568,-240 568,-228 568,-228 568,-222 574,-216 580,-216 580,-216 666,-216 666,-216 672,-216 678,-222 678,-228 678,-228 678,-240 678,-240 678,-246 672,-252 666,-252"/>
<text text-anchor="middle" x="623" y="-231.5" font-family="sans" font-size="10.00">download_RNASEQ</text>
</g>
<!-- 10&#45;&gt;9 -->
<g id="edge11" class="edge">
<title>10&#45;&gt;9</title>
<path fill="none" stroke="grey" stroke-width="2" d="M604.71,-215.7C595.57,-207.05 584.36,-196.45 574.4,-187.03"/>
<polygon fill="grey" stroke="grey" stroke-width="2" points="576.75,-184.43 567.08,-180.1 571.94,-189.52 576.75,-184.43"/>
</g>
<!-- 11&#45;&gt;0 -->
<g id="edge2" class="edge">
<title>11&#45;&gt;0</title>
<path fill="none" stroke="grey" stroke-width="2" d="M682.99,-72.94C627.92,-59.12 550.38,-39.67 505.04,-28.29"/>
<polygon fill="grey" stroke="grey" stroke-width="2" points="505.6,-24.83 495.05,-25.79 503.9,-31.62 505.6,-24.83"/>
</g>
<!-- 12 -->
<g id="node13" class="node">
<title>12</title>
<path fill="none" stroke="#d85656" stroke-width="2" d="M956.5,-180C956.5,-180 837.5,-180 837.5,-180 831.5,-180 825.5,-174 825.5,-168 825.5,-168 825.5,-156 825.5,-156 825.5,-150 831.5,-144 837.5,-144 837.5,-144 956.5,-144 956.5,-144 962.5,-144 968.5,-150 968.5,-156 968.5,-156 968.5,-168 968.5,-168 968.5,-174 962.5,-180 956.5,-180"/>
<text text-anchor="middle" x="897" y="-159.5" font-family="sans" font-size="10.00">download_MicroArrayFILE</text>
</g>
<!-- 12&#45;&gt;11 -->
<g id="edge14" class="edge">
<title>12&#45;&gt;11</title>
<path fill="none" stroke="grey" stroke-width="2" d="M860.31,-143.88C839.98,-134.39 814.53,-122.51 792.9,-112.42"/>
<polygon fill="grey" stroke="grey" stroke-width="2" points="794.12,-109.13 783.57,-108.07 791.16,-115.47 794.12,-109.13"/>
</g>
</g>
</svg>
