<?xml version="1.0" encoding="UTF-8" standalone="no"?>
<!DOCTYPE svg PUBLIC "-//W3C//DTD SVG 1.1//EN"
 "http://www.w3.org/Graphics/SVG/1.1/DTD/svg11.dtd">
<!-- Generated by graphviz version 2.43.0 (0)
 -->
<!-- Title: snakemake_dag Pages: 1 -->
<svg width="875pt" height="332pt"
 viewBox="0.00 0.00 874.50 332.00" xmlns="http://www.w3.org/2000/svg" xmlns:xlink="http://www.w3.org/1999/xlink">
<g id="graph0" class="graph" transform="scale(1 1) rotate(0) translate(4 328)">
<title>snakemake_dag</title>
<polygon fill="white" stroke="transparent" points="-4,4 -4,-328 870.5,-328 870.5,4 -4,4"/>
<!-- 0 -->
<g id="node1" class="node">
<title>0</title>
<path fill="none" stroke="#bed856" stroke-width="2" d="M338,-36C338,-36 308,-36 308,-36 302,-36 296,-30 296,-24 296,-24 296,-12 296,-12 296,-6 302,0 308,0 308,0 338,0 338,0 344,0 350,-6 350,-12 350,-12 350,-24 350,-24 350,-30 344,-36 338,-36"/>
<text text-anchor="middle" x="323" y="-15.5" font-family="sans" font-size="10.00">all</text>
</g>
<!-- 1 -->
<g id="node2" class="node">
<title>1</title>
<path fill="none" stroke="#88d856" stroke-width="2" d="M330,-252C330,-252 238,-252 238,-252 232,-252 226,-246 226,-240 226,-240 226,-228 226,-228 226,-222 232,-216 238,-216 238,-216 330,-216 330,-216 336,-216 342,-222 342,-228 342,-228 342,-240 342,-240 342,-246 336,-252 330,-252"/>
<text text-anchor="middle" x="284" y="-231.5" font-family="sans" font-size="10.00">preprocessMetadata</text>
</g>
<!-- 1&#45;&gt;0 -->
<g id="edge3" class="edge">
<title>1&#45;&gt;0</title>
<path fill="none" stroke="grey" stroke-width="2" d="M291.33,-215.63C295.35,-205.42 300.1,-192.17 303,-180 314.03,-133.72 319.21,-78.42 321.46,-46.16"/>
<polygon fill="grey" stroke="grey" stroke-width="2" points="324.95,-46.35 322.11,-36.14 317.97,-45.89 324.95,-46.35"/>
</g>
<!-- 7 -->
<g id="node8" class="node">
<title>7</title>
<path fill="none" stroke="#5692d8" stroke-width="2" d="M135,-180C135,-180 41,-180 41,-180 35,-180 29,-174 29,-168 29,-168 29,-156 29,-156 29,-150 35,-144 41,-144 41,-144 135,-144 135,-144 141,-144 147,-150 147,-156 147,-156 147,-168 147,-168 147,-174 141,-180 135,-180"/>
<text text-anchor="middle" x="88" y="-159.5" font-family="sans" font-size="10.00">make_MUTATION_SE</text>
</g>
<!-- 1&#45;&gt;7 -->
<g id="edge10" class="edge">
<title>1&#45;&gt;7</title>
<path fill="none" stroke="grey" stroke-width="2" d="M236.3,-215.97C208.92,-206.19 174.34,-193.84 145.47,-183.52"/>
<polygon fill="grey" stroke="grey" stroke-width="2" points="146.5,-180.18 135.91,-180.11 144.15,-186.77 146.5,-180.18"/>
</g>
<!-- 9 -->
<g id="node10" class="node">
<title>9</title>
<path fill="none" stroke="#d8d356" stroke-width="2" d="M446.5,-108C446.5,-108 363.5,-108 363.5,-108 357.5,-108 351.5,-102 351.5,-96 351.5,-96 351.5,-84 351.5,-84 351.5,-78 357.5,-72 363.5,-72 363.5,-72 446.5,-72 446.5,-72 452.5,-72 458.5,-78 458.5,-84 458.5,-84 458.5,-96 458.5,-96 458.5,-102 452.5,-108 446.5,-108"/>
<text text-anchor="middle" x="405" y="-87.5" font-family="sans" font-size="10.00">make_RNASEQ_SE</text>
</g>
<!-- 1&#45;&gt;9 -->
<g id="edge13" class="edge">
<title>1&#45;&gt;9</title>
<path fill="none" stroke="grey" stroke-width="2" d="M302.27,-215.9C312.78,-205.78 326.03,-192.53 337,-180 354.94,-159.5 373.61,-134.79 386.83,-116.61"/>
<polygon fill="grey" stroke="grey" stroke-width="2" points="389.85,-118.42 392.86,-108.26 384.17,-114.32 389.85,-118.42"/>
</g>
<!-- 10 -->
<g id="node11" class="node">
<title>10</title>
<path fill="none" stroke="#56d863" stroke-width="2" d="M493,-180C493,-180 401,-180 401,-180 395,-180 389,-174 389,-168 389,-168 389,-156 389,-156 389,-150 395,-144 401,-144 401,-144 493,-144 493,-144 499,-144 505,-150 505,-156 505,-156 505,-168 505,-168 505,-174 499,-180 493,-180"/>
<text text-anchor="middle" x="447" y="-159.5" font-family="sans" font-size="10.00">preprocess_RNASEQ</text>
</g>
<!-- 1&#45;&gt;10 -->
<g id="edge14" class="edge">
<title>1&#45;&gt;10</title>
<path fill="none" stroke="grey" stroke-width="2" d="M323.87,-215.88C346.16,-206.31 374.12,-194.3 397.76,-184.15"/>
<polygon fill="grey" stroke="grey" stroke-width="2" points="399.45,-187.23 407.26,-180.07 396.69,-180.8 399.45,-187.23"/>
</g>
<!-- 12 -->
<g id="node13" class="node">
<title>12</title>
<path fill="none" stroke="#9fd856" stroke-width="2" d="M280.5,-108C280.5,-108 217.5,-108 217.5,-108 211.5,-108 205.5,-102 205.5,-96 205.5,-96 205.5,-84 205.5,-84 205.5,-78 211.5,-72 217.5,-72 217.5,-72 280.5,-72 280.5,-72 286.5,-72 292.5,-78 292.5,-84 292.5,-84 292.5,-96 292.5,-96 292.5,-102 286.5,-108 280.5,-108"/>
<text text-anchor="middle" x="249" y="-87.5" font-family="sans" font-size="10.00">make_CNV_SE</text>
</g>
<!-- 1&#45;&gt;12 -->
<g id="edge17" class="edge">
<title>1&#45;&gt;12</title>
<path fill="none" stroke="grey" stroke-width="2" d="M235.44,-215.97C219.33,-207.73 203.18,-196.06 194,-180 186.06,-166.11 187.74,-158.72 194,-144 198.73,-132.86 207.08,-122.93 215.87,-114.76"/>
<polygon fill="grey" stroke="grey" stroke-width="2" points="218.35,-117.24 223.62,-108.05 213.77,-111.95 218.35,-117.24"/>
</g>
<!-- 13 -->
<g id="node14" class="node">
<title>13</title>
<path fill="none" stroke="#d85656" stroke-width="2" d="M282.5,-180C282.5,-180 215.5,-180 215.5,-180 209.5,-180 203.5,-174 203.5,-168 203.5,-168 203.5,-156 203.5,-156 203.5,-150 209.5,-144 215.5,-144 215.5,-144 282.5,-144 282.5,-144 288.5,-144 294.5,-150 294.5,-156 294.5,-156 294.5,-168 294.5,-168 294.5,-174 288.5,-180 282.5,-180"/>
<text text-anchor="middle" x="249" y="-159.5" font-family="sans" font-size="10.00">preprocessCNV</text>
</g>
<!-- 1&#45;&gt;13 -->
<g id="edge18" class="edge">
<title>1&#45;&gt;13</title>
<path fill="none" stroke="grey" stroke-width="2" d="M275.35,-215.7C271.36,-207.73 266.55,-198.1 262.13,-189.26"/>
<polygon fill="grey" stroke="grey" stroke-width="2" points="265.15,-187.48 257.55,-180.1 258.89,-190.61 265.15,-187.48"/>
</g>
<!-- 2 -->
<g id="node3" class="node">
<title>2</title>
<path fill="none" stroke="#56d8c1" stroke-width="2" d="M173.5,-324C173.5,-324 50.5,-324 50.5,-324 44.5,-324 38.5,-318 38.5,-312 38.5,-312 38.5,-300 38.5,-300 38.5,-294 44.5,-288 50.5,-288 50.5,-288 173.5,-288 173.5,-288 179.5,-288 185.5,-294 185.5,-300 185.5,-300 185.5,-312 185.5,-312 185.5,-318 179.5,-324 173.5,-324"/>
<text text-anchor="middle" x="112" y="-303.5" font-family="sans" font-size="10.00">downloadSampleMetadata</text>
</g>
<!-- 2&#45;&gt;1 -->
<g id="edge8" class="edge">
<title>2&#45;&gt;1</title>
<path fill="none" stroke="grey" stroke-width="2" d="M154.08,-287.88C177.8,-278.22 207.62,-266.09 232.7,-255.88"/>
<polygon fill="grey" stroke="grey" stroke-width="2" points="234.12,-259.08 242.06,-252.07 231.48,-252.6 234.12,-259.08"/>
</g>
<!-- 3 -->
<g id="node4" class="node">
<title>3</title>
<path fill="none" stroke="#68d856" stroke-width="2" d="M352,-324C352,-324 216,-324 216,-324 210,-324 204,-318 204,-312 204,-312 204,-300 204,-300 204,-294 210,-288 216,-288 216,-288 352,-288 352,-288 358,-288 364,-294 364,-300 364,-300 364,-312 364,-312 364,-318 358,-324 352,-324"/>
<text text-anchor="middle" x="284" y="-303.5" font-family="sans" font-size="10.00">downloadTreatmentMetadata</text>
</g>
<!-- 3&#45;&gt;1 -->
<g id="edge6" class="edge">
<title>3&#45;&gt;1</title>
<path fill="none" stroke="grey" stroke-width="2" d="M284,-287.7C284,-279.98 284,-270.71 284,-262.11"/>
<polygon fill="grey" stroke="grey" stroke-width="2" points="287.5,-262.1 284,-252.1 280.5,-262.1 287.5,-262.1"/>
</g>
<!-- 4 -->
<g id="node5" class="node">
<title>4</title>
<path fill="none" stroke="#56d882" stroke-width="2" d="M576,-324C576,-324 394,-324 394,-324 388,-324 382,-318 382,-312 382,-312 382,-300 382,-300 382,-294 388,-288 394,-288 394,-288 576,-288 576,-288 582,-288 588,-294 588,-300 588,-300 588,-312 588,-312 588,-318 582,-324 576,-324"/>
<text text-anchor="middle" x="485" y="-303.5" font-family="sans" font-size="10.00">downloadCellModelPassportsMetadata</text>
</g>
<!-- 4&#45;&gt;1 -->
<g id="edge7" class="edge">
<title>4&#45;&gt;1</title>
<path fill="none" stroke="grey" stroke-width="2" d="M436.09,-287.97C408,-278.19 372.54,-265.84 342.93,-255.52"/>
<polygon fill="grey" stroke="grey" stroke-width="2" points="343.73,-252.09 333.13,-252.11 341.43,-258.71 343.73,-252.09"/>
</g>
<!-- 5 -->
<g id="node6" class="node">
<title>5</title>
<path fill="none" stroke="#d89556" stroke-width="2" d="M654.5,-180C654.5,-180 535.5,-180 535.5,-180 529.5,-180 523.5,-174 523.5,-168 523.5,-168 523.5,-156 523.5,-156 523.5,-150 529.5,-144 535.5,-144 535.5,-144 654.5,-144 654.5,-144 660.5,-144 666.5,-150 666.5,-156 666.5,-156 666.5,-168 666.5,-168 666.5,-174 660.5,-180 654.5,-180"/>
<text text-anchor="middle" x="595" y="-159.5" font-family="sans" font-size="10.00">load_MicroArrayMetadata</text>
</g>
<!-- 14 -->
<g id="node15" class="node">
<title>14</title>
<path fill="none" stroke="#56d8a2" stroke-width="2" d="M697,-108C697,-108 593,-108 593,-108 587,-108 581,-102 581,-96 581,-96 581,-84 581,-84 581,-78 587,-72 593,-72 593,-72 697,-72 697,-72 703,-72 709,-78 709,-84 709,-84 709,-96 709,-96 709,-102 703,-108 697,-108"/>
<text text-anchor="middle" x="645" y="-87.5" font-family="sans" font-size="10.00">preprocess_MicroArray</text>
</g>
<!-- 5&#45;&gt;14 -->
<g id="edge21" class="edge">
<title>5&#45;&gt;14</title>
<path fill="none" stroke="grey" stroke-width="2" d="M607.36,-143.7C613.23,-135.47 620.37,-125.48 626.84,-116.42"/>
<polygon fill="grey" stroke="grey" stroke-width="2" points="629.82,-118.28 632.78,-108.1 624.12,-114.21 629.82,-118.28"/>
</g>
<!-- 6 -->
<g id="node7" class="node">
<title>6</title>
<path fill="none" stroke="#56d0d8" stroke-width="2" d="M722.5,-252C722.5,-252 577.5,-252 577.5,-252 571.5,-252 565.5,-246 565.5,-240 565.5,-240 565.5,-228 565.5,-228 565.5,-222 571.5,-216 577.5,-216 577.5,-216 722.5,-216 722.5,-216 728.5,-216 734.5,-222 734.5,-228 734.5,-228 734.5,-240 734.5,-240 734.5,-246 728.5,-252 722.5,-252"/>
<text text-anchor="middle" x="650" y="-231.5" font-family="sans" font-size="10.00">download_MicroArrayMetadata</text>
</g>
<!-- 6&#45;&gt;5 -->
<g id="edge9" class="edge">
<title>6&#45;&gt;5</title>
<path fill="none" stroke="grey" stroke-width="2" d="M636.4,-215.7C629.88,-207.39 621.93,-197.28 614.75,-188.14"/>
<polygon fill="grey" stroke="grey" stroke-width="2" points="617.37,-185.81 608.44,-180.1 611.87,-190.13 617.37,-185.81"/>
</g>
<!-- 6&#45;&gt;14 -->
<g id="edge19" class="edge">
<title>6&#45;&gt;14</title>
<path fill="none" stroke="grey" stroke-width="2" d="M661.05,-215.61C666.74,-205.62 673.08,-192.58 676,-180 679.62,-164.41 680.18,-159.44 676,-144 673.42,-134.48 668.66,-124.92 663.62,-116.59"/>
<polygon fill="grey" stroke="grey" stroke-width="2" points="666.51,-114.6 658.15,-108.09 660.62,-118.39 666.51,-114.6"/>
</g>
<!-- 7&#45;&gt;0 -->
<g id="edge5" class="edge">
<title>7&#45;&gt;0</title>
<path fill="none" stroke="grey" stroke-width="2" d="M105.48,-143.8C125.88,-124.43 161.25,-92.94 196,-72 224.76,-54.67 260.22,-40.39 286.35,-31.04"/>
<polygon fill="grey" stroke="grey" stroke-width="2" points="287.6,-34.31 295.88,-27.7 285.29,-27.71 287.6,-34.31"/>
</g>
<!-- 8 -->
<g id="node9" class="node">
<title>8</title>
<path fill="none" stroke="#5673d8" stroke-width="2" d="M164,-252C164,-252 12,-252 12,-252 6,-252 0,-246 0,-240 0,-240 0,-228 0,-228 0,-222 6,-216 12,-216 12,-216 164,-216 164,-216 170,-216 176,-222 176,-228 176,-228 176,-240 176,-240 176,-246 170,-252 164,-252"/>
<text text-anchor="middle" x="88" y="-231.5" font-family="sans" font-size="10.00">download_MUTATION_processed</text>
</g>
<!-- 8&#45;&gt;7 -->
<g id="edge11" class="edge">
<title>8&#45;&gt;7</title>
<path fill="none" stroke="grey" stroke-width="2" d="M88,-215.7C88,-207.98 88,-198.71 88,-190.11"/>
<polygon fill="grey" stroke="grey" stroke-width="2" points="91.5,-190.1 88,-180.1 84.5,-190.1 91.5,-190.1"/>
</g>
<!-- 9&#45;&gt;0 -->
<g id="edge1" class="edge">
<title>9&#45;&gt;0</title>
<path fill="none" stroke="grey" stroke-width="2" d="M384.73,-71.7C374.5,-62.97 361.94,-52.24 350.82,-42.75"/>
<polygon fill="grey" stroke="grey" stroke-width="2" points="352.91,-39.94 343.04,-36.1 348.37,-45.26 352.91,-39.94"/>
</g>
<!-- 10&#45;&gt;9 -->
<g id="edge12" class="edge">
<title>10&#45;&gt;9</title>
<path fill="none" stroke="grey" stroke-width="2" d="M436.62,-143.7C431.74,-135.56 425.81,-125.69 420.42,-116.7"/>
<polygon fill="grey" stroke="grey" stroke-width="2" points="423.41,-114.88 415.26,-108.1 417.41,-118.48 423.41,-114.88"/>
</g>
<!-- 11 -->
<g id="node12" class="node">
<title>11</title>
<path fill="none" stroke="#d8b456" stroke-width="2" d="M490,-252C490,-252 404,-252 404,-252 398,-252 392,-246 392,-240 392,-240 392,-228 392,-228 392,-222 398,-216 404,-216 404,-216 490,-216 490,-216 496,-216 502,-222 502,-228 502,-228 502,-240 502,-240 502,-246 496,-252 490,-252"/>
<text text-anchor="middle" x="447" y="-231.5" font-family="sans" font-size="10.00">download_RNASEQ</text>
</g>
<!-- 11&#45;&gt;10 -->
<g id="edge15" class="edge">
<title>11&#45;&gt;10</title>
<path fill="none" stroke="grey" stroke-width="2" d="M447,-215.7C447,-207.98 447,-198.71 447,-190.11"/>
<polygon fill="grey" stroke="grey" stroke-width="2" points="450.5,-190.1 447,-180.1 443.5,-190.1 450.5,-190.1"/>
</g>
<!-- 12&#45;&gt;0 -->
<g id="edge2" class="edge">
<title>12&#45;&gt;0</title>
<path fill="none" stroke="grey" stroke-width="2" d="M267.29,-71.7C276.43,-63.05 287.64,-52.45 297.6,-43.03"/>
<polygon fill="grey" stroke="grey" stroke-width="2" points="300.06,-45.52 304.92,-36.1 295.25,-40.43 300.06,-45.52"/>
</g>
<!-- 13&#45;&gt;12 -->
<g id="edge16" class="edge">
<title>13&#45;&gt;12</title>
<path fill="none" stroke="grey" stroke-width="2" d="M249,-143.7C249,-135.98 249,-126.71 249,-118.11"/>
<polygon fill="grey" stroke="grey" stroke-width="2" points="252.5,-118.1 249,-108.1 245.5,-118.1 252.5,-118.1"/>
</g>
<!-- 14&#45;&gt;0 -->
<g id="edge4" class="edge">
<title>14&#45;&gt;0</title>
<path fill="none" stroke="grey" stroke-width="2" d="M581,-75.09C514.83,-60.7 413.82,-38.74 359.92,-27.03"/>
<polygon fill="grey" stroke="grey" stroke-width="2" points="360.62,-23.6 350.11,-24.89 359.14,-30.44 360.62,-23.6"/>
</g>
<!-- 15 -->
<g id="node16" class="node">
<title>15</title>
<path fill="none" stroke="#56b1d8" stroke-width="2" d="M854.5,-180C854.5,-180 735.5,-180 735.5,-180 729.5,-180 723.5,-174 723.5,-168 723.5,-168 723.5,-156 723.5,-156 723.5,-150 729.5,-144 735.5,-144 735.5,-144 854.5,-144 854.5,-144 860.5,-144 866.5,-150 866.5,-156 866.5,-156 866.5,-168 866.5,-168 866.5,-174 860.5,-180 854.5,-180"/>
<text text-anchor="middle" x="795" y="-159.5" font-family="sans" font-size="10.00">download_MicroArrayFILE</text>
</g>
<!-- 15&#45;&gt;14 -->
<g id="edge20" class="edge">
<title>15&#45;&gt;14</title>
<path fill="none" stroke="grey" stroke-width="2" d="M758.31,-143.88C737.98,-134.39 712.53,-122.51 690.9,-112.42"/>
<polygon fill="grey" stroke="grey" stroke-width="2" points="692.12,-109.13 681.57,-108.07 689.16,-115.47 692.12,-109.13"/>
</g>
</g>
</svg>
